<svg width="17" height="29" viewBox="0 0 17 29" fill="none" xmlns="http://www.w3.org/2000/svg">
<path d="M14.8459 2.00012H11.5629C7.90934 2.00012 5.52655 4.42989 5.52655 8.18019V11.0325H2.24359C1.97884 11.0325 1.71408 11.2438 1.71408 11.5607V15.6808C1.71408 15.9449 1.92588 16.209 2.24359 16.209H5.52655V26.6148C5.52655 26.8789 5.73835 27.143 6.05606 27.143H10.3451C10.6098 27.143 10.8746 26.9317 10.8746 26.6148V16.209H14.74C15.0048 16.209 15.2695 15.9977 15.2695 15.6808V11.5607C15.2695 11.4023 15.2166 11.2966 15.1107 11.191C15.0048 11.0854 14.8989 11.0325 14.74 11.0325H10.8746V8.60276C10.8746 7.4407 11.1393 6.85967 12.6749 6.85967H14.8989C15.1636 6.85967 15.4284 6.64838 15.4284 6.33145V2.52833C15.3225 2.21141 15.1107 2.00012 14.8459 2.00012Z" stroke="#1D1D1B" stroke-width="2.28571"/>
</svg>
