<svg width="20" height="19" viewBox="0 0 20 19" fill="none" xmlns="http://www.w3.org/2000/svg">
<path d="M4.19727 2.11205C4.19699 2.67192 3.97562 3.20875 3.58185 3.60444C3.18809 4.00013 2.65418 4.22227 2.09759 4.22199C1.54099 4.22171 1.00731 3.99903 0.613934 3.60295C0.220561 3.20686 -0.000278034 2.66981 2.62709e-07 2.10994C0.000278559 1.55007 0.221651 1.01324 0.615418 0.61755C1.00919 0.221859 1.54309 -0.000279671 2.09969 2.64256e-07C2.65628 0.000280199 3.18996 0.222956 3.58334 0.619042C3.97671 1.01513 4.19755 1.55218 4.19727 2.11205ZM4.26023 5.78518H0.0629593V19H4.26023V5.78518ZM10.8919 5.78518H6.71564V19H10.8499V12.0654C10.8499 8.20227 15.8552 7.8434 15.8552 12.0654V19H20V10.6299C20 4.11749 12.5918 4.36026 10.8499 7.55841L10.8919 5.78518Z" fill="#1D1D1B"/>
</svg>
