<svg width="24" height="24" viewBox="0 0 24 24" fill="none" xmlns="http://www.w3.org/2000/svg">
<path d="M12.0013 8.40012C11.0465 8.40012 10.1308 8.77941 9.45568 9.45454C8.78055 10.1297 8.40126 11.0453 8.40126 12.0001C8.40126 12.9549 8.78055 13.8706 9.45568 14.5457C10.1308 15.2208 11.0465 15.6001 12.0013 15.6001C12.956 15.6001 13.8717 15.2208 14.5468 14.5457C15.222 13.8706 15.6013 12.9549 15.6013 12.0001C15.6013 11.0453 15.222 10.1297 14.5468 9.45454C13.8717 8.77941 12.956 8.40012 12.0013 8.40012ZM12.0013 6.00012C13.5926 6.00012 15.1187 6.63226 16.2439 7.75748C17.3691 8.8827 18.0013 10.4088 18.0013 12.0001C18.0013 13.5914 17.3691 15.1175 16.2439 16.2428C15.1187 17.368 13.5926 18.0001 12.0013 18.0001C10.41 18.0001 8.88384 17.368 7.75862 16.2428C6.6334 15.1175 6.00126 13.5914 6.00126 12.0001C6.00126 10.4088 6.6334 8.8827 7.75862 7.75748C8.88384 6.63226 10.41 6.00012 12.0013 6.00012ZM19.8013 5.70012C19.8013 6.09795 19.6432 6.47948 19.3619 6.76078C19.0806 7.04209 18.6991 7.20012 18.3013 7.20012C17.9034 7.20012 17.5219 7.04209 17.2406 6.76078C16.9593 6.47948 16.8013 6.09795 16.8013 5.70012C16.8013 5.3023 16.9593 4.92077 17.2406 4.63946C17.5219 4.35816 17.9034 4.20012 18.3013 4.20012C18.6991 4.20012 19.0806 4.35816 19.3619 4.63946C19.6432 4.92077 19.8013 5.3023 19.8013 5.70012ZM12.0013 2.40012C9.03246 2.40012 8.54766 2.40852 7.16646 2.46972C6.22566 2.51412 5.59446 2.64012 5.00886 2.86812C4.5188 3.04805 4.07576 3.33644 3.71286 3.71172C3.33727 4.0746 3.04848 4.51762 2.86806 5.00772C2.64006 5.59572 2.51406 6.22572 2.47086 7.16532C2.40846 8.49012 2.40006 8.95332 2.40006 12.0001C2.40006 14.9701 2.40846 15.4537 2.46966 16.8349C2.51406 17.7745 2.64006 18.4069 2.86686 18.9913C3.07086 19.5133 3.31086 19.8889 3.70926 20.2873C4.11366 20.6905 4.48926 20.9317 5.00526 21.1309C5.59806 21.3601 6.22926 21.4873 7.16526 21.5305C8.49006 21.5929 8.95326 21.6001 12.0001 21.6001C14.9701 21.6001 15.4537 21.5917 16.8349 21.5305C17.7733 21.4861 18.4045 21.3601 18.9913 21.1333C19.4809 20.9525 19.9237 20.6642 20.2873 20.2897C20.6917 19.8865 20.9329 19.5109 21.1321 18.9937C21.3601 18.4033 21.4873 17.7721 21.5305 16.8337C21.5929 15.5101 21.6001 15.0457 21.6001 12.0001C21.6001 9.03132 21.5917 8.54652 21.5305 7.16532C21.4861 6.22692 21.3589 5.59332 21.1321 5.00772C20.9512 4.51814 20.6629 4.0753 20.2885 3.71172C19.9257 3.33594 19.4827 3.04712 18.9925 2.86692C18.4045 2.63892 17.7733 2.51292 16.8349 2.46972C15.5113 2.40732 15.0481 2.40012 12.0001 2.40012M12.0001 0.00012207C15.2605 0.00012207 15.6673 0.012122 16.9477 0.072122C18.2245 0.132122 19.0957 0.332522 19.8601 0.630122C20.6521 0.934922 21.3193 1.34772 21.9865 2.01372C22.5967 2.6136 23.0688 3.33923 23.3701 4.14012C23.6665 4.90452 23.8681 5.77572 23.9281 7.05372C23.9845 8.33292 24.0001 8.73972 24.0001 12.0001C24.0001 15.2605 23.9881 15.6673 23.9281 16.9465C23.8681 18.2245 23.6665 19.0945 23.3701 19.8601C23.0696 20.6614 22.5974 21.3872 21.9865 21.9865C21.3864 22.5965 20.6608 23.0686 19.8601 23.3701C19.0957 23.6665 18.2245 23.8681 16.9477 23.9281C15.6673 23.9845 15.2605 24.0001 12.0001 24.0001C8.73966 24.0001 8.33286 23.9881 7.05246 23.9281C5.77566 23.8681 4.90566 23.6665 4.14006 23.3701C3.33885 23.0695 2.61309 22.5973 2.01366 21.9865C1.40338 21.3867 0.931213 20.6611 0.630061 19.8601C0.332461 19.0957 0.132061 18.2245 0.072061 16.9465C0.014461 15.6673 6.10352e-05 15.2605 6.10352e-05 12.0001C6.10352e-05 8.73972 0.012061 8.33292 0.072061 7.05372C0.132061 5.77572 0.332461 4.90572 0.630061 4.14012C0.930345 3.33874 1.40263 2.61291 2.01366 2.01372C2.61327 1.4032 3.33898 0.930997 4.14006 0.630122C4.90446 0.332522 5.77446 0.132122 7.05246 0.072122C8.33406 0.015722 8.74086 0.00012207 12.0013 0.00012207" fill="#1D1D1B"/>
</svg>
