<svg width="23" height="20" viewBox="0 0 23 20" fill="none" xmlns="http://www.w3.org/2000/svg">
<path fill-rule="evenodd" clip-rule="evenodd" d="M17.9666 3.70249C17.5419 3.12193 16.4062 2.30596 14.5668 2.65795C13.4937 2.86251 12.8525 3.3665 12.4447 4.03162C12.0104 4.74018 11.7999 5.70358 11.7999 6.82469C11.7999 7.12779 11.6731 7.41847 11.4475 7.63279C11.2219 7.84711 10.9159 7.96752 10.5968 7.96752C7.75048 7.96752 5.04127 7.16411 2.76154 4.9916C2.58943 5.87306 2.52164 6.77004 2.55943 7.66581C2.62319 8.90692 2.93478 10.1515 3.67464 11.2177C4.40247 12.2657 5.59948 13.2257 7.60131 13.8291C7.79746 13.8882 7.97438 13.9941 8.11514 14.1367C8.2559 14.2793 8.35579 14.4538 8.40528 14.6436C8.45476 14.8334 8.45218 15.032 8.39778 15.2205C8.34338 15.4091 8.23897 15.5812 8.09455 15.7205C7.45333 16.3452 6.72661 16.8853 5.93392 17.3261C7.20912 17.4518 8.43861 17.461 9.57908 17.3627C11.8889 17.1638 13.7283 16.5364 14.8784 15.6485C17.3001 13.7834 18.5957 11.0017 18.3551 6.34128C18.3142 5.57558 19.0926 4.74932 19.4679 4.12191C18.9013 4.22248 18.3335 4.20419 17.9666 3.70249ZM2.05898 1.41112C2.27679 1.38708 2.49737 1.42004 2.6969 1.50645C2.89642 1.59286 3.06728 1.72943 3.19102 1.9014C4.96668 4.36876 7.09844 5.39502 9.46479 5.62815C9.58028 4.66704 9.85337 3.71735 10.3671 2.8808C11.1202 1.6534 12.3448 0.750569 14.094 0.416864C16.5121 -0.0448384 18.3527 0.787139 19.4198 1.8054L21.5756 1.42255C21.8012 1.3824 22.0342 1.40438 22.2471 1.48592C22.4599 1.56745 22.6438 1.70513 22.777 1.88271C22.9102 2.06028 22.9871 2.27034 22.9987 2.4881C23.0103 2.70585 22.9561 2.92221 22.8424 3.11165L20.7732 6.56527C20.9621 11.5491 19.504 15.0279 16.3954 17.4244C14.7473 18.6952 12.3869 19.4164 9.79683 19.6392C7.18626 19.8632 4.23525 19.5924 1.30227 18.7787C1.05168 18.7092 0.831652 18.5642 0.67541 18.3656C0.519167 18.1669 0.435184 17.9254 0.436135 17.6774C0.437086 17.4294 0.522919 17.1885 0.68068 16.9909C0.838442 16.7933 1.05957 16.6499 1.3107 16.5821C2.7856 16.1833 3.90923 15.8393 4.92338 15.237C3.48095 14.5102 2.41868 13.5594 1.66679 12.476C0.622566 10.9697 0.235192 9.28977 0.158199 7.77552C0.0812054 6.26128 0.310983 4.85789 0.553994 3.84649C0.692341 3.26936 0.853547 2.69109 1.07611 2.13796C1.15461 1.94298 1.28784 1.77216 1.46132 1.64402C1.6348 1.51589 1.84071 1.43534 2.05898 1.41112Z" fill="#1D1D1B"/>
</svg>
