<svg width="200" height="200" viewBox="0 0 200 200" fill="none" xmlns="http://www.w3.org/2000/svg">
<path d="M19.1667 169L99.1667 89L87.5 77.1667L81.5 83.0834C80.729 83.8559 79.8133 84.4688 78.8052 84.887C77.7971 85.3051 76.7164 85.5204 75.625 85.5204C74.5336 85.5204 73.4529 85.3051 72.4448 84.887C71.4367 84.4688 70.5209 83.8559 69.75 83.0834L63.8333 77.1667C63.0608 76.3957 62.4479 75.48 62.0297 74.4719C61.6115 73.4638 61.3963 72.3831 61.3963 71.2917C61.3963 70.2003 61.6115 69.1196 62.0297 68.1115C62.4479 67.1034 63.0608 66.1876 63.8333 65.4167L111 18.25C111.771 17.4775 112.687 16.8646 113.695 16.4464C114.703 16.0282 115.784 15.813 116.875 15.813C117.966 15.813 119.047 16.0282 120.055 16.4464C121.063 16.8646 121.979 17.4775 122.75 18.25L128.667 24.1667C131.917 27.4167 131.917 32.6667 128.667 35.9167L122.75 41.6667L134.583 53.5834C135.354 52.8108 136.27 52.1979 137.278 51.7798C138.286 51.3616 139.367 51.1463 140.458 51.1463C141.55 51.1463 142.63 51.3616 143.639 51.7798C144.647 52.1979 145.562 52.8108 146.333 53.5834C149.583 56.8334 149.583 62.1667 146.333 65.4167L158.083 77.1667L164 71.25C167.25 68 172.583 68 175.833 71.25L181.667 77.1667C184.917 80.4167 184.917 85.75 181.667 89L134.583 136.083C131.333 139.333 126 139.333 122.75 136.083L116.917 130.25C116.125 129.481 115.496 128.561 115.067 127.545C114.637 126.529 114.416 125.437 114.416 124.333C114.416 123.23 114.637 122.138 115.067 121.122C115.496 120.105 116.125 119.186 116.917 118.417L122.75 112.5L111 100.75L30.9167 180.833C30.1457 181.606 29.23 182.219 28.2219 182.637C27.2137 183.055 26.1331 183.27 25.0417 183.27C23.9503 183.27 22.8696 183.055 21.8615 182.637C20.8533 182.219 19.9376 181.606 19.1667 180.833C15.9167 177.583 15.9167 172.25 19.1667 169ZM166.667 158.333C171.087 158.333 175.326 160.089 178.452 163.215C181.577 166.341 183.333 170.58 183.333 175V183.333H100V175C100 170.58 101.756 166.341 104.882 163.215C108.007 160.089 112.246 158.333 116.667 158.333H166.667Z" fill="black"/>
</svg>
