<svg width="20" height="20" viewBox="0 0 20 20" fill="none" xmlns="http://www.w3.org/2000/svg">
<path d="M10 18.3333C8.84724 18.3333 7.76391 18.1144 6.75002 17.6767C5.73613 17.2389 4.85419 16.6453 4.10419 15.8958C3.35419 15.1464 2.76058 14.2644 2.32335 13.25C1.88613 12.2355 1.66724 11.1522 1.66669 9.99999C1.66613 8.84777 1.88502 7.76443 2.32335 6.74999C2.76169 5.73555 3.3553 4.8536 4.10419 4.10416C4.85308 3.35471 5.73502 2.7611 6.75002 2.32332C7.76502 1.88555 8.84835 1.66666 10 1.66666C11.1517 1.66666 12.235 1.88555 13.25 2.32332C14.265 2.7611 15.147 3.35471 15.8959 4.10416C16.6447 4.8536 17.2386 5.73555 17.6775 6.74999C18.1164 7.76443 18.335 8.84777 18.3334 9.99999V11.2083C18.3334 12.0278 18.0522 12.7258 17.49 13.3025C16.9278 13.8792 16.2367 14.1672 15.4167 14.1667C14.9306 14.1667 14.4722 14.0625 14.0417 13.8542C13.6111 13.6458 13.25 13.3472 12.9584 12.9583C12.5556 13.3611 12.1006 13.6633 11.5934 13.865C11.0861 14.0667 10.555 14.1672 10 14.1667C8.84724 14.1667 7.86474 13.7603 7.05252 12.9475C6.2403 12.1347 5.83391 11.1522 5.83335 9.99999C5.8328 8.84777 6.23919 7.86527 7.05252 7.05249C7.86586 6.23971 8.84835 5.83332 10 5.83332C11.1517 5.83332 12.1345 6.23971 12.9484 7.05249C13.7622 7.86527 14.1684 8.84777 14.1667 9.99999V11.2083C14.1667 11.5694 14.2847 11.875 14.5209 12.125C14.757 12.375 15.0556 12.5 15.4167 12.5C15.7778 12.5 16.0764 12.375 16.3125 12.125C16.5486 11.875 16.6667 11.5694 16.6667 11.2083V9.99999C16.6667 8.13888 16.0209 6.56249 14.7292 5.27082C13.4375 3.97916 11.8611 3.33332 10 3.33332C8.13891 3.33332 6.56252 3.97916 5.27085 5.27082C3.97919 6.56249 3.33335 8.13888 3.33335 9.99999C3.33335 11.8611 3.97919 13.4375 5.27085 14.7292C6.56252 16.0208 8.13891 16.6667 10 16.6667H14.1667V18.3333H10ZM10 12.5C10.6945 12.5 11.2847 12.2569 11.7709 11.7708C12.257 11.2847 12.5 10.6944 12.5 9.99999C12.5 9.30555 12.257 8.71527 11.7709 8.22916C11.2847 7.74305 10.6945 7.49999 10 7.49999C9.30558 7.49999 8.7153 7.74305 8.22919 8.22916C7.74308 8.71527 7.50002 9.30555 7.50002 9.99999C7.50002 10.6944 7.74308 11.2847 8.22919 11.7708C8.7153 12.2569 9.30558 12.5 10 12.5Z" fill="#1D1D1B"/>
</svg>
