<svg width="20" height="20" viewBox="0 0 20 20" fill="none" xmlns="http://www.w3.org/2000/svg">
<path d="M8.79497 5.2L5.9758 1.94584C5.6508 1.57084 5.05497 1.5725 4.67747 1.95084L2.35914 4.27334C1.66914 4.96417 1.47164 5.99001 1.8708 6.81251C4.25549 11.75 8.23751 15.7376 13.1716 18.1292C13.9933 18.5283 15.0183 18.3308 15.7083 17.64L18.0483 15.2958C18.4275 14.9167 18.4283 14.3175 18.05 13.9925L14.7833 11.1883C14.4416 10.895 13.9108 10.9333 13.5683 11.2767L12.4316 12.415C12.3734 12.476 12.2968 12.5162 12.2136 12.5294C12.1303 12.5427 12.0451 12.5283 11.9708 12.4883C10.1128 11.4184 8.57163 9.8752 7.50414 8.01584C7.46416 7.94146 7.44968 7.85603 7.46293 7.77264C7.47618 7.68924 7.51641 7.6125 7.57747 7.55417L8.7108 6.42001C9.05414 6.07501 9.09164 5.5425 8.79497 5.2Z" stroke="#1D1D1B" stroke-width="2.66667" stroke-linecap="round" stroke-linejoin="round"/>
</svg>
