<svg width="55" height="55" viewBox="0 0 55 55" fill="none" xmlns="http://www.w3.org/2000/svg">
<path d="M22.9166 41.2499C26.9843 41.2491 30.9347 39.8874 34.1389 37.3816L44.2131 47.4558L47.4535 44.2153L37.3794 34.1412C39.8864 30.9366 41.249 26.9853 41.25 22.9166C41.25 12.808 33.0252 4.58325 22.9166 4.58325C12.8081 4.58325 4.58331 12.808 4.58331 22.9166C4.58331 33.0251 12.8081 41.2499 22.9166 41.2499ZM22.9166 9.16659C30.4998 9.16659 36.6666 15.3335 36.6666 22.9166C36.6666 30.4997 30.4998 36.6666 22.9166 36.6666C15.3335 36.6666 9.16665 30.4997 9.16665 22.9166C9.16665 15.3335 15.3335 9.16659 22.9166 9.16659Z" fill="#1D1D1B"/>
</svg>
