<svg width="102" height="102" viewBox="0 0 102 102" fill="none" xmlns="http://www.w3.org/2000/svg">
<path d="M78.5101 59.7929L78.6994 60.5503L79.4754 60.6366L82.2038 60.9397C82.5331 60.9763 82.8218 61.2936 82.8218 61.6427V65.8869C82.8218 66.236 82.5331 66.5534 82.2038 66.5899L82.1991 66.5905L79.5717 66.8937L78.843 66.9777L78.6273 67.6789C78.2255 68.9845 77.8521 70.0898 77.2148 71.1823L76.8031 71.8879L77.3479 72.4967L79.0554 74.4051C79.2495 74.6401 79.2242 75.0826 79.0075 75.2993L76.0112 78.2956C75.6425 78.5937 75.2723 78.5423 75.0753 78.3734L75.0581 78.3587L75.0404 78.3446L73.1203 76.8288L72.5044 76.3426L71.8361 76.7539C70.6353 77.4929 69.424 77.9627 68.074 78.3484L67.3604 78.5523L67.2684 79.2888L66.9652 81.714L66.9642 81.7216L66.9634 81.7293C66.9268 82.0586 66.6095 82.3473 66.2604 82.3473H62.0162C61.6671 82.3473 61.3497 82.0586 61.3132 81.7293L61.3123 81.7216L61.3114 81.714L61.0082 79.2888L60.9093 78.4973L60.1293 78.3301C58.8719 78.0607 57.6727 77.5144 56.5187 76.8413L55.8578 76.4558L55.2573 76.9299L53.3373 78.4457L53.3195 78.4597L53.3023 78.4745C53.069 78.6744 52.6204 78.6507 52.4017 78.432L49.4054 75.4357C49.1073 75.067 49.1587 74.6968 49.3276 74.4998L49.3276 74.4998L49.3339 74.4923L50.9508 72.5723L51.4606 71.9669L51.0618 71.2833C50.4034 70.1546 49.9446 69.0469 49.6702 67.8576L49.4929 67.0893L48.7099 66.9953L46.1836 66.6921L46.1836 66.6921L46.1738 66.691C45.8446 66.6544 45.5558 66.3371 45.5558 65.988V61.7438C45.5558 61.3947 45.8446 61.0774 46.1738 61.0408L46.1738 61.0408L46.1836 61.0396L48.7099 60.7365L49.4346 60.6495L49.6493 59.9519C50.0321 58.7079 50.505 57.5763 51.1628 56.4485L51.5413 55.7997L51.0861 55.2022L49.4693 53.0801L49.4497 53.0544L49.4286 53.0299C49.2287 52.7967 49.2525 52.348 49.4711 52.1293L52.4674 49.133C52.8361 48.8349 53.2063 48.8863 53.4033 49.0552L53.4153 49.0655L53.4276 49.0754L55.5497 50.7933L56.1116 51.2482L56.7583 50.9249C57.9644 50.3218 59.1754 49.7696 60.3486 49.4989L61.1242 49.3199L61.2121 48.5288L61.5153 45.8004C61.5519 45.4711 61.8692 45.1823 62.2183 45.1823H66.4625C66.811 45.1823 67.128 45.4702 67.1653 45.7989C67.1654 45.7994 67.1654 45.7999 67.1655 45.8004L67.4682 48.6255L67.5451 49.3429L68.2295 49.5711C69.3913 49.9583 70.541 50.4385 71.5838 51.0074L72.2277 51.3586L72.808 50.9101L75.0311 49.1922L75.0537 49.1748L75.0753 49.1563C75.3086 48.9563 75.7572 48.9801 75.9759 49.1988L78.9722 52.1951C79.2703 52.5637 79.2189 52.9339 79.05 53.1309L79.0315 53.1526L79.0141 53.1751L77.2962 55.3983L76.8477 55.9786L77.1989 56.6225C77.7815 57.6905 78.239 58.7086 78.5101 59.7929ZM72.3344 63.9965L72.3348 63.9817V63.9669C72.3348 59.4058 68.6994 55.7704 64.1383 55.7704C59.5771 55.7704 55.9418 59.4058 55.9418 63.9669C55.9418 68.5281 59.5771 72.1635 64.1383 72.1635C68.6243 72.1635 72.2183 68.4068 72.3344 63.9965Z" fill="#D8C372" stroke="#D8C372" stroke-width="2.24562"/>
<path d="M39.7841 59.1153C30.8915 59.1153 23.7167 51.9405 23.7167 43.0479C23.7167 34.1552 30.8915 26.9805 39.7841 26.9805C47.5652 26.9805 54.2347 32.5384 55.5484 40.2184C55.6494 41.0268 56.4578 41.5321 57.2663 41.431C58.0747 41.33 58.58 40.5216 58.4789 39.7131C56.8621 30.5173 48.9799 23.9489 39.6831 23.9489C29.1736 23.9489 20.5841 32.5384 20.5841 43.0479C20.5841 53.5574 29.1736 62.1469 39.6831 62.1469C40.5926 62.1469 41.2999 61.4395 41.2999 60.6311C41.2999 59.8227 40.5926 59.1153 39.7841 59.1153Z" fill="#D8C372"/>
<path d="M39.5821 52.1437C40.3905 52.1437 41.0978 51.4363 41.0978 50.6279V44.5647H47.161C47.9694 44.5647 48.6768 43.8573 48.6768 43.0489C48.6768 42.2405 47.9694 41.5331 47.161 41.5331H41.0978V35.47C41.0978 34.6615 40.3905 33.9542 39.5821 33.9542C38.7736 33.9542 38.0663 34.6615 38.0663 35.47V41.5331H32.0031C31.1947 41.5331 30.4873 42.2405 30.4873 43.0489C30.4873 43.8573 31.1947 44.5647 32.0031 44.5647H38.0663V50.6279C38.0663 51.4363 38.6726 52.1437 39.5821 52.1437Z" fill="#D8C372"/>
</svg>
