<svg width="40" height="40" viewBox="0 0 40 40" fill="none" xmlns="http://www.w3.org/2000/svg">
<path d="M20.0013 16.4001C19.0465 16.4001 18.1309 16.7794 17.4557 17.4545C16.7806 18.1297 16.4013 19.0453 16.4013 20.0001C16.4013 20.9549 16.7806 21.8706 17.4557 22.5457C18.1309 23.2208 19.0465 23.6001 20.0013 23.6001C20.9561 23.6001 21.8718 23.2208 22.5469 22.5457C23.222 21.8706 23.6013 20.9549 23.6013 20.0001C23.6013 19.0453 23.222 18.1297 22.5469 17.4545C21.8718 16.7794 20.9561 16.4001 20.0013 16.4001ZM20.0013 14.0001C21.5926 14.0001 23.1187 14.6323 24.244 15.7575C25.3692 16.8827 26.0013 18.4088 26.0013 20.0001C26.0013 21.5914 25.3692 23.1175 24.244 24.2428C23.1187 25.368 21.5926 26.0001 20.0013 26.0001C18.41 26.0001 16.8839 25.368 15.7587 24.2428C14.6335 23.1175 14.0013 21.5914 14.0013 20.0001C14.0013 18.4088 14.6335 16.8827 15.7587 15.7575C16.8839 14.6323 18.41 14.0001 20.0013 14.0001ZM27.8013 13.7001C27.8013 14.0979 27.6433 14.4795 27.362 14.7608C27.0807 15.0421 26.6991 15.2001 26.3013 15.2001C25.9035 15.2001 25.522 15.0421 25.2407 14.7608C24.9594 14.4795 24.8013 14.0979 24.8013 13.7001C24.8013 13.3023 24.9594 12.9208 25.2407 12.6395C25.522 12.3582 25.9035 12.2001 26.3013 12.2001C26.6991 12.2001 27.0807 12.3582 27.362 12.6395C27.6433 12.9208 27.8013 13.3023 27.8013 13.7001ZM20.0013 10.4001C17.0325 10.4001 16.5477 10.4085 15.1665 10.4697C14.2257 10.5141 13.5945 10.6401 13.0089 10.8681C12.5189 11.048 12.0758 11.3364 11.7129 11.7117C11.3373 12.0746 11.0485 12.5176 10.8681 13.0077C10.6401 13.5957 10.5141 14.2257 10.4709 15.1653C10.4085 16.4901 10.4001 16.9533 10.4001 20.0001C10.4001 22.9701 10.4085 23.4537 10.4697 24.8349C10.5141 25.7745 10.6401 26.4069 10.8669 26.9913C11.0709 27.5133 11.3109 27.8889 11.7093 28.2873C12.1137 28.6905 12.4893 28.9317 13.0053 29.1309C13.5981 29.3601 14.2293 29.4873 15.1653 29.5305C16.4901 29.5929 16.9533 29.6001 20.0001 29.6001C22.9701 29.6001 23.4537 29.5917 24.8349 29.5305C25.7733 29.4861 26.4045 29.3601 26.9913 29.1333C27.4809 28.9525 27.9238 28.6642 28.2873 28.2897C28.6917 27.8865 28.9329 27.5109 29.1321 26.9937C29.3601 26.4033 29.4873 25.7721 29.5305 24.8337C29.5929 23.5101 29.6001 23.0457 29.6001 20.0001C29.6001 17.0313 29.5917 16.5465 29.5305 15.1653C29.4861 14.2269 29.3589 13.5933 29.1321 13.0077C28.9512 12.5181 28.663 12.0753 28.2885 11.7117C27.9258 11.3359 27.4827 11.0471 26.9925 10.8669C26.4045 10.6389 25.7733 10.5129 24.8349 10.4697C23.5113 10.4073 23.0481 10.4001 20.0001 10.4001M20.0001 8.00012C23.2605 8.00012 23.6673 8.01212 24.9477 8.07212C26.2245 8.13212 27.0957 8.33252 27.8601 8.63012C28.6521 8.93492 29.3193 9.34772 29.9865 10.0137C30.5967 10.6136 31.0689 11.3392 31.3701 12.1401C31.6665 12.9045 31.8681 13.7757 31.9281 15.0537C31.9845 16.3329 32.0001 16.7397 32.0001 20.0001C32.0001 23.2605 31.9881 23.6673 31.9281 24.9465C31.8681 26.2245 31.6665 27.0945 31.3701 27.8601C31.0697 28.6614 30.5974 29.3872 29.9865 29.9865C29.3865 30.5965 28.6609 31.0686 27.8601 31.3701C27.0957 31.6665 26.2245 31.8681 24.9477 31.9281C23.6673 31.9845 23.2605 32.0001 20.0001 32.0001C16.7397 32.0001 16.3329 31.9881 15.0525 31.9281C13.7757 31.8681 12.9057 31.6665 12.1401 31.3701C11.3389 31.0695 10.6132 30.5973 10.0137 29.9865C9.40344 29.3867 8.93127 28.6611 8.63012 27.8601C8.33252 27.0957 8.13212 26.2245 8.07212 24.9465C8.01452 23.6673 8.00012 23.2605 8.00012 20.0001C8.00012 16.7397 8.01212 16.3329 8.07212 15.0537C8.13212 13.7757 8.33252 12.9057 8.63012 12.1401C8.93041 11.3387 9.40269 10.6129 10.0137 10.0137C10.6133 9.4032 11.339 8.931 12.1401 8.63012C12.9045 8.33252 13.7745 8.13212 15.0525 8.07212C16.3341 8.01572 16.7409 8.00012 20.0013 8.00012" fill="#D8C372"/>
</svg>
