<svg width="144" height="105" viewBox="0 0 144 105" fill="none" xmlns="http://www.w3.org/2000/svg">
<path d="M62.9828 83.8171H37.4957C36.574 83.8171 35.7992 83.1952 35.6656 82.3659L33.1543 65.9269H29L28.0248 82.2196C27.9714 83.1098 27.1699 83.8049 26.1814 83.8049H2.8583C2.33733 83.8049 1.84309 83.5976 1.48242 83.2439C1.13511 82.8903 0.961457 82.4147 1.01489 81.9391L10.2319 1.74414C10.3254 0.890486 11.1269 0.231951 12.062 0.231951H46.7661C47.7146 0.231951 48.5027 0.878291 48.5962 1.74414L50.3461 16.8904V1.95146C50.3461 1.02463 51.1743 0.268536 52.1895 0.268536H91.2484C92.2636 0.268536 93.0918 1.02463 93.0918 1.95146V20.2685C93.0918 21.1953 92.2636 21.9514 91.2484 21.9514H76.8217V30.4636H89.6187C90.6339 30.4636 91.4621 31.2197 91.4621 32.1465V49.9635C91.4621 50.8904 90.6339 51.6465 89.6187 51.6465H76.274V79.9635C89.0977 79.9757 110.778 79.9879 111.793 79.9635C120.275 79.7562 122.453 73.061 122.533 72.7806C122.773 72.0123 123.561 71.5001 124.456 71.5611C125.338 71.622 126.046 72.244 126.14 73.0367L127.035 79.9635H139.27V51.6343H117.898V60.0001H119.968C120.983 60.0001 121.812 60.7562 121.812 61.683V63.5245C121.812 63.6464 121.798 63.7684 121.771 63.8903C121.344 65.6464 119.34 69.0123 114.839 69.1586C110.056 69.3172 108.106 65.3537 107.746 63.244C107.732 63.1586 107.719 63.0733 107.719 62.9757V20.7563C107.719 20.6587 107.732 20.5734 107.746 20.488C108.106 18.4636 110.043 14.6222 114.758 14.6222H114.772C119.808 14.6344 121.571 18.5246 121.812 20.5856C121.812 20.6465 121.825 20.6953 121.825 20.7563V30.2563H139.311C139.364 24.5368 139.217 16.3904 138.562 14.5978C137.334 11.2197 132.979 3.37828 119.287 3.37828C119.247 3.37828 119.207 3.37828 119.167 3.37828C106.236 3.41487 102.135 6.75633 99.4368 12.5002C99.0361 13.3539 97.9541 13.7563 97.019 13.3783C96.084 13.0124 95.6565 12.0246 96.0572 11.1709C99.8109 3.17097 106.289 0.0490245 119.167 0.000244141C119.207 0.000244141 119.247 0.000244141 119.287 0.000244141C135.837 0.000244141 140.9 10.3417 142.062 13.5246C143.184 16.61 143.011 29.4148 142.971 31.9514C142.957 32.866 142.129 33.6099 141.127 33.6099H119.981C118.966 33.6099 118.138 32.8538 118.138 31.927V20.8417C118.045 20.2319 117.51 17.9758 114.772 17.9636C114.772 17.9636 114.772 17.9636 114.758 17.9636C112.274 17.9636 111.553 20.2807 111.406 20.9026V62.8172C111.539 63.4269 112.247 65.8659 114.705 65.7928C117.029 65.7074 117.871 64.0123 118.111 63.3538H116.068C115.052 63.3538 114.224 62.5977 114.224 61.6708V49.9392C114.224 49.0123 115.052 48.2562 116.068 48.2562H141.127C142.142 48.2562 142.971 49.0123 142.971 49.9392V81.6342C142.971 82.561 142.142 83.3171 141.127 83.3171H125.405C124.47 83.3171 123.682 82.683 123.575 81.8293L123.147 78.5366C120.85 80.9879 117.203 83.183 111.9 83.3171C110.511 83.3537 75.9133 83.3171 74.4306 83.3171C73.4154 83.3171 72.5872 82.561 72.5872 81.6342V49.9635C72.5872 49.0367 73.4154 48.2806 74.4306 48.2806H87.7753V33.8294H74.9783C73.9631 33.8294 73.1349 33.0733 73.1349 32.1465V20.2685C73.1349 19.3417 73.9631 18.5856 74.9783 18.5856H89.4049V3.63438H54.0463V48.9757C54.0463 49.866 53.2849 50.6099 52.2964 50.6587C51.3079 50.7074 50.4663 50.0489 50.3728 49.1587L45.1231 3.63438H13.7451L4.91543 80.4635H24.4449L25.42 64.1708C25.4734 63.2806 26.2749 62.5855 27.2634 62.5855H34.7706C35.6923 62.5855 36.4671 63.2074 36.6007 64.0367L39.112 80.4757H62.9961C64.0113 80.4757 64.8395 81.2318 64.8395 82.1586C64.8262 83.0732 63.998 83.8171 62.9828 83.8171Z" fill="#1D1D1B"/>
<path d="M33.2211 51.6448H27.2635C26.2482 51.6448 25.42 50.8887 25.42 49.9619C25.42 49.0351 26.2482 48.279 27.2635 48.279H31.2308L28.6794 18.4132C28.5992 17.4864 29.3607 16.6815 30.3759 16.6083C31.3911 16.5351 32.2727 17.2303 32.3529 18.1571L35.0645 49.8399C35.1046 50.3034 34.931 50.7668 34.5836 51.1082C34.2363 51.4497 33.7421 51.6448 33.2211 51.6448Z" fill="#1D1D1B"/>
<path d="M16.1365 89.106C16.6975 89.1791 17.0448 89.2157 17.1784 89.2157C17.3254 89.2157 17.686 89.1791 18.2471 89.106L18.8348 93.7523L19.3558 97.7401L19.8634 101.338C19.9569 101.911 20.0504 102.496 20.1439 103.069C20.2107 103.472 20.3176 104.021 20.4378 104.716L18.3673 104.606L16.3502 104.716C16.3502 104.374 16.3369 104.033 16.3102 103.691C16.2834 103.35 16.23 102.813 16.1766 102.082L15.9228 99.5572L15.6423 97.2035L15.2816 94.1181L13.9191 96.6059L12.463 99.362L11.0471 102.094L9.76472 104.582H8.8163L7.54729 102.143C7.29348 101.667 7.03968 101.179 6.79923 100.703C6.62558 100.374 6.43857 100.021 6.21148 99.6547L4.79553 96.9962L3.35287 94.362C3.01891 96.7279 2.76511 98.7157 2.60482 100.325C2.40444 102.167 2.31094 103.63 2.31094 104.716L1.14879 104.606L0 104.716C0.213728 103.606 0.454172 102.289 0.721333 100.764C0.948419 99.423 1.22894 97.6913 1.56289 95.5694C1.96363 93.0084 2.28422 90.862 2.55138 89.1181C3.09906 89.1913 3.43301 89.2279 3.56659 89.2279C3.70018 89.2279 4.04748 89.1913 4.60852 89.1181C5.6638 91.2401 7.574 94.8011 10.3391 99.8132L11.7283 97.3376L13.358 94.423C13.7053 93.8255 13.9859 93.3011 14.2263 92.862C14.3866 92.5694 14.5736 92.2157 14.7873 91.8011C15.0011 91.3864 15.2415 90.9352 15.482 90.4474C15.6155 90.1547 15.8293 89.7157 16.1365 89.106Z" fill="#1D1D1B"/>
<path d="M25.7411 99.9472L25.1266 101.545L24.4454 103.301L23.9778 104.654L23.3901 104.618L22.8023 104.581L22.2146 104.618L21.6001 104.654L28.7199 88.8984C29.0405 88.9472 29.3478 88.9594 29.655 88.9594C29.9489 88.9594 30.2695 88.935 30.6034 88.8984L37.5629 104.691L35.4257 104.581C35.1184 104.606 34.7578 104.642 34.3437 104.654C33.9296 104.679 33.5689 104.691 33.275 104.691C32.5403 102.52 31.9526 100.935 31.5118 99.935H25.7411V99.9472ZM30.9641 98.5691L28.7466 93.2765L26.409 98.5691H30.9641Z" fill="#1D1D1B"/>
<path d="M53.3917 102.058L52.844 104.021C51.4681 104.668 49.8384 104.997 47.9149 104.997C46.5924 104.997 45.3635 104.814 44.2013 104.448C43.0526 104.082 42.0507 103.57 41.2225 102.899C40.381 102.229 39.7264 101.412 39.2589 100.448C38.778 99.4848 38.5509 98.4482 38.5509 97.3263C38.5509 95.8872 38.8047 94.6189 39.3123 93.5214C39.8199 92.4238 40.5279 91.5214 41.4362 90.8019C42.3446 90.0824 43.3999 89.558 44.5887 89.2043C45.7776 88.8507 47.0733 88.6799 48.4626 88.6799C49.3175 88.6799 50.1991 88.7775 51.1208 88.9726C52.0425 89.1677 52.844 89.4482 53.5386 89.8019L53.2314 91.0214L52.9642 92.1311H52.6303C52.323 91.7287 51.949 91.3629 51.5215 91.058C51.0941 90.7531 50.6132 90.497 50.0789 90.3141C49.5446 90.1312 49.0102 90.0458 48.5026 90.0458C47.5275 90.0458 46.6592 90.2409 45.9112 90.6311C45.1631 91.0214 44.5487 91.558 44.0811 92.2409C43.8407 92.5946 43.627 92.936 43.4667 93.2897C43.293 93.6433 43.1594 94.0336 43.0392 94.4604C42.9323 94.8872 42.8388 95.3019 42.7854 95.7043C42.732 96.1067 42.7052 96.5336 42.7052 96.997C42.7052 98.2897 42.9323 99.436 43.3999 100.448C43.8674 101.46 44.5353 102.241 45.4303 102.79C46.3253 103.338 47.3939 103.619 48.6362 103.619C49.3843 103.619 50.1724 103.46 51.0006 103.143C51.8154 102.826 52.51 102.412 53.0978 101.912L53.3917 102.058Z" fill="#1D1D1B"/>
<path d="M56.6509 89.106C56.9982 89.106 57.3321 89.1182 57.626 89.1425C57.9332 89.1669 58.2271 89.1913 58.521 89.2157C58.7882 89.1913 59.0954 89.1547 59.4561 89.1425C59.8167 89.1182 60.124 89.106 60.3911 89.106V95.2645C61.0991 95.2645 61.767 95.2767 62.3815 95.3011C62.9959 95.3255 63.5971 95.3498 64.1982 95.3742C64.7592 95.3498 65.4137 95.3133 66.1484 95.3011C66.8831 95.2767 67.4976 95.2645 68.0052 95.2645V89.106C68.3525 89.106 68.6731 89.1182 68.9803 89.1425C69.2742 89.1669 69.5815 89.1913 69.8753 89.2157C70.1558 89.1913 70.4631 89.1547 70.8237 89.1425C71.1844 89.1182 71.4783 89.106 71.7321 89.106V104.703L69.8753 104.594C69.5948 104.618 69.2876 104.655 68.9269 104.667C68.5662 104.691 68.259 104.703 68.0052 104.703V97.0937C67.2972 97.0937 66.6293 97.0815 66.0149 97.0572C65.4004 97.0328 64.7993 97.0084 64.1982 96.984C63.6371 97.0084 62.9959 97.045 62.2613 97.0572C61.5266 97.0815 60.9121 97.0937 60.3911 97.0937V104.703L58.521 104.594C58.2538 104.618 57.9466 104.655 57.5859 104.667C57.2253 104.691 56.918 104.703 56.6509 104.703V89.106Z" fill="#1D1D1B"/>
<path d="M76.1674 89.106C76.5146 89.106 76.8352 89.1182 77.1423 89.1425C77.4362 89.1669 77.7434 89.1913 78.0238 89.2157C78.3043 89.1913 78.6115 89.1547 78.9721 89.1425C79.3327 89.1182 79.6399 89.106 79.8937 89.106V104.703L78.0238 104.594C77.7434 104.618 77.4362 104.655 77.0756 104.667C76.715 104.679 76.4211 104.703 76.1674 104.703V89.106Z" fill="#1D1D1B"/>
<path d="M84.2892 89.106H86.7604L89.2317 91.5206L91.9968 94.2035L94.9088 97.0815C95.1225 97.3011 95.4164 97.5937 95.7771 97.9474C96.2713 98.4474 96.5652 98.7401 96.6587 98.8376C97.0194 99.2035 97.3133 99.5084 97.5403 99.7523V89.106C97.8609 89.1547 98.1949 89.1669 98.5422 89.1669C98.8628 89.1669 99.1967 89.1425 99.544 89.106V104.703L97.4335 104.679L94.3611 101.545L91.6227 98.7889C91.2621 98.423 90.8346 97.9962 90.3404 97.5084C89.9931 97.1547 89.5522 96.7401 89.0313 96.2279L86.3196 93.6425V104.655L85.812 104.618L85.3311 104.582L84.8369 104.618L84.3426 104.655V89.106H84.2892Z" fill="#1D1D1B"/>
<path d="M113.009 89.1059L112.889 90.0815C112.889 90.2279 112.929 90.545 113.009 91.0572C111.286 90.8498 109.376 90.7523 107.252 90.7523V95.6303H109.843C110.832 95.6303 111.86 95.5571 112.902 95.423C112.822 95.8986 112.782 96.2279 112.782 96.3986C112.782 96.5815 112.822 96.9108 112.902 97.3864C112.368 97.3254 111.847 97.2645 111.326 97.2279C110.805 97.1913 110.311 97.1669 109.83 97.1669H107.238V102.947C108.4 102.947 109.416 102.923 110.297 102.874C111.179 102.825 112.074 102.752 112.996 102.63L112.875 103.606C112.875 103.752 112.916 104.069 112.996 104.582H103.511V89.0938H113.009V89.1059Z" fill="#1D1D1B"/>
<path d="M115.894 89.106H121.197C123.174 89.106 124.523 89.2523 125.231 89.5572C126.674 90.2401 127.395 91.3255 127.395 92.8133C127.395 93.8986 127.048 94.8011 126.353 95.4962C125.659 96.1913 124.71 96.6669 123.508 96.9108L124.764 98.8254L126.42 101.191L127.916 103.289L128.891 104.703L126.634 104.594C126.3 104.618 125.912 104.655 125.485 104.667C125.058 104.691 124.684 104.703 124.39 104.703L121.438 99.9352L120.609 98.6425L119.808 97.4108H119.634V104.703L117.764 104.594C117.497 104.618 117.19 104.655 116.829 104.667C116.468 104.691 116.161 104.703 115.907 104.703V89.106H115.894ZM119.634 96.4352L120.249 96.4596C122.439 96.4596 123.548 95.362 123.548 93.1791C123.548 93.0206 123.535 92.8377 123.508 92.6303C123.481 92.423 123.455 92.2279 123.414 92.0328C123.281 91.3255 122.96 90.8742 122.439 90.6547C121.918 90.4352 121.224 90.3377 120.382 90.3377H119.648V96.4352H119.634Z" fill="#1D1D1B"/>
<path d="M135.05 98.1303L133.701 95.923L132.485 93.862L131.123 91.5084C130.655 90.6913 130.188 89.8986 129.693 89.1059C130.121 89.1059 130.508 89.1181 130.869 89.1425C131.23 89.1669 131.59 89.1913 131.938 89.2157C132.272 89.1913 132.659 89.1547 133.086 89.1303C133.514 89.1059 133.888 89.0937 134.182 89.0937L136.292 93.1425C137.134 94.7279 137.655 95.6303 137.855 95.862C138.483 95.1547 139.725 92.8986 141.582 89.0815C141.97 89.1303 142.37 89.1547 142.798 89.1547C143.185 89.1547 143.586 89.1303 144 89.0815L142.798 90.9962L141.195 93.5328L139.966 95.5693C139.899 95.6913 139.699 96.0449 139.365 96.6059C139.124 97.0084 138.937 97.3742 138.764 97.6669V104.691L136.893 104.582C136.626 104.606 136.319 104.642 135.958 104.655C135.598 104.679 135.29 104.691 135.023 104.691V98.1303H135.05Z" fill="#1D1D1B"/>
</svg>
