<svg width="208" height="152" viewBox="0 0 208 152" fill="none" xmlns="http://www.w3.org/2000/svg">
<path d="M90.9751 120.659H54.1603C52.829 120.659 51.7099 119.764 51.5169 118.57L47.8895 94.9051H41.8888L40.4802 118.359C40.4031 119.641 39.2454 120.641 37.8175 120.641H4.12859C3.37609 120.641 2.66218 120.343 2.14122 119.834C1.63955 119.325 1.38872 118.64 1.4659 117.955L14.7794 2.5108C14.9145 1.28191 16.0722 0.33392 17.4228 0.33392H67.551C68.921 0.33392 70.0594 1.26436 70.1944 2.5108L72.7221 24.3147V2.80924C72.7221 1.47502 73.9184 0.386585 75.3848 0.386585H131.803C133.27 0.386585 134.466 1.47502 134.466 2.80924V29.1775C134.466 30.5117 133.27 31.6002 131.803 31.6002H110.965V43.8539H129.449C130.916 43.8539 132.112 44.9423 132.112 46.2765V71.925C132.112 73.2592 130.916 74.3477 129.449 74.3477H110.174V115.111C128.697 115.129 160.012 115.147 161.479 115.111C173.731 114.813 176.876 105.175 176.992 104.771C177.339 103.665 178.478 102.928 179.77 103.016C181.044 103.103 182.066 103.999 182.201 105.14L183.494 115.111H201.168V74.3301H170.297V86.3732H173.287C174.754 86.3732 175.95 87.4616 175.95 88.7958V91.4467C175.95 91.6222 175.931 91.7978 175.892 91.9734C175.275 94.5013 172.38 99.3466 165.878 99.5573C158.97 99.7855 156.153 94.08 155.632 91.0429C155.613 90.92 155.594 90.7971 155.594 90.6567V29.8797C155.594 29.7393 155.613 29.6164 155.632 29.4935C156.153 26.5793 158.951 21.0493 165.762 21.0493H165.781C173.056 21.0669 175.603 26.6671 175.95 29.634C175.95 29.7217 175.969 29.792 175.969 29.8797V43.5554H201.226C201.303 35.3219 201.091 23.5949 200.146 21.0142C198.371 16.1514 192.08 4.86322 172.303 4.86322C172.245 4.86322 172.187 4.86322 172.13 4.86322C153.452 4.91589 147.529 9.72608 143.631 17.9947C143.052 19.2236 141.489 19.8029 140.139 19.2587C138.788 18.732 138.17 17.31 138.749 16.0812C144.171 4.56478 153.529 0.070588 172.13 0.000366211C172.187 0.000366211 172.245 0.000366211 172.303 0.000366211C196.21 0.000366211 203.522 14.8874 205.201 19.4694C206.822 23.9109 206.571 42.3441 206.513 45.9956C206.494 47.3123 205.298 48.3832 203.85 48.3832H173.307C171.84 48.3832 170.644 47.2947 170.644 45.9605V30.0026C170.509 29.1248 169.737 25.8771 165.781 25.8595C165.781 25.8595 165.781 25.8595 165.762 25.8595C162.173 25.8595 161.131 29.1951 160.919 30.0904V90.4285C161.112 91.3062 162.135 94.8173 165.685 94.712C169.042 94.5891 170.258 92.1489 170.605 91.2009H167.653C166.187 91.2009 164.99 90.1125 164.99 88.7783V71.8899C164.99 70.5557 166.187 69.4673 167.653 69.4673H203.85C205.317 69.4673 206.513 70.5557 206.513 71.8899V117.517C206.513 118.851 205.317 119.939 203.85 119.939H181.14C179.79 119.939 178.651 119.026 178.497 117.797L177.879 113.057C174.561 116.586 169.293 119.746 161.633 119.939C159.626 119.992 109.653 119.939 107.511 119.939C106.044 119.939 104.848 118.851 104.848 117.517V71.925C104.848 70.5908 106.044 69.5024 107.511 69.5024H126.786V48.6992H108.302C106.835 48.6992 105.639 47.6107 105.639 46.2765V29.1775C105.639 27.8433 106.835 26.7549 108.302 26.7549H129.14V5.23189H78.0668V70.503C78.0668 71.7846 76.967 72.8555 75.5391 72.9257C74.1113 72.9959 72.8957 72.0479 72.7607 70.7664L65.1778 5.23189H19.854L7.10002 115.831H35.3092L36.7177 92.3771C36.7949 91.0956 37.9526 90.0949 39.3804 90.0949H50.2242C51.5555 90.0949 52.6746 90.9902 52.8676 92.184L56.495 115.849H90.9944C92.4608 115.849 93.6571 116.937 93.6571 118.271C93.6378 119.588 92.4415 120.659 90.9751 120.659Z" fill="#D8C372"/>
<path d="M47.986 74.3452H39.3805C37.9141 74.3452 36.7178 73.2567 36.7178 71.9225C36.7178 70.5883 37.9141 69.4999 39.3805 69.4999H45.1111L41.4257 26.5066C41.31 25.1724 42.4098 24.0137 43.8762 23.9084C45.3426 23.803 46.6161 24.8037 46.7318 26.1379L50.6487 71.747C50.7066 72.4141 50.4558 73.0812 49.9541 73.5727C49.4524 74.0643 48.7385 74.3452 47.986 74.3452Z" fill="#D8C372"/>
<path d="M23.3083 128.273C24.1187 128.378 24.6203 128.431 24.8133 128.431C25.0255 128.431 25.5465 128.378 26.3569 128.273L27.2059 134.961L27.9583 140.702L28.6916 145.881C28.8266 146.706 28.9617 147.548 29.0968 148.374C29.1932 148.953 29.3476 149.743 29.5212 150.744L26.5305 150.586L23.617 150.744C23.617 150.252 23.5977 149.76 23.5591 149.269C23.5205 148.777 23.4433 148.005 23.3662 146.952L22.9995 143.318L22.5944 139.929L22.0734 135.488L20.1053 139.069L18.0022 143.037L15.9569 146.969L14.1046 150.55H12.7347L10.9016 147.039C10.535 146.355 10.1684 145.652 9.82112 144.968C9.57028 144.494 9.30016 143.985 8.97214 143.458L6.92688 139.631L4.84303 135.839C4.36065 139.245 3.99405 142.106 3.76251 144.424C3.47309 147.074 3.33803 149.181 3.33803 150.744L1.65936 150.586L0 150.744C0.308719 149.146 0.656026 147.25 1.04192 145.056C1.36994 143.124 1.77514 140.632 2.25751 137.577C2.83636 133.89 3.29943 130.801 3.68533 128.29C4.47642 128.395 4.9588 128.448 5.15175 128.448C5.3447 128.448 5.84636 128.395 6.65675 128.29C8.18105 131.345 10.9402 136.471 14.9343 143.686L16.941 140.123L19.2949 135.927C19.7966 135.067 20.2018 134.312 20.5491 133.68C20.7806 133.258 21.0508 132.749 21.3595 132.152C21.6682 131.555 22.0155 130.906 22.3628 130.204C22.5558 129.782 22.8645 129.15 23.3083 128.273Z" fill="#D8C372"/>
<path d="M37.1816 143.879L36.2941 146.179L35.31 148.707L34.6347 150.655L33.7857 150.603L32.9367 150.55L32.0878 150.603L31.2002 150.655L41.4844 127.974C41.9475 128.044 42.3913 128.062 42.835 128.062C43.2595 128.062 43.7226 128.026 44.205 127.974L54.2576 150.708L51.1704 150.55C50.7267 150.585 50.2057 150.638 49.6076 150.655C49.0094 150.691 48.4885 150.708 48.064 150.708C47.0027 147.583 46.1538 145.301 45.517 143.861H37.1816V143.879ZM44.7259 141.895L41.523 134.276L38.1464 141.895H44.7259Z" fill="#D8C372"/>
<path d="M77.1212 146.918L76.3301 149.744C74.3428 150.674 71.9888 151.148 69.2103 151.148C67.3001 151.148 65.525 150.885 63.8463 150.358C62.187 149.832 60.7398 149.094 59.5436 148.129C58.328 147.163 57.3825 145.987 56.7072 144.6C56.0126 143.213 55.6846 141.721 55.6846 140.106C55.6846 138.035 56.0512 136.209 56.7844 134.629C57.5176 133.049 58.5402 131.75 59.8523 130.714C61.1643 129.678 62.6886 128.923 64.4059 128.414C66.1231 127.905 67.9947 127.659 70.0014 127.659C71.2363 127.659 72.5097 127.8 73.8411 128.081C75.1724 128.362 76.3301 128.765 77.3335 129.274L76.8897 131.03L76.5038 132.627H76.0214C75.5776 132.048 75.0374 131.521 74.4199 131.083C73.8025 130.644 73.1079 130.275 72.3361 130.012C71.5643 129.748 70.7925 129.626 70.0593 129.626C68.6508 129.626 67.3966 129.906 66.3161 130.468C65.2356 131.03 64.348 131.802 63.6727 132.785C63.3254 133.295 63.0166 133.786 62.7851 134.295C62.5343 134.804 62.3413 135.366 62.1677 135.981C62.0133 136.595 61.8782 137.192 61.8011 137.771C61.7239 138.351 61.6853 138.965 61.6853 139.632C61.6853 141.493 62.0133 143.143 62.6886 144.6C63.3639 146.057 64.3287 147.181 65.6215 147.971C66.9142 148.761 68.4578 149.165 70.2522 149.165C71.3328 149.165 72.4712 148.936 73.6674 148.48C74.8444 148.024 75.8478 147.427 76.6968 146.707L77.1212 146.918Z" fill="#D8C372"/>
<path d="M81.8291 128.273C82.3308 128.273 82.8131 128.29 83.2376 128.325C83.6814 128.36 84.1059 128.395 84.5304 128.431C84.9163 128.395 85.3601 128.343 85.881 128.325C86.402 128.29 86.8458 128.273 87.2317 128.273V137.138C88.2543 137.138 89.2191 137.156 90.1066 137.191C90.9942 137.226 91.8625 137.261 92.7307 137.296C93.5411 137.261 94.4866 137.208 95.5478 137.191C96.609 137.156 97.4966 137.138 98.2298 137.138V128.273C98.7315 128.273 99.1945 128.29 99.6383 128.325C100.063 128.36 100.507 128.395 100.931 128.431C101.336 128.395 101.78 128.343 102.301 128.325C102.822 128.29 103.246 128.273 103.613 128.273V150.726L100.931 150.568C100.526 150.603 100.082 150.656 99.5611 150.673C99.0402 150.708 98.5964 150.726 98.2298 150.726V139.771C97.2072 139.771 96.2424 139.754 95.3548 139.719C94.4673 139.684 93.599 139.649 92.7307 139.613C91.9204 139.649 90.9942 139.701 89.933 139.719C88.8718 139.754 87.9842 139.771 87.2317 139.771V150.726L84.5304 150.568C84.1445 150.603 83.7007 150.656 83.1797 150.673C82.6588 150.708 82.215 150.726 81.8291 150.726V128.273Z" fill="#D8C372"/>
<path d="M110.02 128.273C110.521 128.273 110.984 128.29 111.428 128.325C111.852 128.36 112.296 128.395 112.701 128.431C113.106 128.395 113.55 128.343 114.071 128.325C114.592 128.29 115.035 128.273 115.402 128.273V150.726L112.701 150.568C112.296 150.603 111.852 150.656 111.331 150.673C110.811 150.691 110.386 150.726 110.02 150.726V128.273Z" fill="#D8C372"/>
<path d="M121.751 128.273H125.321L128.89 131.749L132.884 135.611L137.09 139.754C137.399 140.07 137.824 140.491 138.345 141C139.059 141.72 139.483 142.141 139.618 142.282C140.139 142.808 140.564 143.247 140.892 143.598V128.273C141.355 128.343 141.837 128.36 142.339 128.36C142.802 128.36 143.284 128.325 143.786 128.273V150.726L140.737 150.691L136.299 146.179L132.344 142.212C131.823 141.685 131.205 141.071 130.492 140.368C129.99 139.859 129.353 139.262 128.601 138.525L124.684 134.803V150.656L123.951 150.603L123.256 150.55L122.542 150.603L121.828 150.656V128.273H121.751Z" fill="#D8C372"/>
<path d="M163.235 128.273L163.062 129.677C163.062 129.888 163.12 130.344 163.235 131.081C160.746 130.783 157.987 130.643 154.919 130.643V137.665H158.662C160.09 137.665 161.576 137.559 163.081 137.366C162.965 138.051 162.907 138.525 162.907 138.771C162.907 139.034 162.965 139.508 163.081 140.193C162.309 140.105 161.557 140.017 160.804 139.964C160.052 139.912 159.338 139.877 158.643 139.877H154.9V148.198C156.579 148.198 158.045 148.163 159.318 148.093C160.592 148.022 161.885 147.917 163.216 147.742L163.042 149.146C163.042 149.357 163.1 149.813 163.216 150.55H149.517V128.255H163.235V128.273Z" fill="#D8C372"/>
<path d="M167.402 128.273H175.062C177.918 128.273 179.867 128.483 180.89 128.922C182.973 129.905 184.015 131.468 184.015 133.609C184.015 135.172 183.514 136.471 182.51 137.472C181.507 138.472 180.137 139.157 178.4 139.508L180.214 142.264L182.607 145.67L184.768 148.69L186.176 150.726L182.915 150.568C182.433 150.603 181.874 150.656 181.256 150.673C180.639 150.708 180.098 150.726 179.674 150.726L175.41 143.862L174.213 142.001L173.056 140.228H172.805V150.726L170.104 150.568C169.718 150.603 169.274 150.656 168.753 150.673C168.232 150.708 167.788 150.726 167.422 150.726V128.273H167.402ZM172.805 138.823L173.692 138.859C176.857 138.859 178.458 137.279 178.458 134.136C178.458 133.908 178.439 133.645 178.4 133.346C178.362 133.048 178.323 132.767 178.265 132.486C178.072 131.468 177.609 130.818 176.857 130.502C176.104 130.186 175.101 130.046 173.885 130.046H172.824V138.823H172.805Z" fill="#D8C372"/>
<path d="M195.072 141.264L193.123 138.086L191.368 135.119L189.4 131.731C188.724 130.555 188.049 129.414 187.335 128.273C187.952 128.273 188.512 128.29 189.033 128.325C189.554 128.36 190.075 128.395 190.576 128.431C191.059 128.395 191.618 128.343 192.236 128.308C192.853 128.273 193.394 128.255 193.818 128.255L196.867 134.083C198.082 136.366 198.835 137.665 199.124 137.998C200.031 136.98 201.825 133.732 204.507 128.237C205.067 128.308 205.646 128.343 206.263 128.343C206.823 128.343 207.402 128.308 208 128.237L206.263 130.994L203.948 134.645L202.173 137.577C202.076 137.752 201.787 138.262 201.304 139.069C200.957 139.648 200.687 140.175 200.436 140.596V150.708L197.735 150.55C197.349 150.586 196.905 150.638 196.384 150.656C195.863 150.691 195.42 150.708 195.034 150.708V141.264H195.072Z" fill="#D8C372"/>
</svg>
