<svg width="102" height="102" viewBox="0 0 102 102" fill="none" xmlns="http://www.w3.org/2000/svg">
<path d="M32.1469 67.7315C31.2374 67.8326 30.5301 68.54 30.5301 69.4494V71.2684C30.5301 72.1779 31.2374 72.9863 32.0458 73.0873L33.3595 73.2894C33.5616 74.0979 33.8648 74.9063 34.269 75.6137L33.4606 76.6242C32.8543 77.3316 32.9553 78.3421 33.5616 78.9484L34.8753 80.2621C35.4816 80.8684 36.4922 80.9695 37.1995 80.4642L38.3111 79.6558C39.0185 80.06 39.8269 80.4642 40.6353 80.6663L40.7364 82.081C40.8374 82.9905 41.5448 83.6979 42.4543 83.6979H44.2732C45.1827 83.6979 45.9911 82.9905 46.0922 82.1821L46.2943 80.8684C47.2038 80.6663 48.0122 80.2621 48.8206 79.8579L49.8311 80.6663C50.5385 81.2726 51.549 81.1716 52.1554 80.5652L53.469 79.2516C54.0754 78.6452 54.1764 77.6347 53.6711 76.9273L52.8627 75.9168C53.368 75.1084 53.6711 74.3 53.9743 73.3905L55.1869 73.2894C56.0964 73.1884 56.8038 72.481 56.8038 71.5715V69.7526C56.8038 68.8431 56.0964 68.0347 55.288 67.9336L54.1764 67.8326C53.9743 66.9231 53.6711 66.1147 53.1659 65.3063L53.8732 64.3968C54.4796 63.6894 54.3785 62.6789 53.7722 62.0726L52.4585 60.7589C51.8522 60.1526 50.8417 60.0515 50.1343 60.5568L49.2248 61.2642C48.4164 60.7589 47.5069 60.3547 46.5974 60.1526L46.4964 59.041C46.3953 58.1315 45.688 57.4242 44.7785 57.4242H42.9595C42.0501 57.4242 41.2416 58.1315 41.1406 58.9399L41.0395 60.0515C40.1301 60.2536 39.2206 60.6578 38.3111 61.1631L37.4016 60.4557C36.6943 59.8494 35.6837 59.9505 35.0774 60.5568L33.7637 61.8705C33.1574 62.4768 33.0564 63.4873 33.5616 64.2957L34.3701 65.3063C33.9658 66.1147 33.5616 66.9231 33.3595 67.8326L32.1469 67.7315ZM43.869 65.7105C46.4964 65.7105 48.5175 67.8326 48.5175 70.46C48.5175 73.0873 46.3953 75.1084 43.768 75.1084C41.1406 75.1084 39.1195 72.9863 39.1195 70.3589C39.1195 67.7315 41.2416 65.7105 43.869 65.7105ZM21.8395 41.761C22.1427 42.9736 22.6479 44.0852 23.2543 45.1968L21.5364 47.4199C20.93 48.1273 21.0311 49.1378 21.6374 49.8452L24.669 52.8768C25.2753 53.4831 26.3869 53.5842 27.0943 52.9778L29.3174 51.2599C30.429 51.8663 31.6416 52.3715 32.8543 52.7757L33.1574 55.6052C33.2585 56.5147 34.0669 57.2221 34.9764 57.2221H39.2206C40.1301 57.2221 40.9385 56.5147 41.0395 55.6052L41.3427 52.8768C42.6564 52.5736 43.9701 51.9673 45.1827 51.361L47.3048 53.0789C48.0122 53.6852 49.0227 53.5842 49.7301 52.9778L52.7617 49.9463C53.368 49.3399 53.469 48.2284 52.8627 47.521L51.2459 45.3989C51.9532 44.1862 52.4585 42.9736 52.8627 41.6599L55.389 41.3568C56.2985 41.2557 57.0059 40.4473 57.0059 39.5378V35.2936C57.0059 34.3841 56.2985 33.5757 55.389 33.4746L52.8627 33.1715C52.5596 31.8578 52.0543 30.6452 51.3469 29.4325L52.8627 27.5125C53.469 26.8052 53.368 25.7946 52.7617 25.0873L49.7301 22.0557C49.1238 21.4494 48.0122 21.3483 47.3048 21.9546L45.4859 23.4704C44.2732 22.7631 42.9595 22.1567 41.5448 21.8536L41.2416 19.4283C41.1406 18.5188 40.3322 17.8115 39.4227 17.8115H35.1785C34.269 17.8115 33.4606 18.5188 33.3595 19.4283L33.0564 21.8536C31.6416 22.2578 30.3279 22.7631 29.0143 23.5715L27.0943 22.0557C26.3869 21.4494 25.3764 21.5504 24.669 22.1567L21.6374 25.1883C21.0311 25.7946 20.93 26.9062 21.5364 27.6136L23.1532 29.7357C22.4458 30.9483 22.0416 32.161 21.6374 33.4746L19.01 33.7778C18.1006 33.8789 17.3932 34.6873 17.3932 35.5968V39.841C17.3932 40.7504 18.1006 41.5589 19.01 41.6599L21.8395 41.761ZM37.3006 30.241C41.2416 30.241 44.3743 33.3736 44.3743 37.3147C44.3743 41.2557 41.2416 44.3883 37.3006 44.3883C33.3595 44.3883 30.2269 41.2557 30.2269 37.3147C30.3279 33.4746 33.4606 30.241 37.3006 30.241Z" fill="#1A1A18"/>
<path d="M79.5405 42.8719L77.3174 40.9519C76.61 40.3456 75.5995 40.3456 74.8921 41.053L73.6795 42.2656C72.669 41.7604 71.5574 41.3562 70.3447 41.1541L70.0416 39.4362C69.8395 38.5267 69.0311 37.9204 68.1216 38.0214L65.191 38.2235C64.2816 38.3246 63.5742 39.0319 63.5742 39.9414L63.4732 41.6593C62.3616 42.0635 61.25 42.6698 60.3405 43.2762L58.8247 42.2656C58.1174 41.7604 57.1068 41.8614 56.5005 42.5688L54.5805 44.792C53.9742 45.4993 53.9742 46.5099 54.6816 47.1162L55.8942 48.733C55.49 49.7435 55.0858 50.8551 54.9847 51.8656L53.1658 52.2699C52.2563 52.472 51.65 53.2804 51.751 54.1899L51.9531 57.1204C52.0542 58.0299 52.7616 58.7372 53.671 58.7372L55.6921 58.8383C56.0963 59.7478 56.5005 60.6572 57.1068 61.5667L55.9952 63.2846C55.49 64.093 55.591 65.0025 56.2984 65.6088L58.5216 67.5288C59.2289 68.1351 60.2395 68.1351 60.8458 67.4278L62.3616 66.013C63.3721 66.4172 64.3826 66.8215 65.3932 67.0236L65.7974 69.0446C65.9995 69.9541 66.8079 70.5604 67.7174 70.4594L70.6479 70.2573C71.5574 70.1562 72.2647 69.4488 72.2647 68.5394L72.3658 66.5183C73.4774 66.1141 74.4879 65.6088 75.3974 65.0025L77.0142 66.1141C77.7216 66.6194 78.7321 66.5183 79.3384 65.8109L81.2584 63.5878C81.8648 62.8804 81.8648 61.8699 81.1574 61.2636L79.8437 59.8488C80.349 58.8383 80.6521 57.7267 80.8542 56.6151L82.6732 56.2109C83.5827 56.0088 84.189 55.2004 84.0879 54.2909L83.8858 51.3604C83.7848 50.4509 83.0774 49.7435 82.1679 49.7435L80.349 49.6425C79.9448 48.632 79.4395 47.6214 78.8332 46.712L79.8437 45.1962C80.349 44.4888 80.2479 43.4783 79.5405 42.8719ZM68.5258 59.8488C65.3932 60.152 62.5637 57.7267 62.2605 54.5941C61.9574 51.4614 64.3826 48.632 67.5153 48.3288C70.6479 48.0256 73.4774 50.4509 73.7805 53.5835C73.9826 56.8172 71.6584 59.5457 68.5258 59.8488Z" fill="#1A1A18"/>
</svg>
