<svg width="102" height="102" viewBox="0 0 102 102" fill="none" xmlns="http://www.w3.org/2000/svg">
<path d="M25.1531 32.9718C24.5468 33.0729 24.6478 33.7802 24.6478 33.7802L24.951 35.8013L16.3615 35.5992L11.0057 36.3065L11.2078 39.3381L8.37833 39.4392L8.27728 37.4181C8.27728 36.9129 7.67096 37.216 7.67096 37.216L7.1657 36.3065C6.86254 36.1044 6.96359 36.6097 6.96359 36.6097L7.1657 41.4602L6.15517 41.056C6.15517 40.4497 5.6499 40.4497 5.6499 40.4497C5.24569 40.4497 5.54885 40.8539 5.54885 40.8539L5.34675 49.5445C5.24569 52.0708 5.4478 52.2729 5.4478 52.2729C5.75096 52.9803 6.55938 52.7781 7.06464 52.576L6.45833 49.7466L12.8247 49.5445L13.6331 46.9171L12.5215 38.4287C12.5215 38.4287 12.3194 37.6202 12.9257 37.5192C12.9257 37.5192 16.0583 36.9129 17.5741 36.9129C17.5741 36.9129 18.1805 36.8118 18.1805 37.7213L18.0794 42.6729L19.7973 42.2687V37.8223H23.6373C23.6373 37.8223 24.2436 37.8223 24.2436 38.8329V41.6623L44.151 42.3697L44.247 42.6729H44.249L45.0605 45.1992C45.8689 44.9971 46.3742 44.896 46.3742 44.896L49.81 44.1887C50.0121 44.0876 51.4268 43.7844 53.3468 45.5023L53.65 45.7045L53.8521 45.8055L54.8626 46.6139C55.2668 46.5129 56.0752 46.3108 57.1868 46.6139C58.7026 47.0181 59.7132 46.715 59.7132 46.715L62.4416 47.1192V48.2308C62.4416 48.2308 59.7132 48.1297 59.0058 48.3318L57.1868 48.5339L61.2289 51.6666L64.5637 54.2939C64.5637 54.2939 65.9784 55.3045 65.5742 57.0224C65.17 58.6392 64.1595 59.3466 61.8353 59.3466C61.33 59.3466 60.8247 59.3466 60.2184 59.2455L50.2142 56.9213L46.6773 56.2139C45.1615 57.8308 42.3321 61.1655 43.2415 63.3887C43.2415 63.3887 43.5447 64.8034 44.8584 64.8034H78.3069L80.0248 61.974C79.9237 61.3676 79.8227 60.8624 79.8227 60.2561C79.8227 57.3255 81.3385 54.7992 83.4606 53.1824V52.3739C84.1679 51.5655 84.4711 50.8581 84.5721 49.9487L86.9974 49.6455V51.4645L92.9595 51.3634C92.9595 51.3634 94.1722 51.4645 94.5764 50.1508C94.5764 50.1508 94.7785 49.4434 96.1932 49.6455V48.9381H89.7258V45.7045H91.1406V41.1571H90.029L89.9279 37.9234C90.13 37.7213 90.3321 37.4181 90.2311 37.216C90.2311 37.115 90.029 37.115 89.8269 37.0139C89.5237 36.9129 88.6143 36.7108 88.3111 37.0139C88.21 37.115 88.21 37.3171 88.3111 37.7213L88.4121 37.8223L86.7953 38.0244C86.7953 38.0244 85.9869 37.7213 85.2795 39.2371C85.2795 39.2371 84.4711 39.8434 84.269 40.7529V40.8539H84.1679L76.69 40.3487C76.69 39.8434 76.589 39.4392 76.2858 39.2371C75.9827 38.9339 75.5784 38.9339 75.4774 38.9339L70.4248 38.6308C70.1216 38.6308 69.9195 38.7318 69.7174 38.9339C69.5153 39.2371 69.4142 39.5402 69.3132 39.8434L53.0437 38.6308L52.9426 37.3171C52.8416 36.4076 52.0331 36.5086 52.0331 36.5086H48.6984V38.5297H41.9279L41.5236 37.8223L33.3384 37.6202L33.5405 36.3065C33.6415 35.3971 33.1363 35.296 33.1363 35.296H32.0247C31.5194 35.296 31.4184 35.8013 31.4184 35.8013L31.1152 37.115L30.0036 35.9023L27.7805 35.8013L28.0836 33.8813C28.2857 32.9718 27.4773 32.9718 27.4773 32.9718H25.1531ZM44.249 42.6729L22.8289 41.8644L19.7973 42.4708L15.7552 43.4813L15.1489 43.6834C15.0478 43.6834 15.0478 43.6834 15.0478 43.7844L13.1278 49.9487L6.96359 50.1508L7.46885 52.475L7.87307 54.395L14.4415 55.0013C14.5426 55.0013 14.7447 55.0013 14.9468 54.7992C15.0478 54.6982 15.1489 54.5971 15.1489 54.395L17.4731 47.0181C17.4731 47.0181 17.5741 46.5129 18.4836 46.2097L21.3131 45.4013H27.3763L31.8226 49.8476L34.1468 50.1508L35.4605 50.3529C35.4605 50.3529 35.6626 47.0181 38.8963 46.4118C40.8163 46.0076 43.2415 45.6034 44.8584 45.1992L44.05 42.6729H44.247H44.249ZM25.1551 33.4771H27.4773C27.5784 33.5781 27.5784 33.7802 27.5784 33.8813L27.2752 35.5992H25.4563L25.1531 33.7802V33.4771H25.1551ZM32.2288 35.7002H33.1363V36.3065L32.9342 37.5192L32.3278 37.9234L31.7215 37.216L31.9236 36.1044C32.0247 35.8013 32.1257 35.7002 32.2268 35.7002H32.2288ZM70.5258 38.9339L75.3773 39.2371C75.3773 39.2371 75.6805 39.2371 75.8826 39.4392C76.0847 39.6413 76.0847 39.8434 76.0847 40.2476L69.8194 39.8434C69.8194 39.4392 70.0205 39.035 70.5258 38.9339ZM50.4304 44.4211C50.2552 44.4146 50.0801 44.4385 49.913 44.4918L46.4773 45.1992L38.8983 46.715C35.8667 47.3213 35.7657 50.3529 35.7657 50.3529V50.656C35.8667 53.1824 38.6942 54.2939 38.6942 54.2939L50.3152 56.7192L60.3195 59.0434C64.0584 59.4476 65.0689 58.5382 65.3721 57.0224C65.6753 55.5066 64.4626 54.5971 64.4626 54.5971L61.1279 51.9697L53.1447 45.7045C51.9442 44.6303 50.9822 44.4241 50.4284 44.4211H50.4304ZM21.4141 45.7045L18.5847 46.5129C17.8773 46.715 17.7762 47.1192 17.7762 47.1192L15.7552 53.5866L18.2815 54.0918C18.2815 54.0918 19.9994 51.3634 23.3341 51.0602C26.7699 50.656 30.4078 51.8687 33.0352 55.5066L34.2478 57.3255L35.3594 56.416C35.5615 56.6182 35.8647 56.7192 36.2689 56.7192H44.05C44.05 56.5171 44.5552 56.5171 44.9594 55.9108L38.5931 54.5971C38.4921 54.5971 37.4815 54.1929 36.6731 53.2834L35.9657 54.2939L34.3489 50.555L31.7215 50.2518L27.2752 45.7045H21.4141ZM86.8964 46.6139V49.2413L84.4711 49.5445C84.269 48.736 83.5616 47.6245 83.0564 46.9171L86.8964 46.6139ZM82.45 47.0181H82.7532C83.2585 47.6245 84.0669 48.8371 84.1679 49.6455H83.8648C83.8648 49.6455 82.7532 49.7466 82.45 51.3634L81.3385 51.4645L81.2374 48.2308L82.45 47.0181ZM78.1048 47.5234L78.7111 48.3318L78.8121 51.3634L79.3174 52.6771L77.0942 53.1824L76.9932 47.6245L78.1048 47.5234ZM83.8648 49.9487H84.1679C84.0669 50.7571 83.7637 51.2624 83.2585 51.9697C83.1574 51.7676 82.9553 51.6666 82.7532 51.4645C82.9553 50.1508 83.7637 49.9487 83.8648 49.9487ZM24.7489 51.9697C20.2015 51.9697 16.4626 55.7087 16.4626 60.2561C16.4626 64.8034 20.2015 68.5424 24.7489 68.5424C29.2963 68.5424 33.0352 64.8034 33.0352 60.2561C32.9342 55.7087 29.2963 51.9697 24.7489 51.9697ZM88.6143 51.9697C84.0669 51.9697 80.3279 55.7087 80.3279 60.2561C80.3279 64.8034 84.0669 68.5424 88.6143 68.5424C93.1616 68.5424 96.9006 64.8034 96.9006 60.2561C96.9006 55.7087 93.1616 51.9697 88.6143 51.9697ZM24.7489 57.1234C26.4668 57.1234 27.8815 58.5382 27.8815 60.2561C27.8815 61.974 26.4668 63.3887 24.7489 63.3887C23.031 63.3887 21.6162 61.974 21.6162 60.2561C21.6162 58.5382 23.031 57.1234 24.7489 57.1234ZM88.6143 57.1234C90.3321 57.1234 91.7469 58.5382 91.7469 60.2561C91.7469 61.974 90.3321 63.3887 88.6143 63.3887C86.8964 63.3887 85.4816 61.974 85.4816 60.2561C85.4816 58.5382 86.8964 57.1234 88.6143 57.1234ZM24.7489 58.8413C24.3737 58.8413 24.0138 58.9904 23.7485 59.2557C23.4832 59.521 23.3341 59.8808 23.3341 60.2561C23.3341 60.6313 23.4832 60.9911 23.7485 61.2564C24.0138 61.5217 24.3737 61.6708 24.7489 61.6708C25.1241 61.6708 25.4839 61.5217 25.7493 61.2564C26.0146 60.9911 26.1636 60.6313 26.1636 60.2561C26.1636 59.8808 26.0146 59.521 25.7493 59.2557C25.4839 58.9904 25.1241 58.8413 24.7489 58.8413ZM88.6143 58.8413C88.239 58.8413 87.8792 58.9904 87.6139 59.2557C87.3486 59.521 87.1995 59.8808 87.1995 60.2561C87.1995 60.6313 87.3486 60.9911 87.6139 61.2564C87.8792 61.5217 88.239 61.6708 88.6143 61.6708C88.9895 61.6708 89.3493 61.5217 89.6146 61.2564C89.8799 60.9911 90.029 60.6313 90.029 60.2561C90.029 59.8808 89.8799 59.521 89.6146 59.2557C89.3493 58.9904 88.9895 58.8413 88.6143 58.8413Z" fill="#1D1D1B"/>
</svg>
