<svg width="102" height="102" viewBox="0 0 102 102" fill="none" xmlns="http://www.w3.org/2000/svg">
<path d="M69.0581 23.748C52.9715 23.7535 45.5101 25.7967 45.5101 25.7967C45.6111 25.3925 45.2081 25.4927 45.2081 25.4927C43.9955 25.5938 43.8937 26.7046 43.8937 26.7046L43.6924 26.6039L43.5897 26.302C43.5897 25.9988 43.2865 25.9976 43.0844 26.0987C42.8823 26.1997 42.8831 26.6039 42.8831 26.6039L41.5686 26.7046L41.6713 27.2098L42.0739 28.323C42.1749 28.9293 42.2772 30.646 42.2772 30.646C42.3783 31.5555 43.1871 32.4658 43.1871 32.4658C43.3892 32.6679 43.4886 32.5656 43.5897 32.7677C42.5792 33.3741 39.6494 34.9925 38.841 35.3967V28.7256L36.9206 27.6144L37.3252 29.3336L37.5265 29.5349L37.7298 47.7244L36.7193 48.3303V48.129H35.5055V47.825L30.6561 48.5336C15.2961 50.9589 10.8502 52.5757 10.8502 52.5757C8.52598 53.5862 8.92979 54.7981 8.92979 54.7981L9.13109 58.6389C9.23214 59.6494 9.63635 59.4461 9.63635 59.4461C9.43424 59.6482 9.43505 60.052 9.43505 60.052L11.9614 67.631C12.1635 68.1362 11.4561 67.9349 11.4561 67.9349L9.3344 68.9454C8.82914 68.9454 8.52517 69.1467 8.52517 69.1467C7.51465 70.0562 8.52517 70.6625 8.52517 70.6625C8.52517 71.0667 8.82914 71.0672 8.82914 71.0672C9.43546 70.9661 9.23173 71.6731 9.23173 71.6731C9.63595 72.2794 10.4456 72.3816 10.4456 72.3816C10.6477 73.3922 11.6574 73.0882 11.6574 73.0882H12.2633V73.2915L13.3765 73.1889L15.3976 72.0777C15.8018 71.6735 15.6995 72.0777 15.6995 72.0777L16.266 72.0837C16.2296 71.85 16.2048 71.613 16.2048 71.3711V70.7652C16.2048 68.1378 18.4288 65.9139 21.0561 65.9139L59.0516 65.004C61.5779 65.004 63.4987 67.4301 63.9029 69.8553H64.1042V71.3711C64.0746 72.1421 63.8541 72.9403 63.512 73.6941H63.9029C64.2061 73.6941 64.5088 73.1889 64.5088 73.1889H69.7628L69.8634 72.0777L86.2352 70.3606C86.9426 70.1585 87.2457 69.8553 87.2457 69.8553L87.9523 69.7547L87.8516 67.7336L88.5582 66.8237L94.4201 66.2178V65.4086L95.6319 65.2073C96.0361 65.3083 95.9359 64.8027 95.9359 64.8027C95.9359 64.3985 95.5312 64.4987 95.5312 64.4987C95.5312 64.1956 95.3299 64.1968 95.3299 64.1968L88.8622 62.1757C88.9632 60.761 87.751 59.2448 87.751 59.2448C88.0541 58.1332 88.2562 56.6178 88.2562 56.6178C88.2562 56.0115 88.5582 55.7079 88.5582 55.7079C88.7603 55.7079 89.1661 55.9092 89.1661 55.9092C90.0756 56.2124 90.1766 55.7079 90.1766 55.7079C90.3788 55.2027 89.4681 54.8987 89.4681 54.8987C87.7502 53.585 86.5371 51.7665 86.5371 51.7665C86.1329 50.958 85.426 51.4625 85.426 51.4625C85.2239 50.9572 85.0213 51.0599 85.0213 51.0599C84.415 51.4641 85.124 52.3724 85.124 52.3724C86.0335 53.8882 87.1451 54.5968 87.1451 54.5968L86.8411 54.9993H86.0319L85.2247 54.3934V53.7875L84.0108 52.8776L83.7089 49.9467C83.4057 46.1067 82.5977 44.1875 82.5977 44.1875C81.5872 41.4591 80.7779 41.2566 80.7779 41.2566C79.8685 40.6503 78.9582 41.4599 78.9582 41.4599C78.655 41.0557 78.3523 40.9546 78.3523 40.9546C75.4217 40.3483 71.8845 40.0447 71.8845 40.0447V39.3362C72.1876 38.932 72.2891 38.6296 72.2891 38.6296V37.4178C72.2891 36.8115 71.9871 36.9125 71.9871 36.9125C71.5829 36.9125 71.6832 36.7092 71.6832 36.7092L71.5825 29.4342L73.6036 27.0085C74.2099 27.0085 74.1088 26.4026 74.1088 26.4026H74.2095L73.9055 24.9875C73.2992 23.4717 72.3897 23.7757 72.3897 23.7757C71.2403 23.7567 70.1307 23.7477 69.0581 23.748ZM63.0305 30.5337C65.3674 30.5208 67.1358 30.5454 67.1358 30.5454V31.2519H66.7312C66.6301 32.4646 67.0351 33.577 67.0351 33.577L67.1358 39.8414C66.7316 40.1446 66.6305 40.55 66.6305 40.55L63.4983 40.7513C63.8015 40.0439 63.6996 39.3362 63.6996 39.3362V37.8204C63.6996 37.012 62.8924 37.8204 62.8924 37.8204C62.6903 38.4267 62.8924 39.6401 62.8924 39.6401L62.4878 40.0447C62.5888 38.8321 62.3871 38.9336 62.3871 38.9336C61.6798 38.8325 61.7792 39.8414 61.7792 39.8414C61.8802 40.5488 61.6785 40.9546 61.6785 40.9546C59.7585 41.1567 58.2423 41.4599 58.2423 41.4599C58.5455 40.8536 58.041 40.1454 58.041 40.1454L56.8292 38.225C56.324 37.1134 55.2108 37.4178 55.2108 37.4178L51.8772 38.0237C50.6646 38.529 50.9674 39.5395 50.9674 39.5395L51.1686 40.6507L50.1581 40.7513C49.7539 40.9534 50.0575 41.3572 50.0575 41.3572V41.6612L50.9674 42.1665C50.9674 42.5707 51.5733 42.4704 51.5733 42.4704C51.7754 43.0767 51.9779 44.5921 51.9779 44.5921L51.1686 44.6928C51.0676 44.4907 50.7661 44.3888 50.7661 44.3888V43.3783C50.665 42.873 50.1581 43.0763 50.1581 43.0763L48.9463 43.4809C48.5421 41.1567 46.9252 35.2941 46.9252 35.2941C47.0263 34.3846 46.9252 33.3757 46.9252 33.3757L47.2292 33.273C47.1282 33.0709 47.0259 32.4658 47.0259 32.4658C49.5522 32.2637 53.695 31.6566 53.695 31.6566C54.3013 31.4545 55.5147 30.7467 55.5147 30.7467C57.7884 30.5951 60.6937 30.5464 63.0305 30.5337ZM43.6924 33.2728C43.6924 33.9804 44.9042 34.5875 44.9042 34.5875C44.9042 34.7896 45.4094 34.8915 45.4094 34.8915L47.4305 42.9757L46.9252 44.0869C44.1968 44.7942 42.5792 45.6026 42.5792 45.6026L41.3673 44.3888V44.0869H41.5686C41.7707 43.7837 41.166 43.6822 41.166 43.6822C40.7618 43.7833 41.166 43.9862 41.166 43.9862L41.0634 44.2882L40.8621 44.1875C40.5589 43.9854 40.5581 44.3888 40.5581 44.3888L38.9417 43.0763V36.2039C39.548 36.1029 39.2456 35.7993 39.2456 35.7993C39.8519 35.3951 42.7829 33.7781 43.6924 33.2728ZM71.9871 40.7511C71.9871 40.7511 76.7362 41.2572 78.151 41.5603C78.151 41.5603 78.4545 41.6602 78.5556 41.8623C78.5556 41.8623 77.847 41.7628 77.3417 42.4702C77.3417 42.4702 76.9379 41.8623 76.2306 41.8623L71.9871 41.2564C71.8861 41.2564 71.8861 40.8522 71.9871 40.7511ZM71.8845 41.7616L75.9266 42.3675C75.9266 42.3675 76.735 42.4686 76.9371 42.8728L76.2306 44.5921C76.2306 44.5921 75.7245 44.9963 75.4213 45.0974C75.4213 45.0974 74.7156 44.9955 74.5135 44.7934C74.3114 44.5913 73.5021 43.3783 73.199 43.3783C73.199 43.3783 72.3897 43.7825 71.8845 44.3888V41.7616ZM80.17 41.7715C80.4543 41.7981 80.7519 41.9258 80.9792 42.2669C80.9792 42.2669 83.0015 45.4003 83.2036 49.6446L81.9898 49.7454C81.8887 49.6444 81.9906 45.8052 79.2621 41.9652C79.2621 41.9652 79.6964 41.7271 80.17 41.7715ZM79.4634 42.8728C81.3834 46.6118 81.4845 49.7452 81.4845 49.7452L75.9266 50.3511C75.9266 50.149 75.927 49.6446 75.8259 49.6446L77.7463 44.7934C78.0495 44.6924 78.9582 44.0869 78.9582 44.0869C79.4634 43.6826 79.4634 42.8728 79.4634 42.8728ZM39.0266 43.757C39.074 43.7712 39.1446 43.8076 39.2456 43.8833L40.6608 45.198L40.7614 46.3092C40.7614 46.3092 39.548 46.9163 38.9417 47.1184V43.8835C38.9417 43.8835 38.8845 43.7144 39.0266 43.757ZM77.1404 45.198L75.524 49.4414C75.4229 49.6436 75.4213 50.3513 75.4213 50.3513L74.7148 50.452C74.7148 49.9467 74.9161 49.4419 74.9161 49.3408L76.3312 45.7033L77.1404 45.198ZM75.7253 46.1079C75.7253 46.1079 74.3097 49.2393 74.4108 50.452L74.6141 53.6869L68.7522 54.0915L68.3476 50.7559L75.7253 46.1079ZM83.2036 50.0494L83.5056 53.081L82.1931 53.1816L81.9898 50.2507L83.2036 50.0494ZM81.6878 50.2507L81.7885 53.081L76.3312 53.5862L76.0293 50.8566L81.6878 50.2507ZM75.524 50.7559L75.7253 53.6869L75.0187 53.7875L74.7148 50.8566L75.524 50.7559ZM59.0516 66.5198L21.0561 67.4297C19.2372 67.4297 17.7206 68.9462 17.7206 70.7652V71.3711C17.7206 73.1901 19.2372 74.7046 21.0561 74.7046L59.1522 75.5139C60.9712 75.5139 62.4878 73.1901 62.4878 71.3711H62.3871V70.6625C62.3871 68.7425 60.8705 66.5198 59.0516 66.5198ZM57.3345 68.2389C58.0578 68.2391 58.7515 68.5265 59.263 69.038C59.7744 69.5495 60.0619 70.2432 60.0621 70.9665C60.0619 71.6898 59.7744 72.3835 59.263 72.895C58.7515 73.4065 58.0578 73.6939 57.3345 73.6941C56.9762 73.6943 56.6213 73.6238 56.2902 73.4869C55.9591 73.3499 55.6582 73.149 55.4047 72.8957C55.1512 72.6424 54.9501 72.3417 54.8129 72.0107C54.6756 71.6796 54.605 71.3248 54.6049 70.9665C54.605 70.6082 54.6756 70.2534 54.8129 69.9223C54.9501 69.5913 55.1512 69.2906 55.4047 69.0373C55.6582 68.784 55.9591 68.5831 56.2902 68.4461C56.6213 68.3092 56.9762 68.2387 57.3345 68.2389ZM21.5614 69.2494C22.0167 69.2496 22.4534 69.4306 22.7753 69.7526C23.0973 70.0745 23.2783 70.5112 23.2785 70.9665C23.2783 71.4218 23.0973 71.8585 22.7753 72.1804C22.4534 72.5024 22.0167 72.6834 21.5614 72.6836C21.3358 72.6838 21.1123 72.6395 20.9038 72.5532C20.6953 72.467 20.5058 72.3406 20.3462 72.1811C20.1865 72.0217 20.0599 71.8324 19.9734 71.6239C19.8869 71.4155 19.8424 71.1921 19.8423 70.9665C19.8424 70.7409 19.8869 70.5175 19.9734 70.3091C20.0599 70.1006 20.1865 69.9113 20.3462 69.7519C20.5058 69.5924 20.6953 69.466 20.9038 69.3798C21.1123 69.2935 21.3358 69.2492 21.5614 69.2494Z" fill="#1D1D1B"/>
</svg>
