<svg width="102" height="102" viewBox="0 0 102 102" fill="none" xmlns="http://www.w3.org/2000/svg">
<path d="M90.6512 38.0851C89.9691 38.0851 89.2486 38.1224 88.5412 38.2235L83.6907 39.7393L78.3349 41.4572L78.4359 42.3667L81.4675 41.3561L83.8928 41.154L87.8339 40.9519L88.036 40.3456L88.8444 40.4467L90.9665 40.1435L92.1791 40.9519L92.4823 41.154L91.977 44.5898C91.977 44.5898 91.2696 44.5898 91.4718 45.1961H90.9665V44.5898C90.9665 44.5898 90.9665 44.1856 90.2591 44.1856L85.8128 44.3877C85.8128 44.3877 85.1054 44.3877 85.1054 45.0951V46.6109L84.3981 46.0046H82.0738L81.8717 45.3982L80.7602 45.2972V46.1056L79.9517 47.1161L76.5159 47.5204L76.617 43.9835C76.617 43.9835 76.5159 42.3667 75.5054 43.074C75.5054 43.074 76.0107 43.2761 76.0107 43.9835L75.8086 47.6214H75.2023L74.4949 46.7119L69.5433 47.4193L69.3412 48.0256L68.937 48.3288L60.8528 47.4193L60.7517 46.3077H60.2464V47.4193L59.7412 47.3182C59.7412 47.3182 59.5391 46.3077 58.7306 46.5098L57.7201 46.7119H56.6085L56.4064 47.0151C56.9117 47.0151 58.3264 46.914 58.4275 46.914C58.5285 46.914 58.6296 47.1161 58.6296 47.1161L60.1454 49.2382C60.3475 49.5414 60.4485 49.6425 60.4485 49.7435V49.8446C60.4485 49.9456 60.2464 49.9456 60.1454 49.9456C60.0443 49.9456 60.0443 50.0467 59.9433 50.1477V50.9561C59.9433 51.0572 60.1454 51.1583 60.2464 51.1583C60.3475 51.1583 60.4485 51.2593 60.4485 51.3604V51.5625L60.2464 53.0783H60.1454C60.1454 53.0783 59.9433 53.0783 59.9433 53.2804C59.9433 53.4825 60.1454 53.5835 60.1454 53.5835L59.5391 57.8277C59.5391 58.1309 59.2359 58.2319 59.1349 58.2319L58.1243 58.4341C58.2254 58.6362 58.3264 58.8383 59.0338 58.7372L61.8633 58.6362L62.0654 57.3225L62.2675 55.5035L70.3517 55.2004L72.4738 59.6467H74.4949L74.986 58.2734L77.0202 59.2435L77.1233 59.8488C76.2138 59.8488 75.4044 60.6572 75.4044 61.5667C75.4044 62.5772 76.2128 63.2846 77.1223 63.2846H83.0844C83.5896 63.2846 84.0949 62.9814 84.3981 62.6783L85.1054 63.2846L94.6044 63.1835L94.8065 60.253H95.1097L95.4128 58.8383L94.9076 58.6362L95.2107 57.0193H95.716L96.0191 59.8488L97.4339 60.4551L97.3328 58.5351L95.9181 55.7056L95.3118 54.6951L93.796 54.594L92.5672 54.2676L92.5833 54.0898L94.3012 54.492L97.2318 54.6951V53.9877L96.0191 53.7856L97.0297 45.6003L96.4233 44.5898L95.5139 44.3877L95.3118 44.6909L93.0886 44.893L93.3918 42.8719L93.1897 42.3667L93.3918 41.6593H94.0991V40.9519L92.5833 40.5477L92.3812 39.6382L95.1097 39.0319L94.4023 38.4256C94.4023 38.4256 92.6965 38.0851 90.6502 38.0851H90.6512ZM62.0654 57.3225C62.6717 57.4235 63.278 57.7267 63.3791 58.5351L65.4001 59.1414L65.6022 59.8488H63.5812C62.5707 59.8488 61.8633 60.6572 61.8633 61.5667C61.8633 62.5772 62.6717 63.2846 63.5812 63.2846H69.5433C70.5538 63.2846 71.2612 62.4762 71.2612 61.5667C71.2612 60.5562 70.4528 59.8488 69.5433 59.8488H67.9264L68.1286 58.6362L67.017 58.2319V57.2214L69.2401 57.3225L69.8465 58.6362L70.3517 58.9393L71.3622 58.8383L71.7665 59.5456H71.9686L70.0486 55.4025L62.2675 55.7056L62.0654 57.3225ZM9.21478 40.1435L5.67793 40.7498C5.67793 40.7498 3.85898 40.6488 3.65687 42.2656C3.65687 42.2656 3.25266 44.1856 5.67793 44.3877C5.67793 44.3877 6.28425 44.1856 6.89056 44.893C6.89056 44.893 7.49688 45.1961 8.70951 44.994H16.4906L25.2822 46.6109C25.2822 46.6109 31.1432 48.4298 33.7706 49.5414L50.8485 55.4025C50.8485 55.4025 50.8485 57.5246 52.6675 58.2319C54.4864 58.9393 55.598 57.6256 55.598 57.6256L55.9012 58.1309H58.0233L59.0338 57.9288C59.0338 57.9288 59.2359 57.9288 59.337 57.7267L59.9433 53.5835C59.8422 53.4825 59.6401 53.3814 59.7412 53.1793C59.7412 52.9772 59.9433 52.8761 60.0443 52.8761L60.2464 51.4614C60.2464 51.4614 60.2464 51.3604 60.1454 51.3604C59.9433 51.3604 59.7412 51.2593 59.7412 51.0572V50.2488C59.7412 50.1477 59.7412 49.9456 59.9433 49.8446C60.1454 49.8446 60.1454 49.7435 60.1454 49.7435C60.1454 49.7435 60.1454 49.6425 59.9433 49.3393L58.4275 47.2172L58.3264 47.1161C58.2254 47.1161 56.8106 47.1161 56.2043 47.2172L50.4443 47.1161L48.6254 47.0151C48.6254 46.914 48.5243 46.813 48.4233 46.813L47.1096 46.7119H47.0085L38.6211 46.1056L27.9095 42.3667L21.7453 41.154L18.4106 40.5477L11.1348 40.4467L9.21478 40.1435ZM10.8316 41.3561L13.9643 41.4572L10.6295 43.5793L10.8316 41.3561ZM5.27372 41.5512C5.47582 41.5987 5.47582 42.0635 5.47582 42.0635L5.37477 43.1751C5.37477 43.1751 5.37477 43.6803 4.97056 43.5793C4.97056 43.5793 4.16214 43.1751 4.56635 42.1646C4.56635 42.1646 4.76845 41.6593 5.17267 41.5582C5.20501 41.5464 5.24004 41.544 5.27372 41.5512ZM14.5706 41.5582H14.6716L14.4695 43.7814L11.1348 43.6803L14.5706 41.5582ZM14.9748 41.5582L18.0064 41.6593L19.118 41.8614L14.8737 43.7814L14.9748 41.5582ZM19.6232 41.9624H19.7243L19.219 44.2867L17.5011 43.9835L15.4801 43.8825L19.6232 41.9624ZM20.0274 42.0635L23.2611 42.6698L19.5222 44.2867L20.0274 42.0635ZM23.8674 42.7709L24.3727 42.8719L23.9685 45.0951L20.0274 44.3877L23.8674 42.7709ZM24.6759 42.973L24.979 43.074L27.6064 46.1056L26.0906 45.4993L24.2716 45.1961L24.6759 42.973ZM25.4843 43.1751L26.2927 43.3772L29.1222 44.2867L28.2127 46.3077L25.4843 43.1751ZM29.4253 44.2867L29.6274 44.3877L33.3664 48.0256L28.6169 46.4088L29.4253 44.2867ZM30.3348 44.5898L34.8822 46.1056L34.0738 48.3288L30.3348 44.5898ZM90.3602 44.5898V44.6909C90.2591 44.7919 90.1581 44.893 90.057 44.893C89.956 44.994 89.8549 45.0951 89.7539 45.3982C89.6528 45.6003 89.6528 45.8025 89.5518 45.9035C89.4507 46.1056 89.2486 46.1056 89.2486 46.1056H88.9454V44.6909L90.3602 44.5898ZM88.4402 44.7919V46.2067H87.5307C86.6212 46.2067 86.217 46.7119 86.116 46.914H85.8128L85.6107 46.7119V44.893H85.7118L88.4402 44.7919ZM94.3275 45.376C94.471 45.3659 94.6034 45.372 94.7044 45.3972C95.1086 45.4983 95.2097 45.7014 95.2097 45.7014L95.1086 46.4088L93.2917 46.5098C93.2917 46.5098 93.1907 46.1056 93.2917 45.8025C93.3675 45.5751 93.897 45.4043 94.3275 45.376ZM35.2864 46.3077L35.5896 46.4088L39.3285 50.1477L34.478 48.4298L35.2864 46.3077ZM36.2969 46.6109L40.7432 48.1267L39.9348 50.2488L36.2969 46.6109ZM40.0359 46.7119L46.8064 47.2172H46.9075L48.3222 47.3182C48.4233 47.3182 48.5243 47.3182 48.5243 47.2172L49.9391 47.3182V47.4193L55.497 47.8235C55.497 48.2277 55.9012 48.2277 55.9012 48.2277H56.6085L56.8106 48.4298L57.0128 49.5414L56.1033 49.7435L55.8001 50.8551L54.6885 51.3604L51.8591 50.754L40.0359 46.7119ZM94.6175 47.6851C94.6812 47.6972 94.7044 47.7225 94.7044 47.7225L94.4023 49.9456H93.9981C93.9981 49.9456 93.796 48.733 93.796 48.5309C93.796 48.5309 93.897 47.8235 94.3012 47.7225C94.4528 47.6719 94.5539 47.6719 94.6175 47.6851ZM41.0464 48.2277L41.2485 48.3288L45.1896 52.0677L40.238 50.3498L41.0464 48.2277ZM41.9559 48.5309L46.5033 50.0467L45.6948 52.1688L41.9559 48.5309ZM91.6739 48.6319H92.0781L92.8865 50.4509L92.5833 52.674H91.4718L91.0675 52.0677L91.6739 48.6319ZM46.8064 50.2488H46.9075L50.7475 53.9877L45.998 52.3709L46.8064 50.2488ZM47.6148 50.5519L52.1622 52.0677L51.4548 54.2909L47.6148 50.5519ZM63.0759 51.6635C63.6822 51.6635 64.1875 52.1688 64.1875 52.7751C64.1875 53.3814 63.6822 53.8867 63.0759 53.8867C62.4696 53.8867 61.9643 53.3814 61.9643 52.7751C61.9643 52.1688 62.4696 51.6635 63.0759 51.6635ZM52.4654 52.1688L52.7685 52.2698L52.2633 54.594L51.657 54.3919L52.4654 52.1688ZM73.0802 54.6951C73.8886 54.6951 74.5959 55.4025 74.5959 56.2109C74.697 57.1204 73.9896 57.7267 73.0802 57.7267C72.2717 57.7267 71.5644 57.0193 71.5644 56.2109C71.5644 55.4025 72.2717 54.6951 73.0802 54.6951ZM84.4991 54.8972V55.4025L92.1862 55.2084L92.1781 55.3014L83.8928 55.5035V54.9983H82.377L84.4991 54.8972ZM78.6381 55.3014L80.356 55.5035L82.0738 55.5995V55.8067L80.0528 55.7056L78.4794 55.5086C78.534 55.4439 78.5936 55.3914 78.6381 55.3014ZM52.2633 55.6046L54.0822 56.3119L54.4864 56.7162L55.3959 57.3225C55.2949 57.3225 54.3854 58.333 53.0717 57.9288C51.657 57.5246 51.5559 55.8067 51.5559 55.8067L52.2633 55.6046ZM78.3187 55.6824C77.9822 56.1068 77.4254 56.1108 77.4254 56.1108H75.7712L75.8086 56.0078L77.7286 55.9067C77.7286 55.9067 78.0338 55.8976 78.3187 55.6824ZM77.1233 60.3541H83.0834C83.6897 60.3541 84.297 60.8593 84.297 61.5667C84.297 62.2741 83.7917 62.7793 83.0844 62.7793H77.1223C76.5159 62.7793 75.9096 62.2741 75.9096 61.5667C75.9096 60.9604 76.4159 60.3541 77.1233 60.3541ZM63.4811 60.4551H69.4412C70.0476 60.4551 70.6549 60.9604 70.6549 61.6677C70.6549 62.2741 70.1496 62.8804 69.4422 62.8804H63.4801C62.8738 62.8804 62.2675 62.3751 62.2675 61.6677C62.2675 61.0614 62.7738 60.4551 63.4811 60.4551ZM77.1233 60.5562C76.517 60.5562 76.1127 61.0614 76.1127 61.5667C76.1127 62.173 76.618 62.5772 77.1233 62.5772H83.0834C83.6897 62.5772 84.0939 62.072 84.0939 61.5667C84.0939 61.0614 83.6897 60.5562 83.0834 60.5562H77.1233ZM63.2912 60.6471C62.8566 60.6835 62.4706 61.1382 62.4706 61.6677C62.4706 62.2741 62.9759 62.6783 63.4811 62.6783H69.4412C70.0476 62.6783 70.4518 62.173 70.4518 61.6677C70.4518 61.1625 69.9465 60.6572 69.4412 60.6572H63.4811C63.4186 60.6449 63.3546 60.6415 63.2912 60.6471Z" fill="#1D1D1B"/>
</svg>
