<svg width="102" height="102" viewBox="0 0 102 102" fill="none" xmlns="http://www.w3.org/2000/svg">
<path d="M42.3648 27.6998C42.3648 27.6998 41.4514 23.5242 44.3221 22.2194C44.3221 22.2194 45.4965 22.0889 46.4099 22.7413C46.4099 22.7413 49.0196 24.4376 51.3684 28.7437C51.3684 28.7437 58.2842 29.3961 60.5024 29.5266C60.5024 29.5266 59.7195 24.8291 62.1988 23.3937C62.1988 23.3937 63.6341 22.8718 64.417 23.9157L67.0268 27.4388C67.0268 27.4388 67.9402 28.8742 68.3316 30.0486C68.3316 30.0486 71.9852 30.44 73.8121 30.5705C73.8121 30.5705 74.7255 29.7876 75.3779 30.5705C75.3779 30.5705 76.2913 32.1363 75.8998 36.0509L75.5084 36.7034C75.5084 36.7034 75.3779 40.2265 75.7694 41.1399C76.2913 42.0533 77.3352 42.0533 77.2047 44.924C77.0742 47.7947 78.1181 48.9691 76.2913 55.4934C76.2913 55.4934 76.8132 56.4068 74.9864 59.5385C73.1596 62.6702 72.5072 64.3665 66.7658 68.6726C66.7658 68.6726 65.8524 69.586 65.7219 70.2384C65.5914 70.8908 65.4609 71.1518 64.417 71.8042C64.417 71.8042 62.1988 73.3701 61.1549 74.6749C61.1549 74.6749 61.1549 75.7188 59.85 76.2408C59.85 76.2408 58.9366 76.5017 58.1537 77.5456C58.1537 77.5456 56.9793 78.72 56.0659 79.1115C56.0659 79.1115 54.3696 78.8505 53.5866 78.459C53.5866 78.459 53.4562 77.9371 54.1086 77.1542C54.1086 77.1542 55.6744 74.2835 56.7183 72.7176L51.8903 71.4128C51.8903 71.4128 50.5855 72.7176 50.0635 73.1091C50.0635 73.1091 46.9318 74.9359 45.366 75.3274C45.366 75.3274 44.1916 75.5883 43.0172 74.8054C43.0172 74.8054 42.6258 74.5444 43.9306 73.2396C43.9306 73.2396 46.0184 71.1518 46.6709 69.9774L42.4953 68.5421C42.4953 68.5421 41.5819 69.7164 41.0599 69.8469C41.0599 69.8469 39.8856 69.9774 37.9283 71.2823C37.9283 71.2823 36.7539 72.1957 35.3185 72.0652C35.3185 72.0652 34.0137 71.8042 33.6222 71.4128C33.6222 71.4128 33.7527 70.3689 37.0149 67.4982C37.0149 67.4982 37.4063 66.9762 37.6673 66.7153L34.1442 65.8018C34.1442 65.8018 33.8832 66.9762 33.3612 67.1067C33.3612 67.1067 31.7954 67.2372 29.9686 68.4116C29.9686 68.4116 28.4028 69.1945 27.0979 69.1945C27.0979 69.1945 25.793 68.9335 25.5321 68.5421C25.5321 68.5421 26.315 67.1067 28.7942 65.2799C28.7942 65.2799 29.1857 64.758 29.7076 64.1055L27.0979 63.5836C27.0979 63.5836 26.4455 64.6275 25.2711 64.758C25.2711 64.758 24.3577 64.758 23.0528 65.5409C23.0528 65.5409 21.0955 66.5848 19.7906 66.4543L17.9638 65.8018C17.9638 65.8018 19.3992 63.975 21.0955 62.9311C21.0955 62.9311 22.7918 61.2348 23.3138 60.9739C23.3138 60.9739 23.8357 60.7129 24.8796 60.3214C24.8796 60.3214 30.882 53.1447 34.4051 45.9679C37.9283 38.7911 37.5368 32.7888 38.3197 29.3961C38.3197 29.3961 39.7551 28.0913 41.0599 27.5693C41.0599 27.6998 41.4514 27.3083 42.3648 27.6998Z" fill="#1D1D1B"/>
</svg>
