<svg width="102" height="102" viewBox="0 0 102 102" fill="none" xmlns="http://www.w3.org/2000/svg">
<path d="M68.1057 50.9557C67.3983 50.5515 67.7015 50.0463 67.7015 50.0463C67.7015 49.7431 68.611 49.7431 68.611 49.7431C68.712 48.6315 68.611 47.722 68.611 47.722C68.611 46.8126 68.4089 46.9136 68.4089 46.9136C68.1057 46.7115 67.7015 46.5094 67.7015 46.5094C67.3983 46.2063 68.1057 45.9031 68.1057 45.9031C68.5099 45.701 68.5099 45.4989 68.5099 45.4989C68.4089 45.0947 68.2067 43.781 68.2067 43.781C68.1057 42.6694 67.8025 42.7705 67.8025 42.7705C67.2973 42.3662 67.3983 42.2652 67.3983 42.2652C67.7015 42.0631 67.8025 41.6589 67.8025 41.6589C67.2973 39.4357 66.9941 39.0315 66.9941 39.0315C66.2867 38.5262 66.4888 38.4252 66.4888 38.4252C66.792 38.021 66.691 37.9199 66.4888 37.5157C66.2867 37.1115 65.6804 35.9999 65.6804 35.9999C65.3773 35.1915 64.771 35.2926 64.872 34.9894C64.872 34.6862 64.771 34.4841 64.771 34.4841C64.3667 33.8778 63.4573 32.5641 63.4573 32.5641C63.1541 32.261 62.7499 32.362 62.7499 32.362C62.7499 31.9578 62.4467 31.6547 62.4467 31.6547C62.1436 31.3515 61.2341 30.6441 61.2341 30.6441C60.6278 30.1389 60.2236 30.2399 60.2236 30.2399C59.0109 29.4315 57.6973 29.3304 57.6973 29.3304C53.9583 29.2294 50.1183 30.1389 50.1183 30.1389C47.7941 30.6441 46.2783 31.0483 46.2783 31.0483C42.6404 32.4631 41.0235 34.181 41.0235 34.181C40.8214 34.3831 40.8214 34.7873 40.8214 34.7873C39.4067 35.5957 38.1941 37.8189 38.1941 37.8189C37.7899 38.3241 38.2951 38.8294 38.2951 38.8294L37.2846 39.7389L36.173 42.5684C35.8699 43.4778 36.173 43.5789 36.173 43.5789L36.6783 43.882L35.4656 44.8926C35.2635 45.3978 34.7583 48.2273 34.7583 48.2273C34.4551 48.7326 34.7583 48.7326 34.7583 48.7326L36.072 48.9347C35.4656 49.6421 34.4551 50.6526 34.4551 50.6526C34.3541 52.5726 34.5562 54.5936 34.5562 54.5936H35.8699C36.5772 54.5936 36.4762 54.8968 36.4762 54.8968C34.9604 56.2105 34.7583 56.6147 34.7583 56.6147C34.9604 58.2315 35.5667 60.0505 35.5667 60.0505L36.8804 59.7473C37.5878 59.5452 37.5878 59.8484 37.5878 59.8484L37.7899 60.3536L36.4762 61.5663C36.072 61.8694 36.3751 62.1726 36.3751 62.1726L37.3856 64.3958C37.7899 65.1031 37.992 64.6989 37.992 64.6989L38.6993 64.2947C39.4067 63.8905 39.5078 64.1937 39.5078 64.1937C39.8109 64.3958 39.5078 64.5979 39.5078 64.5979L38.6993 65.8105C38.4972 66.0126 38.5983 66.2147 38.5983 66.2147L40.013 67.8316C40.6193 68.5389 40.9225 68.3368 40.9225 68.3368C41.3267 68.2358 41.6299 68.2358 41.6299 68.2358L41.3267 68.9431C41.1246 69.2463 41.3267 69.6505 41.3267 69.6505C44.6614 71.4695 51.1288 73.6926 51.1288 73.6926C54.5646 74.8042 57.0909 73.8947 57.0909 73.8947C57.293 73.7937 57.293 73.3895 57.293 73.3895C57.4952 72.8842 58.0004 73.3895 58.0004 73.3895C58.6067 73.3895 59.8194 72.581 59.8194 72.581C60.1225 72.3789 60.1225 71.5705 60.1225 71.5705C60.2236 71.4695 60.7288 71.7726 60.7288 71.7726C61.1331 71.5705 62.4467 70.1558 62.4467 70.1558C62.5478 69.8526 62.4467 69.1452 62.4467 69.1452C62.4467 68.5389 62.7499 68.9431 62.7499 68.9431C63.0531 69.3473 63.3562 68.9431 63.3562 68.9431C63.9625 68.2358 64.5688 67.1242 64.5688 67.1242L64.2657 65.3052L64.771 65.7094C65.1752 66.0126 65.2762 65.6084 65.2762 65.6084L65.8825 64.2947C66.2867 63.5873 66.0846 63.3852 66.0846 63.3852L65.7815 62.5768C65.5794 61.9705 65.8825 61.8694 65.8825 61.8694C66.3878 62.1726 66.5899 62.1726 66.5899 62.1726C66.9941 61.7684 67.2973 60.2526 67.2973 60.2526C67.4994 59.5452 67.2973 59.6463 67.2973 59.6463L66.691 58.9389C66.792 58.7368 66.8931 58.1305 66.8931 58.1305L67.7015 58.3326C68.1057 57.221 68.2067 55.8063 68.2067 55.8063L67.4994 55.4021L67.7015 54.3915H68.611C68.712 54.0884 68.8131 52.0673 68.8131 52.0673C68.712 50.9557 68.1057 50.9557 68.1057 50.9557ZM55.0699 53.7852C55.0699 53.7852 54.7667 55.8063 53.5541 57.6252C53.5541 57.6252 51.9373 51.6631 54.2615 45.701C54.2615 45.701 55.9794 48.3284 55.0699 53.7852Z" fill="#1D1D1B"/>
</svg>
