<svg width="102" height="102" viewBox="0 0 102 102" fill="none" xmlns="http://www.w3.org/2000/svg">
<path d="M18.7542 14.0105C18.6152 13.9979 18.4399 14.0247 18.2883 14.1763C18.2883 14.1763 17.6817 14.176 17.3785 14.277C17.3785 14.277 16.8729 14.0737 16.4687 14.579C16.4687 14.579 15.9634 15.0854 15.9634 16.2981C15.9634 16.2981 15.5588 16.3979 15.5588 16.6L15.7621 16.8033L16.064 17.2079L15.8627 32.8711C15.8627 32.8711 15.6602 32.9722 15.4581 32.8711C15.4581 32.8711 15.0535 32.7701 15.0535 33.3764C15.0535 33.3764 14.9525 33.477 15.0535 33.9823C15.0535 33.9823 15.0539 34.589 14.9529 34.8922C14.9529 34.8922 14.8522 35.1937 14.8522 35.8V36.408C14.8522 36.408 14.144 36.4072 14.043 36.6093C14.043 36.6093 13.9415 36.8122 14.1436 36.9132C14.1436 36.9132 13.8405 37.2148 14.1436 37.3158C14.1436 37.3158 14.4468 37.4185 14.6489 37.4185V37.8211C14.6489 37.8211 14.347 37.8215 14.347 38.2257V39.8422C14.347 39.8422 14.3465 40.0455 14.4476 40.0455L14.347 42.8737V43.9869C14.347 43.9869 13.9427 43.9865 13.8417 44.0876V44.4922C13.8417 44.4922 14.0438 44.6939 14.347 44.5928V47.9264C14.347 47.9264 14.2463 49.4426 14.2463 49.8468V51.0606C14.2463 51.0606 13.6392 51.2615 13.4371 51.8678C13.4371 51.8678 11.3158 52.7773 10.7095 56.4152C10.7095 56.4152 10.1015 58.2338 10.1015 62.579V65.7133C10.1015 65.7133 10.0005 66.0164 10.1015 66.2185C10.1015 66.2185 10.2042 66.2181 10.2042 66.3192V66.8245L8.78905 67.0258C8.78905 67.0258 8.58735 66.9255 8.6884 67.3297L8.58573 71.3718L9.19366 73.7975C9.19366 73.7975 8.28378 78.6472 8.28378 80.062L13.0325 79.9613L13.1331 79.4561C13.1331 79.4561 14.9537 80.568 16.7726 80.8712C16.7726 80.8712 17.7823 81.0721 17.9844 81.1732C17.9844 81.1732 18.2868 81.3749 18.691 81.2738H18.8943V85.014C18.8943 85.014 18.8939 85.1146 18.995 85.1146C18.995 85.1146 18.691 85.1138 18.691 85.3159C18.691 85.3159 18.6922 85.4186 18.8943 85.4186V85.5192C18.8943 85.5192 19.1963 85.6203 19.7015 85.5192C19.7015 85.5192 19.8026 85.3175 20.2068 85.4186C20.2068 85.4186 20.2076 85.5192 20.5108 85.5192H20.8147C20.8147 85.5192 21.016 85.5184 21.016 85.2153C21.016 85.2153 21.0152 85.014 21.2173 85.014C21.2173 85.014 21.4198 84.8111 21.1167 84.71V82.7896C21.1167 82.7896 21.5213 82.7904 22.0266 82.5883L21.9259 81.6784C21.9259 81.6784 21.8253 81.4775 21.32 81.3765V80.9719L21.5213 80.3659L21.7226 80.1626L21.9259 79.9613L22.0266 79.5567C22.0266 79.5567 22.3305 79.3538 22.3305 79.2528C22.3305 79.2528 22.8358 79.3542 22.8358 79.1521C22.8358 79.1521 23.5419 78.9508 23.1377 78.4455C23.1377 78.4455 22.9364 78.2434 22.9364 77.9403C22.9364 77.9403 22.9356 77.8396 22.6325 77.8396C22.6325 77.8396 22.9368 77.6371 22.8358 77.435L22.4312 77.3344C22.4312 77.3344 22.5322 77.0308 22.4312 76.9297H23.4417L24.3516 76.8291C24.3516 76.8291 24.4522 76.6262 24.4522 76.5251H23.3411C23.3411 76.5251 23.0375 76.0199 22.9364 76.0199L22.8358 76.1205H21.9259C21.9259 76.1205 21.8253 75.7175 21.8253 75.3133C21.8253 75.3133 21.9259 74.4022 21.9259 73.6948V73.1896C21.9259 73.1896 23.8455 76.2228 27.5845 77.3344C27.5845 77.3344 32.4358 79.1517 37.4884 75.7159C37.4884 75.7159 39.7108 74.0995 41.7319 72.0784C41.7319 72.0784 43.3491 70.4628 43.6523 70.2607L46.1786 72.6843L45.8746 72.787L45.5727 73.0889V73.3929L45.6733 73.5942L46.2792 73.6948V73.8982L45.9753 74.0995L46.1786 75.0093H46.4805L46.8851 74.5041L46.7845 74.2001L46.5832 73.9988V73.7975L47.5937 74.6047L49.4115 76.4245L49.5121 78.0409L50.0805 78.11L62.0924 76.3139L73.5831 77.2376L73.4628 77.2317C75.1049 77.2317 76.4119 78.1996 77.2897 79.3376C77.6202 79.7658 77.8783 80.235 78.0872 80.7251L78.8174 80.5672L79.3227 81.2738L83.8701 80.5672L84.0734 86.8317C84.0734 86.8317 85.0843 87.4396 88.0148 86.9344C88.0148 86.9344 88.1143 83.8017 87.9122 82.387C87.9122 82.387 87.5084 80.5676 87.3063 79.9613L90.7425 79.3554L93.1681 78.9508L92.8642 65.7133L92.7635 63.6922H92.4596L92.2583 63.3883L92.4596 62.9837L92.5622 62.0738L92.2583 61.8725H91.8536L91.449 62.1764L91.3484 62.6817L91.8536 63.5896H89.6313V62.9837H90.3379V61.6712H89.2267C89.2267 61.6712 89.2259 61.3672 88.9227 61.3672L88.0148 58.235C88.0148 58.235 87.9138 57.4253 87.0043 57.5264C87.0043 57.5264 86.7012 57.6283 86.4991 57.8304C86.4991 57.8304 86.0936 57.7293 85.7905 57.8304C85.7905 57.8304 85.3859 58.0329 85.3859 58.7402V60.4573H84.5786C84.5786 60.4573 83.8717 60.558 83.4675 61.0632L82.3543 61.2666H81.2431L80.7378 61.8725H81.1424C81.1424 61.8725 81.1429 61.9727 81.0418 62.0738L76.2911 61.9731L72.8569 62.6817L72.3517 63.0843L71.4418 63.187L68.6115 63.6922L68.3095 62.9837C68.3095 62.9837 68.2073 62.5802 67.601 62.7824L65.3786 63.3883L65.1753 63.2876V63.187H65.4793C65.4793 63.187 65.5803 62.6809 65.4793 62.3777H64.4687L62.5483 57.2244C62.5483 57.2244 62.5479 56.9205 62.1437 56.9205H55.8792L55.7786 56.5159H54.6674L48.1996 57.6291L47.9963 57.1238C47.9963 57.1238 47.9967 56.9205 47.3904 56.9205C47.3904 56.9205 46.8864 56.9209 47.0885 57.3251L47.2898 57.8304C47.2898 57.8304 47.1887 58.1331 47.2898 58.4363C47.2898 58.4363 47.3904 58.6392 47.3904 58.7402L46.1786 58.8409C46.1786 58.8409 45.7744 59.0438 46.1786 59.1449C46.1786 59.1449 46.7845 59.4468 47.2898 59.4468L47.3904 60.256C47.3904 60.256 46.9858 60.2556 46.9858 60.8619L47.1891 63.8935C47.1891 63.8935 46.8851 63.8927 46.8851 64.0948C46.8851 64.0948 46.3807 63.6906 45.6733 63.5896C45.6733 63.5896 45.0674 63.4901 44.5621 63.6922C44.5621 63.6922 42.6421 63.9946 42.0358 63.8935L41.4279 63.3883C41.4279 63.3883 41.5293 63.187 41.3272 63.187L41.0253 63.4889L34.1529 58.7402V58.6396L33.3437 58.0317C33.3437 58.0317 33.3453 57.6291 34.4569 57.1238L34.8595 57.0211L41.6312 60.7613L42.2371 59.6501C42.2371 59.6501 42.5403 59.4476 42.2371 59.2455L38.3963 57.1238C38.3963 57.1238 37.5887 56.5159 36.6792 56.0106C36.6792 56.0106 36.0737 55.4059 35.4674 55.1027C35.4674 55.1027 34.6582 54.6981 34.1529 54.1929C34.1529 54.1929 33.4455 53.4859 32.6371 53.587C32.6371 53.587 32.1314 53.5853 31.7272 53.9895L25.968 50.8573C25.968 50.8573 25.7651 50.7559 25.6641 50.4527C25.6641 50.4527 25.4632 49.9474 24.8568 49.9474C24.8568 49.9474 24.2489 50.0497 24.2489 50.656C24.2489 50.656 23.8455 52.9798 23.5424 53.283C23.5424 53.283 23.2384 53.1827 23.2384 53.587C23.2384 53.587 22.9352 53.7882 22.7331 53.7882C22.7331 53.7882 22.6329 53.8885 22.5318 53.4843C22.5318 53.4843 22.531 53.1823 22.2279 53.1823V49.6455L22.5318 49.4422L22.6325 45.6034C22.6325 45.6034 22.5326 45.1988 22.3305 45.1988V43.9869L23.2384 43.4817C23.2384 43.4817 24.3504 43.0758 24.6535 42.8737C24.6535 42.8737 25.6653 42.1668 25.8674 41.7626C25.8674 41.7626 26.2708 41.459 26.0687 41.358C26.0687 41.358 25.7655 41.3584 25.5634 41.7626C25.5634 41.7626 24.7546 42.672 24.1483 42.7731L23.643 42.9764V42.4711L22.8358 41.6619L22.9364 38.1251V31.5566C22.9364 31.5566 22.8342 31.3553 22.7331 31.3553C22.7331 31.3553 22.7339 30.9495 22.5318 30.7474V25.1895H22.9364L23.0371 24.0783C23.0371 24.0783 23.947 23.5727 23.4417 22.6632C23.4417 22.6632 23.1373 22.2594 22.7331 22.0573H25.1588C25.1588 22.0573 25.1592 22.2602 25.0581 22.3612C25.0581 22.3612 24.9571 22.4611 25.0581 22.6632C25.0581 22.6632 25.1584 22.9663 25.2594 22.6632C25.2594 22.6632 25.3621 22.0569 25.3621 21.1474C25.3621 21.1474 25.2602 20.4408 25.0581 20.4408C25.0581 20.4408 24.9567 20.4416 25.1588 20.7448C25.1588 20.7448 25.2598 21.1474 25.1588 21.1474L24.0476 21.4514C24.0476 21.4514 23.3398 21.2484 22.6325 21.1474L22.5318 20.8454V17.2079C22.5318 17.2079 22.9352 17.2075 22.7331 16.8033C22.7331 16.8033 22.6321 16.3987 22.2279 16.3987H21.7226V15.9941C21.7226 15.9941 21.7238 15.6918 21.4206 15.7928L21.1167 16.2981C21.1167 16.2981 21.0152 16.0964 20.7121 16.1974C20.7121 16.1974 20.2076 13.9726 18.995 14.0737C18.995 14.0737 18.8931 14.0232 18.7542 14.0105ZM26.7752 56.4153L28.291 57.629C27.8868 57.8311 27.4838 58.5369 27.4838 58.5369C25.968 59.6485 26.1693 61.8725 26.1693 61.8725C25.1588 60.2556 25.1588 58.8409 25.1588 58.8409C25.6641 57.8304 25.7647 56.9205 25.7647 56.9205L26.7752 56.4153ZM24.4522 57.1237H24.7542C24.5521 60.3574 25.6641 61.7718 25.6641 61.7718C26.0683 62.6813 26.1693 63.187 26.1693 63.187C26.1693 64.5007 26.0687 65.1054 26.0687 65.1054C25.6645 66.2169 24.5529 66.1159 24.5529 66.1159L24.4522 65.8139V65.51L24.0476 65.4093V59.9521H23.3411V59.0422H23.2384L23.643 58.8409L23.947 58.5369L24.0476 57.931L23.8463 57.7297L24.4522 57.1237ZM28.7076 58.7007C28.8282 58.6926 28.9352 58.6992 29.0193 58.7086C29.1315 58.7215 29.2006 58.7405 29.2006 58.7405C29.6048 59.1448 30.0098 59.1452 30.0098 59.1452C30.6161 61.8736 31.9302 63.8936 31.9302 63.8936C33.5471 66.8242 36.5783 67.4305 36.5783 67.4305C38.2962 68.0368 41.4276 67.4305 41.4276 67.4305C41.7307 68.441 42.237 69.5523 42.237 69.5523C35.3654 76.8281 32.3328 76.2214 32.3328 76.2214C26.0676 77.2319 23.2381 72.3826 23.2381 72.3826C29.7055 71.8773 27.8875 63.9952 27.5844 62.2773C27.2812 60.6604 27.0791 60.4575 27.5844 59.447C27.8685 58.8786 28.3456 58.7253 28.7076 58.7007ZM56.7239 58.7381C56.7634 58.7335 56.7888 58.7401 56.7888 58.7401L61.2359 58.8409C61.6401 58.8409 61.5378 59.5475 61.5378 59.5475L61.6384 64.6001L56.5858 64.9041L56.3845 64.7028C56.1824 64.3996 56.2839 59.5475 56.2839 59.5475C56.3596 58.8653 56.6055 58.7524 56.7239 58.7381ZM54.1006 58.9238C54.3565 58.9096 54.8686 58.968 54.8686 59.6501V65.0047C54.8686 65.0047 49.6133 65.4101 48.9059 65.7133L48.6043 60.3567C48.4021 60.3567 48.2999 59.8514 48.9062 59.8514L53.9588 58.9415C53.9588 58.9415 54.0154 58.9284 54.1006 58.9238ZM31.6266 59.8514L37.7904 64.0948C34.0514 63.4885 31.9297 61.0632 31.6266 60.558C31.4245 60.0527 31.6266 59.8514 31.6266 59.8514ZM31.6266 61.7718C34.8603 65.3087 39.7108 65.208 39.7108 65.208L39.9121 65.51L39.7108 65.9146L41.0253 66.7238C39.5095 67.3301 36.8805 66.8245 36.8805 66.8245C32.8384 66.1171 31.6266 61.7718 31.6266 61.7718ZM54.7681 66.5205L54.8687 68.3403C54.8687 68.9466 54.2628 68.8455 54.2628 68.8455L50.422 69.1475L49.9167 68.8455V67.0258C50.9273 66.7226 54.7681 66.5205 54.7681 66.5205ZM62.1437 77.8396L47.2898 80.062C45.2866 80.062 43.5876 81.3555 43.5575 83.3462C43.5868 85.4309 45.2862 86.4291 47.2898 86.4291L73.4628 87.2363C75.3856 87.2363 77.0155 84.9535 77.1715 82.9909C77.0146 81.0288 75.3849 78.7475 73.4628 78.7475L62.1437 77.8396ZM77.1715 82.9909C77.1796 83.0919 77.201 83.196 77.201 83.2949V82.6889C77.201 82.7873 77.1795 82.8905 77.1715 82.9909ZM43.5575 83.3462C43.5573 83.328 43.5516 83.3132 43.5516 83.2949V83.3975C43.5516 83.3796 43.5573 83.364 43.5575 83.3462ZM72.7543 80.062C73.1392 80.0619 73.5203 80.1377 73.8759 80.285C74.2316 80.4323 74.5547 80.6481 74.8269 80.9203C75.099 81.1925 75.3149 81.5156 75.4622 81.8712C75.6095 82.2269 75.6852 82.608 75.6852 82.9929C75.6852 83.3778 75.6095 83.759 75.4622 84.1146C75.3149 84.4702 75.099 84.7933 74.8269 85.0655C74.5547 85.3377 74.2316 85.5536 73.8759 85.7009C73.5203 85.8481 73.1392 85.9239 72.7543 85.9239C71.9772 85.9234 71.2322 85.6144 70.683 85.0648C70.1337 84.5152 69.8252 83.7699 69.8253 82.9929C69.8252 82.2159 70.1337 81.4706 70.683 80.921C71.2322 80.3714 71.9772 80.0624 72.7543 80.062ZM46.7845 81.4771C47.0367 81.4771 47.2864 81.5267 47.5195 81.6232C47.7525 81.7197 47.9642 81.8611 48.1425 82.0395C48.3209 82.2178 48.4623 82.4295 48.5588 82.6626C48.6553 82.8956 48.705 83.1453 48.7049 83.3975C48.7045 83.9065 48.5019 84.3945 48.1418 84.7543C47.7817 85.114 47.2935 85.316 46.7845 85.3159C46.2755 85.316 45.7873 85.114 45.4272 84.7543C45.067 84.3945 44.8645 83.9065 44.8641 83.3975C44.864 83.1453 44.9137 82.8956 45.0102 82.6626C45.1067 82.4295 45.2481 82.2178 45.4264 82.0395C45.6048 81.8611 45.8165 81.7197 46.0495 81.6232C46.2825 81.5267 46.5323 81.4771 46.7845 81.4771Z" fill="#1D1D1B"/>
</svg>
