<svg width="102" height="102" viewBox="0 0 102 102" fill="none" xmlns="http://www.w3.org/2000/svg">
<path d="M72.2118 31.4535C71.9087 31.4535 71.8072 31.6548 71.8072 31.6548L71.7066 31.9588L68.8763 31.7554V31.8581H66.5513C66.046 31.8581 65.8447 32.464 65.8447 32.464V32.5647L64.9348 32.464C64.7327 32.1609 64.2283 32.0594 64.2283 32.0594H61.8026C61.0952 32.0594 60.4881 32.3634 60.4881 32.3634L57.8611 32.2607L54.5276 32.464C53.315 32.5651 50.4855 32.766 50.4855 32.766C49.7781 32.867 49.6763 33.4745 49.6763 33.4745C49.5752 33.7777 49.5756 34.4851 49.5756 34.4851C49.3735 34.6872 49.3723 35.091 49.3723 35.091C49.3723 36.2026 49.2716 39.8397 49.2716 39.8397C49.2716 40.3449 49.7769 40.6489 49.7769 40.6489H49.475C49.576 40.6489 49.5756 40.5482 49.5756 40.5482C49.5756 40.4472 49.171 40.4476 49.171 40.4476C48.9689 40.4476 49.0703 40.6489 49.0703 40.6489H48.3618V41.3555C48.1596 41.3555 47.2506 41.4581 47.2506 41.4581V41.0535C47.5537 41.0535 47.9592 40.9529 47.9592 40.9529C48.0602 40.9529 47.8565 40.7495 47.8565 40.7495C47.6544 40.4464 47.2506 40.3449 47.2506 40.3449V40.2443C45.8358 39.638 44.8249 40.2443 44.8249 40.2443V40.3449C44.4207 40.446 44.219 40.8502 44.219 40.8502C44.4211 41.0523 44.9276 41.0535 44.9276 41.0535V41.4581H44.8249V41.6594H44.219C44.0169 41.6594 44.1183 41.1542 44.1183 41.1542C44.2194 40.9521 44.1183 40.7495 44.1183 40.7495V40.5482L44.219 37.8186L44.4223 33.9798C44.4223 33.8788 44.7243 33.8792 44.7243 33.8792C44.7243 34.0813 44.8249 34.0805 44.8249 34.0805H45.3302C45.4312 34.0805 45.4328 33.9798 45.4328 33.9798L45.2295 33.6758C45.1285 33.5748 45.3302 33.5752 45.3302 33.5752C45.4312 33.5752 45.4328 33.4745 45.4328 33.4745H45.1289L44.6236 32.766C44.4215 32.3618 44.3196 32.464 44.3196 32.464H44.219V31.8581C44.219 31.7571 44.1183 31.8581 44.1183 31.8581V32.8686C44.1183 32.6665 44.219 32.8686 44.219 32.8686C44.32 33.1718 44.219 33.3739 44.219 33.3739C44.219 33.475 44.1183 33.4745 44.1183 33.4745C43.3099 33.3735 43.1078 33.4745 43.1078 33.4745H43.0072V33.7765H43.2085L42.9065 40.3449C42.9065 40.6481 42.8038 41.3555 42.8038 41.3555V41.6594L40.8855 41.8607C40.4813 41.9618 40.1769 42.1647 40.1769 42.1647L38.9651 42.2653V42.4687H38.2565C38.2565 42.2665 38.0552 42.1647 38.0552 42.1647C37.8531 42.0636 37.9545 41.8607 37.9545 41.8607L38.1558 41.5588L38.4598 41.6594L38.6611 41.8607L39.6716 40.3449L39.571 40.043L38.4598 39.2337L38.7617 38.7285L38.4598 38.3239L36.3381 37.0114C35.7318 38.0219 34.619 38.2232 34.619 38.2232C35.0232 38.7285 35.4282 39.0324 35.4282 39.0324L34.2144 40.8502L33.0025 41.0535L33.1032 42.2653C33.0021 42.5685 32.9019 42.9739 32.9019 42.9739L27.2433 51.4607C27.0412 51.6628 27.1407 51.8653 27.1407 51.8653L27.2433 51.966L26.4341 53.3811C26.3331 53.3811 26.3335 53.2805 26.3335 53.2805C26.2324 52.6742 26.1301 52.6746 26.1301 52.6746C26.0291 52.6746 26.0295 52.27 26.0295 52.27C26.0295 51.7647 25.8282 51.8653 25.8282 51.8653H20.6749L16.3288 51.966C15.5204 51.966 15.3183 52.1693 15.3183 52.1693L14.3078 53.0792H13.8025V53.3811C13.8025 54.1896 13.7019 54.6956 13.7019 54.6956C13.0955 55.3019 13.0959 55.9075 13.0959 55.9075L12.488 61.0607L12.2867 61.3647L12.0854 61.4654C11.7823 62.0717 11.7814 64.0923 11.7814 64.0923C11.9836 67.1239 11.4775 67.6292 11.4775 67.6292C11.5785 67.6292 11.5802 67.8325 11.5802 67.8325L10.8716 68.2371L9.05383 70.2582H9.5591L10.2657 69.9542L11.1755 69.6502C12.1861 69.4481 14.9137 68.4384 14.9137 68.4384C15.6211 68.0342 15.4189 67.5285 15.4189 67.5285L16.1275 67.4279C16.2286 67.4279 16.2282 67.6292 16.2282 67.6292H17.6433C17.9465 67.6292 18.1486 67.4279 18.1486 67.4279V67.6292C18.1486 68.3366 18.7545 68.1344 18.7545 68.1344C19.6975 68.1344 25.904 67.7149 28.3268 67.5739C28.2298 67.4663 28.2252 67.4732 28.1118 67.3371C27.7493 66.9021 27.3213 66.3963 27.0361 65.6358C26.7218 64.7974 26.6961 64.0358 26.6295 63.2634C26.5628 62.4903 26.5368 61.8284 26.5368 61.8284L26.5269 61.5849L26.594 61.3515C26.8499 60.4551 27.2534 59.7346 27.5907 59.2375C27.4761 59.2809 27.3608 59.3223 27.2433 59.3415L27.1407 59.2405C27.1407 59.2405 27.3877 59.2334 27.79 58.9676C28.0134 58.6726 28.1926 58.4705 28.1926 58.4705L28.3664 58.2967L28.5835 58.1875L28.4531 57.9702C28.0964 58.43 27.6474 58.8504 27.1407 58.9353V57.4195C27.1407 57.4195 27.8497 56.3089 28.2539 56.1068L29.2644 56.6121C29.2644 56.6121 29.1166 56.9092 28.913 57.2649L29.6972 56.8718C30.7956 56.3221 31.3211 56.3494 31.7698 56.3049L32.1336 55.9411C32.1649 55.9098 32.1821 55.8987 32.2104 55.8724L31.2868 55.1953C31.2868 55.1953 32.3983 52.4669 32.9036 50.749C32.9036 50.749 33.0057 50.1437 33.3088 50.0427L32.9046 54.487L32.8511 55.4662C32.9016 55.455 32.9541 55.4429 33.0107 55.4207C33.2371 55.3328 33.4685 55.257 33.6898 55.1873C34.1324 55.0488 34.5346 54.9427 34.5346 54.9427L34.7266 54.8912H34.9267C35.3309 54.8912 35.6017 55.0003 35.7947 55.1317C35.8008 55.1307 35.8028 55.1297 35.8089 55.1297C35.8402 55.1185 35.9018 55.064 35.9332 55.0498C36.1302 54.9649 36.3182 54.9003 36.494 54.8427C36.8457 54.7254 37.1559 54.6406 37.1559 54.6406L37.3509 54.587H37.553C37.7016 54.587 37.7986 54.685 37.9401 54.7285C38.7767 54.2263 39.571 54.19 39.571 54.19C39.6945 54.19 39.7854 54.2991 39.9125 54.3321L39.9143 54.3301L39.9894 54.255L40.0763 54.19C40.8686 53.5958 41.7942 53.5842 41.7942 53.5842C41.8619 53.5842 41.8892 53.6543 41.9559 53.665C42.0388 53.6292 42.0701 53.567 42.1671 53.5427C42.2348 53.5257 42.2975 53.5714 42.3682 53.5644C43.0108 52.9915 43.8152 52.7752 43.8152 52.7752C44.1411 52.7752 44.3442 52.8702 44.5276 52.9666C44.538 52.9648 44.5471 52.9545 44.5573 52.9528L44.5907 52.8876L44.7645 52.714C44.9888 52.4892 45.3442 52.213 45.8912 52.1633C46.16 52.1388 46.3146 52.3078 46.5464 52.4021C46.641 52.3925 46.7627 52.3393 46.8169 52.3428C46.9624 52.2933 47.1321 52.2064 47.2486 52.1892C47.294 52.1266 47.2633 52.0659 47.3215 52.0073C47.6974 51.6314 48.1862 51.5374 48.4641 51.5374C48.9172 51.5374 49.0275 51.6445 49.0977 51.69H49.0997C49.1086 51.69 49.1301 51.6809 49.1392 51.6799C49.177 51.6779 49.1733 51.6799 49.2084 51.6779C49.2154 51.6749 49.2175 51.6708 49.2263 51.6668C49.3692 51.4475 49.5143 51.3 49.5143 51.3L49.6211 51.1939L49.7454 51.111C50.2203 50.7947 50.9125 50.7088 51.3676 50.8392C51.5212 50.8836 51.5175 50.9261 51.6362 50.9958C51.8342 51.0089 52.119 50.9645 52.2758 50.9887C52.4015 51.0079 52.4068 51.015 52.5029 51.0342C52.5383 51.0049 52.5305 50.9372 52.5678 50.9119C53.0124 50.6158 53.3732 50.6067 53.6177 50.6067C53.9593 50.6067 54.0472 50.6603 54.1644 50.6977L54.9577 50.4329C55.4926 50.2551 55.8118 50.3005 56.0708 50.3208C56.1506 50.3268 56.1506 50.3319 56.2163 50.341L57.0823 49.9085C57.4946 49.7023 57.627 49.7266 57.7967 49.7033C57.9655 49.6801 58.1181 49.67 58.2565 49.6619C58.5334 49.6467 58.7699 49.6477 58.7699 49.6477C58.8133 49.6477 58.8356 49.7104 58.88 49.7154L59.1024 49.6053C59.8471 49.2334 60.217 49.3042 60.6323 49.2738C60.9557 49.2506 61.1194 49.2516 61.2285 49.2506L61.7297 49C62.3381 48.6958 62.7251 48.7029 63.0778 48.6706C63.3344 48.6473 63.4446 48.6483 63.5477 48.6473L64.256 48.2946C64.7583 48.0433 64.8048 48.1122 64.9897 48.0814C65.1746 48.0505 65.3636 48.0248 65.5424 48.0046C65.9002 47.9632 66.2215 47.9373 66.2215 47.9373L66.9218 47.8782L67.3796 48.336H67.4008L67.6332 48.4148C67.7494 48.4538 67.7434 48.4603 67.8384 48.4977L68.86 48.3518L68.7054 48.3811C68.9651 48.3165 69.2875 48.2579 69.7253 48.3892C70.081 48.4953 70.3738 48.849 70.5843 49.1704C70.9885 49.3513 71.3418 49.5928 71.516 49.8414C71.5655 49.9131 71.5412 49.9178 71.5786 49.9879L71.7211 50.1102C71.8131 50.1374 72.1698 50.1008 72.1698 50.1008L72.3315 50.1402L72.4796 50.215C72.9367 50.4433 73.3873 51.1836 73.3873 51.6752C73.3873 51.7235 73.3661 51.7186 73.3633 51.7621L73.4638 51.849L73.6473 51.8763C73.712 51.8773 73.7807 51.8852 73.8565 51.8944C73.6635 51.6819 73.4179 51.3676 73.4179 51.3676V50.2489L74.5292 50.1483L75.3381 50.4502C75.5402 50.4502 75.5392 50.3496 75.5392 50.3496V47.7226C75.5392 47.4194 75.3381 47.4186 75.3381 47.4186C75.2371 47.4186 75.237 47.1167 75.237 47.1167V46.5108L73.4181 43.8818L72.2058 42.8712L72.1027 41.9634C72.1027 41.8623 71.8005 41.7601 71.8005 41.7601C72.0027 41.659 72.0016 41.4581 72.0016 41.4581C72.2037 40.6497 72.0016 40.1436 72.0016 40.1436H71.4026L70.696 40.6489V41.8607L70.5934 42.064C70.3913 42.4682 70.0881 42.6699 70.0881 42.6699H69.5828C69.5828 42.4678 69.6855 42.064 69.6855 42.064C69.7866 40.9525 69.4822 38.1226 69.4822 38.1226L71.3019 37.9213L73.8283 36.3028V32.9693L72.8177 32.3634L72.7171 31.5541C72.616 31.4531 72.2118 31.4535 72.2118 31.4535ZM49.0977 51.69L48.8078 51.6206C48.8658 51.6513 48.9153 51.6883 48.9894 51.7154C49.0131 51.7158 49.0736 51.6909 49.0977 51.69ZM44.1183 32.8686V33.0699C44.2194 33.0699 44.1183 32.8686 44.1183 32.8686ZM55.7394 34.5857C55.7394 34.5857 56.5486 34.5865 56.5486 35.395L56.446 39.4371L56.0434 41.8607L56.144 42.7706L55.4354 47.016C55.4354 47.016 55.3344 48.4308 54.4249 48.5318C54.4249 48.5318 53.0118 48.7335 52.0013 48.6325C52.0013 48.6325 51.2923 48.6325 51.3933 47.1167L51.496 41.9634C51.496 41.9634 51.9002 41.0527 52.0013 40.7495V35.5963C52.0013 35.5963 52.304 34.9907 52.6072 34.8897L55.7394 34.5857ZM62.5091 34.8897L65.0355 34.9903C65.3386 34.9903 65.3394 35.2923 65.3394 35.2923V40.5482C65.3394 41.3567 64.8342 41.4581 64.8342 41.4581L62.5091 41.3555V34.8897ZM59.9828 34.9903L61.9032 35.091V41.1542H59.9828C59.9828 41.1542 59.4776 41.1542 59.4776 40.1436L59.5802 35.395C59.5802 35.395 59.5786 34.9903 59.9828 34.9903ZM34.0131 44.995L33.9124 45.3976C33.7103 45.4986 33.6085 46.0055 33.6085 46.0055L29.8703 51.7647L29.971 51.966L27.8492 54.6956C27.6471 54.1904 26.8387 54.3917 26.8387 54.3917V54.1904L28.0505 52.3706C28.3537 52.5727 28.4552 52.3706 28.4552 52.3706L28.6565 52.0687L28.9604 52.27C29.2636 52.371 29.365 52.0687 29.365 52.0687L29.8703 51.2594L34.0131 44.995ZM64.321 48.6029L64.1789 48.6332H64.2974C64.3004 48.6322 64.3273 48.612 64.3289 48.612L64.321 48.6029ZM64.3427 48.6251L64.3407 48.6332H64.3506L64.3427 48.6251ZM69.7862 48.9353C69.966 48.9353 70.1136 49.0293 70.2815 49.0778C70.2731 49.0728 70.27 49.0505 70.2618 49.0465C70.0021 48.9161 69.7869 48.9363 69.7869 48.9363L69.7862 48.9353ZM66.35 49.4406C66.35 49.4406 65.1369 49.5426 64.9348 49.6437L65.0355 49.9459C65.0355 49.9459 64.8338 50.0479 64.9348 50.149L64.4296 50.25C64.4296 50.25 64.43 50.15 64.3289 50.15L63.8236 50.25L63.723 50.15C63.723 50.15 62.8127 50.149 62.4085 50.3511V50.6552C62.4085 50.6552 62.4089 50.8553 62.3078 50.9564H61.8026L61.398 50.7543C61.398 50.7543 60.1857 50.7542 59.7815 50.9563C59.7815 50.9563 59.7819 51.3609 59.6809 51.3609C59.6809 51.3609 59.3765 51.1588 58.9723 51.3609C58.9723 51.3609 58.9731 51.1596 58.771 51.1596C58.771 51.1596 57.9626 51.1592 57.7605 51.2602C57.7605 51.2602 57.8615 51.7652 57.7605 51.8663L57.1546 51.9669L56.446 52.07C56.446 52.07 56.4468 51.8657 56.2447 51.8657C56.2447 51.8657 55.7386 51.7647 55.4354 51.8657C55.4354 51.8657 55.5365 52.371 55.4354 52.371L54.123 52.4717C54.123 52.4717 54.1218 52.2708 53.9197 52.1697C53.9197 52.1697 53.3137 51.9668 53.3137 52.371C53.3137 52.371 52.8097 52.5743 52.5065 52.5743C52.5065 52.5743 51.6969 52.3705 51.2927 52.4716C51.2927 52.4716 51.0914 52.472 51.0914 52.3709C51.0914 52.3709 50.8893 52.1688 50.5861 52.3709C50.5861 52.3709 50.3844 52.573 50.4855 52.6741C50.4855 52.6741 50.184 52.86 49.8953 53.0156C49.8921 53.0086 49.8908 53.0015 49.8874 52.9954C49.8885 53.0005 49.887 53.0116 49.8874 53.0187C49.7773 53.0773 49.6589 53.15 49.5756 53.1783C49.5756 53.1783 48.9685 53.1773 48.7664 53.2784C48.7664 53.2784 48.6661 53.0773 48.5651 53.0773C48.5651 53.0773 48.3618 52.9752 48.3618 53.1773C48.3618 53.1773 48.4628 53.3784 48.3618 53.4795C48.3618 53.4795 47.4531 53.5805 47.1499 53.7826C47.1499 53.7826 46.8468 53.7826 46.6447 53.8837C46.6447 53.8837 46.3411 54.1868 46.2401 53.8837C46.2401 53.8837 46.1386 53.4799 45.8354 53.783C45.8354 53.783 45.7348 53.9861 45.7348 54.0872C45.7348 54.0872 45.4312 54.1872 45.3302 54.2883C45.3302 54.2883 45.1297 54.3889 44.9276 54.3889C44.9276 54.3889 44.7251 54.2874 44.523 54.4895C44.523 54.4895 44.1187 54.4915 44.0177 54.5926C44.0177 54.5926 43.9154 54.2884 43.8144 54.2884C43.8144 54.2884 43.4106 54.289 43.2085 54.6932C43.2085 54.6932 43.1082 54.9954 43.0072 54.9954C43.0072 54.9954 42.8043 54.9969 42.7032 55.0979C42.7032 55.0979 42.6034 54.8958 42.4013 55.0979C42.4013 55.0979 41.997 55.299 41.896 55.299C41.896 55.299 41.8944 55.0979 41.7933 55.0979C41.7933 55.0979 41.3903 55.0969 40.9861 55.4001C40.9861 55.4001 40.8855 55.5021 40.8855 55.7042C40.8855 55.7042 40.5823 55.9053 40.3802 55.9053C40.3802 55.9053 40.0754 55.8038 39.7723 56.0059C39.7723 56.0059 39.7731 55.7037 39.571 55.7037C39.571 55.7037 38.864 55.7037 38.4598 56.1079C38.4598 56.1079 38.4602 56.309 38.3591 56.4101H37.6506C37.6506 56.4101 37.651 56.11 37.5499 56.11C37.5499 56.11 36.4375 56.4131 36.2354 56.6152C36.2354 56.6152 35.3263 56.7159 35.1242 56.7159C35.1242 56.7159 35.024 56.4119 34.9229 56.4119C34.9229 56.4119 33.4059 56.8155 33.2038 57.0176V57.3218C33.2038 57.3218 32.7996 57.4221 32.6986 57.5232C32.6986 57.5232 32.5983 57.6258 32.4973 57.6258C32.4973 57.6258 31.5882 57.6252 30.3756 58.2315C30.3756 58.2315 30.6787 58.7362 30.3756 58.8373C30.3756 58.8373 29.6686 59.3415 29.2644 59.5436C29.2644 59.5436 28.4548 60.3531 28.0505 61.7678C28.0505 61.7678 28.152 64.2931 28.4552 65.1015C28.7583 65.91 29.8703 67.0216 29.8703 67.0216L31.0821 68.0321L31.546 68.124L32.1933 68.0311C32.0923 68.0311 31.992 68.1311 31.992 68.1311L32.3117 68.1604L32.3236 68.3363L32.369 68.3403L32.5277 68.182L34.0556 68.3283L34.7215 68.2337C34.6205 68.2337 34.5205 68.3345 34.5205 68.3345H34.6205L34.8357 68.3446L34.8458 68.4787L34.955 68.4848L35.0833 68.3565L36.6688 68.4318L37.3519 68.3358C37.2509 68.3358 37.1488 68.4369 37.1488 68.4369H37.4671L37.4712 68.4985L37.5328 68.4379H39.1699L39.7722 68.353C39.7479 68.3662 39.7237 68.3894 39.6752 68.4379H41.7941C41.6931 68.4379 41.6935 68.3379 41.6935 68.3379L42.2955 68.253V68.2752C42.2419 68.3045 42.1984 68.3386 42.1984 68.3386H42.3005L42.3147 68.5397H43.0352L43.209 68.3386H44.5237C44.4226 68.2375 44.3206 68.2378 44.3206 68.2378L45.0299 68.1352C44.9289 68.1352 44.8268 68.2372 44.8268 68.3383H47.052C46.951 68.3383 46.951 68.2382 46.951 68.2382L47.5512 68.1513L47.5532 68.1756C47.4997 68.2049 47.4562 68.239 47.4562 68.239H47.5573L47.5694 68.4068L47.7351 68.239H47.7725L47.7887 68.4401H48.0332C48.015 68.3579 48.0009 68.3017 47.9857 68.239H49.5752C49.4741 68.239 49.4745 68.1367 49.4745 68.1367L50.1809 68.0356C50.0799 68.0356 49.9798 68.1367 49.9798 68.1367H50.2974L50.3112 68.3398H50.8144L50.9899 68.1353H52.2026C52.1015 68.0342 52.0015 68.0346 52.0015 68.0346L52.7078 67.9331C52.6068 67.9331 52.5065 68.0334 52.5065 68.1344H54.7289C54.6278 68.1344 54.6282 68.0338 54.6282 68.0338L55.2302 67.9489V67.9727C55.1767 68.003 55.1342 68.0343 55.1342 68.0343H55.2373L55.2514 68.2374H55.9699L56.1457 68.0343H57.2552C57.7605 68.9438 57.7605 68.8437 57.7605 68.8437L58.467 68.7437C58.366 68.7437 58.2657 68.8447 58.2657 68.8447H60.3874C60.2864 68.8447 60.2868 68.7447 60.2868 68.7447L60.8868 68.6578L60.8889 68.682C60.8351 68.7124 60.7921 68.7457 60.7921 68.7457H60.8927L60.9065 68.9468H61.8125C61.8165 68.8751 61.8327 68.8114 61.844 68.7457H62.9138C62.9138 68.9478 62.8131 68.9468 62.8131 68.9468L63.5197 68.8468C63.4186 68.8468 63.3184 68.9478 63.3184 69.0489H65.5407C65.5407 68.9478 65.4401 68.9478 65.4401 68.9478L66.1487 68.8478C66.0476 68.8478 65.9453 68.9478 65.9453 69.0489H67.7651C68.0683 69.0489 68.1697 69.1489 68.1697 69.1489C68.1697 69.4521 68.27 69.5541 68.371 69.4531C68.4721 69.4531 68.4717 69.252 68.4717 69.252C68.4717 69.0499 68.675 68.9478 68.675 68.9478H70.5934C70.6944 68.9478 70.696 69.0489 70.696 69.0489C70.696 69.352 70.7967 69.353 70.7967 69.353C70.8977 69.252 70.8973 69.0489 70.8973 69.0489C70.8973 68.8468 71.2013 68.8478 71.2013 68.8478L73.019 68.9478C73.4233 68.8468 73.323 69.0487 73.323 69.0487C73.323 69.3518 73.5243 69.3528 73.5243 69.3528C73.6254 69.3528 73.625 69.0487 73.625 69.0487C73.726 68.8466 73.9289 68.8471 73.9289 68.8471C74.3331 68.746 75.7487 68.7464 75.7487 68.7464L76.2539 68.9475C76.355 68.9475 76.3546 68.7461 76.3546 68.7461C76.1525 68.544 76.4552 68.3414 76.4552 68.3414C76.7584 68.2403 77.5664 67.9368 77.5664 67.9368H77.971C78.2742 67.8357 78.1723 67.7357 78.1723 67.7357L76.7276 66.9702C76.1283 67.336 75.4402 67.5304 74.7382 67.5325C74.2336 67.5326 73.734 67.4333 73.2678 67.2402C72.8017 67.0471 72.3781 66.764 72.0214 66.4072C71.6647 66.0503 71.3819 65.6266 71.189 65.1604C70.9961 64.6942 70.897 64.1945 70.8973 63.6899C70.8972 63.1855 70.9965 62.686 71.1894 62.2199C71.3824 61.7539 71.6653 61.3304 72.022 60.9737C72.3787 60.617 72.8021 60.3341 73.2682 60.1411C73.7342 59.9481 74.2337 59.8488 74.7382 59.8489C75.7565 59.8492 76.733 60.2541 77.4529 60.9743C78.1728 61.6946 78.5772 62.6714 78.5769 63.6897C78.5757 64.2882 78.4347 64.8781 78.165 65.4123C77.8953 65.9466 77.5045 66.4104 77.0238 66.7668L76.9605 67.0232L77.1618 67.1238L77.4973 67.2916L78.3756 67.7322C78.5777 67.7322 78.6776 67.529 78.6776 67.529C78.7787 67.3269 78.9816 67.529 78.9816 67.529C79.1837 67.6301 79.1829 67.529 79.1829 67.529C79.2839 67.428 79.0822 67.3279 79.0822 67.3279C78.8801 67.2269 79.0822 66.9237 79.0822 66.9237L79.7908 65.8132C79.9929 65.7121 80.0927 65.509 80.0927 65.509C80.1938 65.3069 80.0927 65.2068 80.0927 65.2068C80.1938 65.1058 80.2961 64.8026 80.2961 64.8026C80.3971 64.7016 80.6987 64.7026 80.6987 64.7026V64.5984C80.5976 64.4974 80.2961 64.3973 80.2961 64.3973V63.9921L80.3967 62.8805L80.598 62.6792V62.2746L80.2961 61.6687L80.598 61.2641L79.7908 60.8595L78.9816 60.3542C78.9816 60.3542 78.9812 59.9504 78.5769 59.7483C78.5769 59.7483 78.4759 59.646 78.5769 59.545C78.5769 59.545 78.8809 59.2434 78.3756 59.1424L77.7697 58.939L77.4519 58.5561C77.4707 58.5291 77.4809 58.4974 77.5053 58.4732C77.5053 58.4732 77.4608 58.5136 77.4325 58.5325L77.2648 58.3331C77.2648 58.3331 77.1637 57.9289 76.8606 57.8279C76.8606 57.8279 76.7595 57.726 76.9616 57.5239C76.9616 57.5239 77.1647 57.1213 76.2553 57.1213C76.2553 57.1213 75.9521 57.1205 75.75 56.8173C75.75 56.8173 75.3448 56.1092 75.1427 56.0081C75.1427 56.0081 75.2447 55.7066 75.4468 55.6055C75.4468 55.6055 74.9416 55.4022 74.6384 55.4022C74.6384 55.4022 74.1342 54.9988 73.9321 54.6956C73.9321 54.6956 73.9321 54.2918 73.6289 54.0897C73.6289 54.0897 73.4268 53.9883 73.6289 53.6851C73.6289 53.6851 73.9331 53.3811 73.5289 53.3811L72.8225 53.2805L72.1141 52.6746C72.1141 52.6746 71.7119 52.3702 71.7119 51.966C71.7119 51.966 72.0151 51.6645 71.813 51.5634C71.813 51.5634 71.4078 51.4623 71.1046 51.5634L70.3982 50.9555C70.3982 50.9555 70.2982 50.4502 69.7929 50.4502C69.7929 50.4502 69.3887 50.4518 69.3887 50.0476C69.3887 50.0476 69.4888 49.7432 69.0845 49.8443L67.6718 50.0476C67.6718 50.0476 67.4697 49.9453 67.1666 49.8443H66.5521C66.5521 49.8443 66.4517 49.5407 66.3507 49.4397L66.35 49.4406ZM36.6657 68.4354L36.64 68.4391H36.7407L36.6657 68.4354ZM34.0545 68.3325L34.0131 68.3386H34.1137L34.0545 68.3325ZM31.546 68.1274L31.4867 68.1342H31.5874L31.546 68.1274ZM59.6809 49.8447C59.6493 49.8447 59.6409 49.874 59.6098 49.8763C59.6513 49.8824 59.7058 49.8569 59.7442 49.8642L59.6809 49.8447ZM70.8046 49.9C70.7949 49.9788 70.8272 50.0697 70.8106 50.121C70.8528 50.1119 70.8452 50.126 70.8854 50.119L70.8973 50.0482C70.8973 50.0035 70.8192 49.9538 70.8046 49.9ZM33.0025 50.0475C33.0025 50.0475 31.9916 53.7855 31.0821 54.897L30.6775 54.6956C30.6775 54.6956 31.5886 52.4717 31.7907 51.8653C31.7907 51.8653 32.5983 50.4517 33.0025 50.0475ZM70.8104 50.1621C70.7829 50.2379 70.8203 50.5259 70.8203 50.5259L70.8776 50.1752L70.8105 50.1641L70.8104 50.1621ZM80.1697 50.5138C80.1192 50.5269 80.0927 50.5532 80.0927 50.5532L79.9921 50.7542L79.6881 50.6535C79.5871 50.5525 79.4868 50.6535 79.4868 50.6535L79.2855 51.0581L79.3862 51.1588C79.2851 51.2598 79.2855 51.4607 79.2855 51.4607C79.0834 51.5618 78.8809 51.5634 78.8809 51.5634C78.5777 51.5634 78.0717 51.966 78.0717 51.966H74.1755C74.3652 52.0342 74.5691 52.1423 74.7835 52.3568C75.0915 52.664 75.1867 53.0641 75.196 53.4107L77.971 53.1794C77.971 53.1794 77.9718 53.6835 78.275 53.9866C78.275 53.9866 77.9714 53.988 77.8704 54.1901H77.5664C77.5664 54.1901 77.1626 53.988 76.9605 54.2911L76.7554 54.4963L76.9704 54.5832C76.9861 54.567 77.0611 54.4831 77.0611 54.3922C77.0611 54.3922 77.163 54.2911 77.3651 54.3922C77.3651 54.3922 77.465 54.5953 77.6671 54.5953C77.6671 54.5953 77.6683 54.6953 77.8704 54.7964C77.8704 54.7964 77.9465 54.8479 77.9197 54.9641L79.1414 55.4522L77.7677 56.1394C77.9254 56.2637 78.1083 56.3203 78.2336 56.5203C78.2366 56.5254 78.2346 56.5294 78.2376 56.5345L78.4763 56.1121L78.7803 56.3132C78.7803 56.3132 78.9816 56.3142 78.9816 56.1121L79.0822 55.8079L79.7908 57.0206L79.0822 57.5258C79.0822 57.5258 78.8615 57.5349 78.7349 57.6663L78.8551 57.7057L78.7288 57.6744C79.0158 57.736 79.3523 57.8391 79.6919 58.1776C79.9596 58.4454 80.0001 58.8648 80.0425 59.2336L80.5316 59.5378L82.8993 60.7221L82.0676 61.8317L82.1111 61.9186V62.5047C82.7093 61.6983 82.8194 60.9636 82.8194 60.9636C82.9205 60.9636 83.4248 60.8636 83.4248 60.8636C83.7279 60.8636 84.0301 60.9646 84.0301 60.9646C84.3332 61.0657 85.1416 61.2688 85.1416 61.2688C85.1416 62.1783 84.6364 62.6846 84.6364 62.6846L83.4279 63.891C83.2258 63.79 83.1237 63.891 83.1237 63.891L82.5181 64.497C82.3726 64.5943 82.2776 64.6906 82.2149 64.7653V65.9002C82.6697 65.6855 83.0244 65.5075 83.0244 65.5075C83.3275 65.5075 84.136 65.4068 84.136 65.4068V65.3062C84.3381 65.5083 84.4401 65.4068 84.4401 65.4068C86.7644 63.9921 87.1675 61.3647 87.1675 61.3647L87.977 61.566C88.2801 61.9702 88.8865 61.9706 88.8865 61.9706C88.9875 62.1727 89.3917 62.1739 89.3917 62.1739L90.1991 62.2746C90.1994 63.3862 89.7942 63.891 89.7942 63.891C89.2889 64.6995 88.0773 65.6081 88.0773 65.6081H87.7732C87.6721 65.6081 87.6724 65.7108 87.6724 65.7108L86.6619 66.6187C85.9545 67.4271 85.045 68.4384 85.045 68.4384L85.2464 68.6397H85.55C86.0553 68.2355 87.4704 67.6292 87.4704 67.6292C87.7736 67.4271 88.9862 67.3272 88.9862 67.3272V67.1239L89.3908 67.2266C90.7045 66.5192 91.6132 65.0022 91.6132 65.0022C92.5226 63.5875 92.4224 62.4759 92.4224 62.4759C92.6245 62.4759 93.0283 62.5765 93.0283 62.5765V62.0713C93.0283 61.9702 92.7243 61.7693 92.7243 61.7693V60.2535C92.5222 60.2535 91.8145 60.0502 91.8145 60.0502C91.7134 59.9492 91.7138 59.7483 91.7138 59.7483C91.7138 59.3441 91.3092 59.3437 91.3092 59.3437C91.1071 59.3437 90.9066 59.545 90.9066 59.545C90.8055 59.7471 90.7033 59.7483 90.7033 59.7483C90.5012 59.6472 90.0974 59.6476 90.0974 59.6476C89.8953 59.6476 89.4914 59.4443 89.4914 59.4443C89.1883 59.2422 87.5711 57.9285 87.5711 57.9285C87.6721 56.7159 87.0658 55.9075 87.0658 55.9075L85.0447 51.966C84.7416 51.2586 84.0342 51.4607 84.0342 51.4607C83.4279 51.5618 81.4072 51.664 81.4072 51.664L81.5079 51.3601C81.71 51.158 81.5079 51.0581 81.5079 51.0581C81.2047 50.755 80.3967 50.5529 80.3967 50.5529C80.2956 50.5023 80.2203 50.501 80.1697 50.5138ZM51.2927 50.9564L50.9256 51.0019C51.2419 50.923 51.3619 50.9867 51.569 50.9938C51.5669 50.9938 51.5609 50.9907 51.5592 50.9907C51.379 50.9463 51.2927 50.9564 51.2927 50.9564ZM51.9617 51.1837C51.9768 51.1969 52.0291 51.2191 52.0388 51.2272C52.0357 51.2262 52.0347 51.2191 52.0327 51.2171C51.9963 51.1908 51.994 51.204 51.9617 51.1837ZM31.1946 51.8982C31.2461 51.8982 31.3098 51.9174 31.3856 51.9679L30.4761 54.091H30.1972C30.2134 54.0274 30.0295 53.5706 29.7687 53.4837L30.5762 52.2721H30.7793C30.7793 52.2721 30.8793 52.3741 30.9804 52.071C30.9804 52.071 31.037 51.8992 31.1936 51.8992L31.1946 51.8982ZM66.551 52.07C67.5692 52.0697 68.5459 52.4738 69.2662 53.1935C69.9865 53.9133 70.3915 54.8896 70.3921 55.9079C70.3922 56.4123 70.2929 56.9118 70.0999 57.3778C69.9069 57.8439 69.6239 58.2673 69.2673 58.624C68.9106 58.9806 68.4871 59.2635 68.021 59.4565C67.555 59.6495 67.0555 59.7487 66.5511 59.7486C66.0468 59.7484 65.5475 59.649 65.0816 59.4559C64.6158 59.2628 64.1925 58.9798 63.8361 58.6232C63.4796 58.2665 63.1968 57.8431 63.004 57.3771C62.8111 56.9112 62.7119 56.4118 62.7121 55.9076C62.7124 54.8895 63.1169 53.9133 63.8368 53.1935C64.5566 52.4736 65.5328 52.0691 66.5509 52.0688L66.551 52.07ZM49.5983 52.4317L49.8328 52.9966L49.7833 52.7915C49.7297 52.652 49.6125 52.5833 49.6034 52.4338L49.5983 52.4317ZM83.2236 52.8784L83.7289 55.7089C83.7289 55.7089 82.1132 54.291 81.6079 52.9773L83.2245 52.8766L83.2236 52.8784ZM45.0681 52.9128L45.0661 52.9148C45.3046 52.9693 45.6027 53.0391 45.6027 53.0391L45.0681 52.9128ZM74.7635 53.2361C74.8231 53.3048 74.8676 53.3705 74.9131 53.4382L74.9484 53.4362C74.8969 53.316 74.8444 53.3311 74.7625 53.2371L74.7635 53.2361ZM47.6076 53.3432C47.6116 53.3736 47.7076 53.5231 47.7076 53.5231L47.6753 53.411C47.6692 53.3938 47.6147 53.3645 47.6056 53.3443L47.6076 53.3432ZM29.5636 53.6888C30.0689 53.992 29.9678 54.2952 29.9678 54.2952L28.8594 54.8973L29.5657 53.6857L29.5636 53.6888ZM41.694 53.8192C41.6758 53.8263 41.603 53.8273 41.603 53.8334L41.3262 54.0334C41.407 53.9526 41.5768 53.898 41.693 53.8202L41.694 53.8192ZM40.3794 54.3921C40.3177 54.3921 40.3687 54.3991 40.326 54.4019C40.6064 54.4219 40.8569 54.4709 40.8569 54.4709L40.3794 54.3921ZM30.0708 54.4926C30.0708 54.4926 30.375 54.6947 29.8697 55.5031L29.5655 56.0084C29.5655 56.0084 28.7571 55.6046 28.555 55.4025C28.6561 55.3014 29.8687 54.5937 30.0708 54.4926ZM31.6873 56.4012C31.6699 56.4174 31.6263 56.4527 31.6263 56.4527C31.6677 56.4118 31.6516 56.4511 31.6879 56.4171L31.6873 56.4012ZM77.8341 56.6973C77.9028 56.7666 77.9643 56.8385 78.0257 56.9105L78.0338 56.8967C77.9913 56.8375 77.9317 56.7567 77.9317 56.7567L77.8341 56.6973ZM79.5136 58.5799C79.69 58.7505 79.7948 58.9588 79.9244 59.1566L79.9618 59.1798C79.8439 58.8656 79.6481 58.6766 79.6481 58.6766L79.5136 58.5799ZM34.3164 59.0401C35.3348 59.0402 36.3115 59.4449 37.0315 60.1651C37.7516 60.8853 38.156 61.8621 38.1559 62.8805C38.1561 63.8989 37.7518 64.8757 37.0319 65.596C36.3119 66.3163 35.3353 66.7211 34.3169 66.7213C33.8125 66.7214 33.313 66.6221 32.847 66.4291C32.381 66.2362 31.9576 65.9532 31.6009 65.5966C31.2442 65.2399 30.9613 64.8165 30.7684 64.3504C30.5754 63.8844 30.4761 63.3849 30.4762 62.8805C30.4761 62.3761 30.5754 61.8766 30.7684 61.4106C30.9613 60.9445 31.2443 60.5211 31.6009 60.1644C31.9576 59.8077 32.3811 59.5248 32.8471 59.3318C33.3131 59.1389 33.812 59.04 34.3164 59.0401ZM81.419 66.2163C81.4179 66.2187 81.3852 66.2571 81.3795 66.2655C81.4184 66.2487 81.453 66.2334 81.4922 66.2162L81.419 66.2163Z" fill="#1D1D1B"/>
</svg>
