<svg width="102" height="102" viewBox="0 0 102 102" fill="none" xmlns="http://www.w3.org/2000/svg">
<path d="M30.5879 33.6754L28.8688 34.6859L28.7681 56.3116C28.7681 56.3116 28.2628 56.2105 28.2628 56.8168V59.5445C28.2628 59.5445 28.2632 59.7478 28.6675 59.7478H29.0721L30.0826 59.2425L30.9668 59.3156C32.0788 57.008 34.437 55.4013 37.1563 55.4018C40.4391 55.4024 43.2033 57.7415 43.8708 60.8334L44.4307 61.8695L52.9195 61.9701C52.9195 61.9701 52.919 62.0724 53.0201 62.1735V63.184C53.0201 63.184 53.0211 63.6892 53.3242 63.6892H56.9621C56.9621 63.6892 57.2656 63.6876 57.2656 63.0813V62.1735C57.2656 62.1735 57.3662 62.0712 57.3662 61.9701L65.8551 62.0708L66.2084 61.4728C66.6089 58.0685 69.5229 55.4012 73.0294 55.4017C76.0297 55.4024 78.5934 57.3577 79.5231 60.0537L90.6133 60.1527C90.6133 60.1527 90.9165 60.1517 91.1186 60.0506C91.1186 60.0506 91.2197 60.2544 91.6239 60.1533L95.4627 58.3333V57.1217C95.4627 57.1217 95.4622 56.9186 95.058 56.8176L95.3622 35.7976L95.2619 35.091C95.2619 35.091 94.1507 33.9794 93.6454 34.0805L30.5879 33.6754ZM45.8464 35.2918H46.1504V55.5024H45.8464V35.2918ZM71.5143 35.2918H71.8162V55.5024H71.5143V35.2918ZM50.2932 42.7701H52.4149C53.2233 42.7701 53.8304 42.9718 54.2346 43.376C54.6388 43.7802 54.9412 44.2871 54.9412 44.9945C54.9412 45.3987 54.8393 45.7018 54.6372 46.005C54.4351 46.3082 54.2342 46.5099 53.83 46.6109C54.1332 46.712 54.4367 47.0143 54.7399 47.3175C54.942 47.5196 55.1425 47.925 55.1425 48.5313C55.1425 49.4408 54.9412 50.0455 54.4359 50.4497C53.9307 50.8539 53.3243 51.0576 52.4149 51.0576H50.2932V42.7701ZM57.7715 42.7701H59.1846L61.3083 51.0576H59.7925L59.3879 49.3385H57.5682L57.1635 51.0576H55.6477L57.7715 42.7701ZM62.2162 42.7701H64.5412C65.3496 42.7701 65.9563 42.9718 66.4616 43.376C66.9669 43.7802 67.1682 44.488 67.1682 45.2964C67.1682 45.9027 67.0667 46.4084 66.7636 46.7116C66.4604 47.1158 66.1572 47.3187 65.753 47.5208L67.1682 50.955H65.5517V51.0576L64.2372 47.9234H63.732V51.0576H62.2162V42.7701ZM51.6056 44.0846V45.9023H52.4149C52.8191 45.9023 53.0204 45.8025 53.1214 45.6004C53.3235 45.4993 53.4254 45.2976 53.4254 44.9945C53.4254 44.6913 53.3251 44.488 53.2241 44.2859C53.123 44.0838 52.8191 44.0846 52.4149 44.0846H51.6056ZM63.8346 44.1852V46.5103H64.5412C65.3496 46.5103 65.6524 46.1044 65.6524 45.3971C65.6524 44.9929 65.5525 44.6913 65.3504 44.4892C65.1483 44.2871 64.8448 44.1852 64.4406 44.1852H63.8346ZM58.478 44.8918C58.478 44.9929 58.4784 45.0943 58.3774 45.2964C58.3774 45.4985 58.2767 45.5996 58.2767 45.8017C58.2767 46.0038 58.1741 46.2055 58.1741 46.4076C58.1741 46.6097 58.0734 46.8118 58.0734 46.9129L57.8721 47.9234H59.084L58.8826 46.9129C58.8826 46.7108 58.782 46.6097 58.782 46.4076C58.782 46.2055 58.6793 46.0038 58.6793 45.8017C58.6793 45.5996 58.5787 45.3975 58.5787 45.2964C58.5787 45.0943 58.5791 44.9929 58.478 44.8918ZM51.7083 47.3175V49.7432H52.4149C52.8191 49.7432 53.1226 49.6413 53.3247 49.4392C53.5268 49.136 53.6267 48.8345 53.6267 48.5313C53.6267 48.1271 53.5268 47.8236 53.3247 47.6214C53.1226 47.4193 52.8191 47.3175 52.4149 47.3175H51.7083ZM37.1563 56.9175C36.4528 56.9174 35.7562 57.0559 35.1063 57.325C34.4563 57.5942 33.8658 57.9887 33.3684 58.4862C32.8709 58.9836 32.4764 59.5742 32.2072 60.2241C31.9381 60.874 31.7996 61.5706 31.7997 62.2741C31.8 63.6945 32.3645 65.0566 33.3691 66.0607C34.3736 67.0649 35.7359 67.6289 37.1563 67.6287C38.5763 67.6284 39.9381 67.0641 40.9422 66.06C41.9463 65.0559 42.5106 63.6941 42.5109 62.2741C42.5111 60.8537 41.9471 59.4914 40.9429 58.4869C39.9388 57.4823 38.5767 56.9178 37.1563 56.9175ZM73.03 56.9175C72.3266 56.9174 71.63 57.0559 70.98 57.325C70.3301 57.5942 69.7395 57.9887 69.2421 58.4862C68.7447 58.9836 68.3501 59.5742 68.081 60.2241C67.8118 60.874 67.6733 61.5706 67.6734 62.2741C67.6738 63.6945 68.2383 65.0566 69.2428 66.0607C70.2474 67.0649 71.6097 67.6289 73.03 67.6287C74.4501 67.6284 75.8118 67.0641 76.816 66.06C77.8201 65.0559 78.3843 63.6941 78.3846 62.2741C78.3848 60.8537 77.8208 59.4914 76.8167 58.4869C75.8125 57.4823 74.4504 56.9178 73.03 56.9175ZM37.1563 59.8484C37.4749 59.8484 37.7903 59.9111 38.0846 60.033C38.3789 60.1549 38.6464 60.3335 38.8716 60.5588C39.0969 60.784 39.2755 61.0515 39.3974 61.3458C39.5193 61.6401 39.582 61.9555 39.582 62.2741C39.582 62.5927 39.5193 62.9081 39.3974 63.2024C39.2755 63.4967 39.0969 63.7642 38.8716 63.9894C38.6464 64.2147 38.3789 64.3934 38.0846 64.5152C37.7903 64.6371 37.4749 64.6998 37.1563 64.6998C36.8377 64.6998 36.5223 64.6371 36.228 64.5152C35.9336 64.3934 35.6662 64.2147 35.441 63.9894C35.2157 63.7642 35.037 63.4967 34.9152 63.2024C34.7933 62.9081 34.7306 62.5927 34.7306 62.2741C34.7306 61.9555 34.7933 61.6401 34.9152 61.3458C35.037 61.0515 35.2157 60.784 35.441 60.5588C35.6662 60.3335 35.9336 60.1549 36.228 60.033C36.5223 59.9111 36.8377 59.8484 37.1563 59.8484ZM73.03 59.8484C73.3486 59.8484 73.6641 59.9111 73.9584 60.033C74.2527 60.1549 74.5201 60.3335 74.7454 60.5588C74.9706 60.784 75.1493 61.0515 75.2712 61.3458C75.3931 61.6401 75.4558 61.9555 75.4557 62.2741C75.4558 62.5927 75.3931 62.9081 75.2712 63.2024C75.1493 63.4967 74.9706 63.7642 74.7454 63.9894C74.5201 64.2147 74.2527 64.3934 73.9584 64.5152C73.6641 64.6371 73.3486 64.6998 73.03 64.6998C72.7115 64.6998 72.396 64.6371 72.1017 64.5152C71.8074 64.3934 71.54 64.2147 71.3147 63.9894C71.0895 63.7642 70.9108 63.4967 70.7889 63.2024C70.667 62.9081 70.6043 62.5927 70.6044 62.2741C70.6043 61.9555 70.667 61.6401 70.7889 61.3458C70.9108 61.0515 71.0895 60.784 71.3147 60.5588C71.54 60.3335 71.8074 60.1549 72.1017 60.033C72.396 59.9111 72.7115 59.8484 73.03 59.8484ZM28.2628 61.2636C28.2628 61.2636 28.0611 61.264 28.1622 61.6682V61.9701H27.1517L26.9504 62.0708V62.1735L10.8826 64.9011L10.7819 65.1024H10.478V65.0017H10.174V65.205C10.174 65.205 9.36596 65.3053 9.06281 65.4063C9.06281 65.4063 8.05228 65.4071 7.54701 65.7103C7.54701 65.7103 7.24386 66.0118 7.54701 66.1129C7.54701 66.1129 7.95163 66.4165 8.96216 66.0122H9.56807C9.56807 66.0122 10.0745 65.9116 10.2767 65.9116C10.2767 65.9116 10.1752 66.2156 10.3773 66.2156C10.3773 66.2156 10.6801 66.2148 10.478 65.9116C10.478 65.9116 10.5798 65.7103 10.7819 65.7103C10.7819 65.7103 10.7811 66.0122 10.9832 66.0122L11.1845 67.528C11.1845 67.528 11.691 67.5284 11.8931 67.4274L13.6102 65.7103L13.9141 65.507C13.9141 65.507 13.8131 65.3057 13.9141 65.3057L26.8477 63.184V63.2846L30.3549 63.2038C30.3125 62.8986 30.2832 62.5902 30.2832 62.2741C30.2832 62.1377 30.2948 62.0039 30.3027 61.8695H28.7675C28.7675 61.8695 28.9701 61.3646 28.667 61.2636H28.2628Z" fill="#1D1D1B"/>
</svg>
