<svg width="102" height="102" viewBox="0 0 102 102" fill="none" xmlns="http://www.w3.org/2000/svg">
<path d="M78.755 60.0213L78.9444 60.7787L79.7203 60.865L82.4487 61.1681C82.778 61.2047 83.0667 61.522 83.0667 61.8711V66.1153C83.0667 66.4644 82.778 66.7818 82.4487 66.8183L82.444 66.8189L79.8166 67.122L79.0879 67.2061L78.8722 67.9072C78.4704 69.2129 78.097 70.3181 77.4597 71.4107L77.0481 72.1163L77.5928 72.7251L79.3003 74.6335C79.4944 74.8685 79.4692 75.311 79.2525 75.5277L76.2562 78.524C75.8875 78.8221 75.5173 78.7707 75.3203 78.6018L75.3031 78.5871L75.2853 78.573L73.3653 77.0572L72.7494 76.571L72.0811 76.9823C70.8802 77.7213 69.6689 78.1911 68.319 78.5768L67.6053 78.7807L67.5133 79.5171L67.2101 81.9424L67.2092 81.95L67.2083 81.9577C67.1717 82.2869 66.8544 82.5757 66.5053 82.5757H62.2611C61.912 82.5757 61.5947 82.287 61.5581 81.9577L61.5572 81.95L61.5563 81.9424L61.2531 79.5171L61.1542 78.7257L60.3743 78.5585C59.1168 78.2891 57.9176 77.7428 56.7637 77.0697L56.1028 76.6842L55.5022 77.1583L53.5822 78.6741L53.5644 78.6881L53.5472 78.7029C53.314 78.9028 52.8653 78.8791 52.6466 78.6604L49.6503 75.6641C49.3523 75.2954 49.4037 74.9252 49.5725 74.7282L49.5726 74.7282L49.5789 74.7207L51.1957 72.8007L51.7055 72.1953L51.3067 71.5117C50.6483 70.383 50.1896 69.2752 49.9151 68.086L49.7378 67.3176L48.9549 67.2237L46.4285 66.9205L46.4285 66.9205L46.4188 66.9194C46.0895 66.8828 45.8007 66.5655 45.8007 66.2164V61.9722C45.8007 61.6231 46.0895 61.3057 46.4188 61.2692L46.4188 61.2692L46.4285 61.268L48.9549 60.9649L49.6796 60.8779L49.8942 60.1803C50.277 58.9363 50.7499 57.8047 51.4078 56.6769L51.7862 56.0281L51.331 55.4306L49.7142 53.3085L49.6946 53.2828L49.6736 53.2583C49.4737 53.025 49.4974 52.5764 49.7161 52.3577L52.7124 49.3614C53.0811 49.0633 53.4513 49.1147 53.6483 49.2836L53.6603 49.2939L53.6725 49.3038L55.7946 51.0217L56.3566 51.4766L57.0032 51.1533C58.2093 50.5502 59.4203 49.998 60.5936 49.7273L61.3691 49.5483L61.457 48.7572L61.7602 46.0288C61.7968 45.6995 62.1141 45.4107 62.4632 45.4107H66.7074C67.056 45.4107 67.3729 45.6986 67.4103 46.0273C67.4103 46.0278 67.4104 46.0283 67.4104 46.0288L67.7131 48.8539L67.79 49.5713L68.4745 49.7994C69.6363 50.1867 70.7859 50.6669 71.8287 51.2358L72.4726 51.587L73.0529 51.1385L75.2761 49.4206L75.2986 49.4032L75.3203 49.3847C75.5535 49.1847 76.0022 49.2085 76.2209 49.4272L79.2172 52.4235C79.5152 52.7921 79.4638 53.1623 79.2949 53.3593L79.2764 53.381L79.259 53.4035L77.5411 55.6267L77.0927 56.207L77.4438 56.8509C78.0264 57.9189 78.4839 58.9369 78.755 60.0213ZM72.5793 64.2249L72.5797 64.2101V64.1953C72.5797 59.6342 68.9444 55.9988 64.3832 55.9988C59.822 55.9988 56.1867 59.6342 56.1867 64.1953C56.1867 68.7565 59.822 72.3918 64.3832 72.3918C68.8693 72.3918 72.4633 68.6351 72.5793 64.2249Z" fill="#1D1D1B" stroke="#1D1D1B" stroke-width="2.24562"/>
<path d="M40.0291 59.3437C31.1364 59.3437 23.9617 52.1689 23.9617 43.2763C23.9617 34.3836 31.1364 27.2089 40.0291 27.2089C47.8101 27.2089 54.4796 32.7668 55.7933 40.4468C55.8944 41.2552 56.7028 41.7605 57.5112 41.6594C58.3196 41.5584 58.8249 40.75 58.7238 39.9415C57.107 30.7457 49.2249 24.1773 39.928 24.1773C29.4185 24.1773 20.829 32.7668 20.829 43.2763C20.829 53.7858 29.4185 62.3753 39.928 62.3753C40.8375 62.3753 41.5449 61.6679 41.5449 60.8595C41.5449 60.051 40.8375 59.3437 40.0291 59.3437Z" fill="#1D1D1B"/>
<path d="M39.8269 52.3721C40.6354 52.3721 41.3427 51.6647 41.3427 50.8563V44.7931H47.4059C48.2143 44.7931 48.9217 44.0857 48.9217 43.2773C48.9217 42.4689 48.2143 41.7615 47.4059 41.7615H41.3427V35.6983C41.3427 34.8899 40.6354 34.1826 39.8269 34.1826C39.0185 34.1826 38.3111 34.8899 38.3111 35.6983V41.7615H32.248C31.4395 41.7615 30.7322 42.4689 30.7322 43.2773C30.7322 44.0857 31.4395 44.7931 32.248 44.7931H38.3111V50.8563C38.3111 51.6647 38.9175 52.3721 39.8269 52.3721Z" fill="#1D1D1B"/>
</svg>
