<svg width="102" height="102" viewBox="0 0 102 102" fill="none" xmlns="http://www.w3.org/2000/svg">
<path d="M40.9379 36.4084L40.4327 37.3162C40.3316 37.2152 40.1307 37.2156 40.1307 37.2156C39.5244 37.2156 39.6255 37.6202 39.6255 37.6202L39.5248 38.3268C39.4238 38.3268 39.4221 38.7314 39.4221 38.7314C39.3211 38.5293 39.2208 37.3162 39.2208 37.3162H38.8162L38.9169 38.0248H38.8162V38.2261H38.7156C38.4124 37.5188 37.705 37.3162 37.705 37.3162L32.5518 36.509C31.7433 36.509 24.5682 37.0143 24.5682 37.0143C23.7598 37.0143 23.3564 37.1149 23.3564 37.1149C22.5479 37.4181 22.0419 37.4189 22.0419 37.4189C21.4356 37.1158 19.8195 36.7103 19.8195 36.7103C19.3143 36.6093 19.3143 37.0143 19.3143 37.0143L18.7063 42.5722C18.7063 43.2796 19.1109 43.2788 19.1109 43.2788L20.5261 43.5827C21.0313 43.6838 21.7379 44.1886 21.7379 44.1886C21.3337 44.2897 20.6267 44.4926 20.6267 44.4926C15.473 45.2 11.9366 46.6143 11.9366 46.6143C10.825 47.0185 9.71343 47.2206 9.41027 48.6354C9.10711 50.1512 9.00565 53.4847 9.00565 53.4847C8.80355 53.4847 8.60104 53.5874 8.60104 53.5874H7.79383C7.28856 53.6884 7.38921 53.8893 7.38921 53.8893L7.48986 54.8998L8.60104 56.1137C9.20735 56.821 9.41027 56.8202 9.41027 56.8202L13.7563 57.4262L16.5846 58.336L19.63 58.6893C19.6274 58.6047 19.6162 58.5219 19.6162 58.4367C19.6162 53.8782 23.3452 50.1512 27.9037 50.1512C32.4622 50.1512 36.1893 53.8782 36.1893 58.4367C36.1893 59.0811 36.107 59.7066 35.9662 60.3097L38.5143 60.5586H40.0301V59.7514L39.9274 59.6507C39.9274 59.4486 40.1307 58.7407 40.1307 58.7407C40.2318 58.6397 40.7366 58.3361 40.7366 58.3361C41.0398 58.134 41.8478 58.2356 41.8478 58.2356L42.1518 58.1349V57.8308C42.1518 57.6287 41.9485 57.8308 41.9485 57.8308L41.7472 57.6295C41.5451 57.6295 41.6461 57.5272 41.7472 57.4262C41.8482 57.3251 41.8482 57.2249 41.7472 57.2249C41.6461 57.1238 41.8478 57.0215 41.8478 57.0215L43.7682 56.315C43.9703 56.315 44.2735 56.6189 44.2735 56.6189C44.3745 56.9221 44.3741 57.3255 44.3741 57.3255C44.3741 57.8308 44.8794 57.7301 44.8794 57.7301L45.4853 58.1347C46.0916 58.8421 46.1939 58.5373 46.1939 58.5373C46.5981 58.1331 46.9005 58.5373 46.9005 58.5373C47.6078 58.7394 47.8103 58.9419 47.8103 58.9419C48.0124 59.043 48.1143 58.7406 48.1143 58.7406L49.0222 59.1453L57.2505 59.2342C57.2252 58.9715 57.209 58.7057 57.209 58.4367C57.209 57.864 57.2689 57.3056 57.3808 56.765L52.9636 57.2248L52.7623 56.0111L54.1775 55.709L57.5346 56.163C58.5296 52.7029 61.7249 50.1512 65.4946 50.1512C69.3676 50.1512 72.6309 52.8462 73.5275 56.4512C74.4245 52.846 77.6892 50.1512 81.5624 50.1512C82.7144 50.1512 83.8118 50.3909 84.811 50.8201C84.9343 50.5005 85.0992 50.2518 85.0992 50.2518L86.4117 49.6459C86.3106 50.0501 86.615 50.1512 86.615 50.1512C87.1203 50.3533 87.3216 49.6459 87.3216 49.6459L87.9275 49.4426L90.3532 49.2413V48.3314L91.8689 48.1301C92.2732 48.5343 92.6782 48.3314 92.6782 48.3314L95.4058 47.0189C95.709 46.8168 95.6091 46.5137 95.6091 46.5137L95.2045 45.8051C95.3055 45.603 95.0012 45.6038 95.0012 45.6038L94.6992 44.8952L95.5064 45.4005C95.8096 45.5015 95.9111 45.1992 95.9111 45.1992L96.215 44.4926C96.4171 43.9873 96.215 43.6834 96.215 43.6834L94.2946 39.5406C94.0925 39.1364 93.89 39.2367 93.89 39.2367H93.0828L92.7788 38.832C92.5767 38.5289 92.3742 38.6307 92.3742 38.6307L91.7683 38.832L91.263 37.9242C90.9599 37.3179 90.5565 37.3162 90.5565 37.3162L48.8209 37.7209L48.6196 37.3162C48.4175 37.3162 46.3952 37.0143 46.3952 37.0143C46.1931 37.0143 46.0932 36.811 46.0932 36.811C46.0932 36.3057 45.7893 36.4084 45.7893 36.4084L44.2735 36.811V37.3162L45.1834 39.44L46.4958 40.0459C46.6979 40.248 47.4057 41.1571 47.4057 41.1571C47.6078 41.6623 48.8209 45.1992 48.8209 45.1992C48.3156 45.4013 48.4162 45.8051 48.4162 45.8051C48.5173 46.4114 49.0222 46.2097 49.0222 46.2097L49.1248 46.5137C48.7206 46.7158 48.8209 47.0189 48.8209 47.0189C48.9219 47.6252 49.5274 47.3209 49.5274 47.3209L49.8314 49.7465L49.3261 50.9584H48.6196L48.8209 51.1617H48.2149C48.1139 50.5554 47.2044 50.2518 47.2044 50.2518C47.1034 50.0497 46.9005 49.9478 46.9005 49.9478C46.4962 49.6447 46.0932 49.8472 46.0932 49.8472C45.9922 49.6451 45.7893 49.3419 45.7893 49.3419L45.8899 49.1406L45.9906 48.2308C46.1927 47.3213 45.8899 46.8156 45.8899 46.8156C45.5868 46.3103 44.5774 46.109 44.5774 46.109L44.3741 45.9057L44.4748 45.8051L44.2735 45.4005C44.1724 45.1984 43.9703 44.896 44.2735 44.6939C44.5766 44.4918 44.98 43.9873 44.98 43.9873C45.1821 43.6842 44.98 43.6834 44.98 43.6834L43.4643 43.784C42.6558 43.683 41.4432 43.3794 41.4432 43.3794L40.9379 38.4294C40.9379 38.0252 41.2419 37.5196 41.2419 37.5196C41.2419 36.8122 40.9379 36.4084 40.9379 36.4084ZM22.0419 38.2261L22.3458 38.5301L23.6583 38.9347C23.7594 39.0358 22.9505 43.1777 22.7484 44.2893L21.132 43.5827L20.3248 43.2788C20.3248 43.2788 19.919 42.8746 20.2221 42.2682L22.0419 38.2261ZM33.057 38.2261L36.2899 38.7314V43.784L32.8537 44.2893L33.057 38.2261ZM30.732 38.5301L30.5307 44.2893H24.5682L25.2747 38.6307L30.732 38.5301ZM44.4748 47.1196C44.5758 47.2206 45.6878 46.6139 44.8794 49.2413C44.8794 49.2413 44.4748 51.5659 44.4748 52.1722L43.3636 52.2729V52.0716L42.5564 51.8683C42.5564 51.8683 42.4541 51.5663 41.8478 51.5663C41.8478 51.5663 41.3438 50.0505 42.0511 49.5452C42.0511 49.5452 42.8579 47.8269 44.4748 47.1196ZM27.9037 51.667C27.0146 51.6668 26.1341 51.8418 25.3126 52.1819C24.4911 52.522 23.7446 53.0206 23.1157 53.6493C22.4869 54.2779 21.9881 55.0243 21.6477 55.8457C21.3073 56.6671 21.1321 57.5475 21.132 58.4367C21.1318 59.326 21.3069 60.2066 21.6471 61.0283C21.9874 61.85 22.4862 62.5965 23.115 63.2254C23.7439 63.8542 24.4905 64.353 25.3121 64.6933C26.1338 65.0335 27.0144 65.2086 27.9037 65.2084C28.7929 65.2083 29.6733 65.0331 30.4947 64.6927C31.3162 64.3523 32.0625 63.8535 32.6911 63.2247C33.3198 62.5958 33.8184 61.8494 34.1585 61.0278C34.4986 60.2063 34.6736 59.3258 34.6735 58.4367C34.6733 56.6413 33.9599 54.9195 32.6904 53.65C31.4209 52.3805 29.6991 51.6672 27.9037 51.667ZM65.4946 51.667C63.6992 51.6672 61.9774 52.3805 60.7079 53.65C59.4384 54.9195 58.7251 56.6413 58.7248 58.4367C58.7247 59.3258 58.8997 60.2063 59.2398 61.0278C59.5799 61.8494 60.0785 62.5958 60.7072 63.2247C61.3358 63.8535 62.0821 64.3523 62.9036 64.6927C63.725 65.0331 64.6054 65.2083 65.4946 65.2084C66.3837 65.2083 67.2641 65.0331 68.0856 64.6927C68.907 64.3523 69.6533 63.8535 70.282 63.2247C70.9106 62.5958 71.4092 61.8494 71.7493 61.0278C72.0895 60.2063 72.2645 59.3258 72.2643 58.4367C72.2641 56.6413 71.5508 54.9195 70.2813 53.65C69.0117 52.3805 67.2899 51.6672 65.4946 51.667ZM81.5624 51.667C80.6732 51.6668 79.7927 51.8418 78.9712 52.1819C78.1497 52.522 77.4032 53.0206 76.7744 53.6493C76.1456 54.2779 75.6467 55.0243 75.3063 55.8457C74.966 56.6671 74.7907 57.5475 74.7906 58.4367C74.7905 59.326 74.9655 60.2066 75.3058 61.0283C75.646 61.85 76.1448 62.5965 76.7737 63.2254C77.4025 63.8542 78.1491 64.353 78.9707 64.6933C79.7924 65.0335 80.673 65.2086 81.5624 65.2084C82.4515 65.2083 83.3319 65.0331 84.1534 64.6927C84.9748 64.3523 85.7211 63.8535 86.3498 63.2247C86.9784 62.5958 87.477 61.8494 87.8171 61.0278C88.1573 60.2063 88.3323 59.3258 88.3321 58.4367C88.3319 56.6413 87.6186 54.9195 86.3491 53.65C85.0795 52.3805 83.3577 51.6672 81.5624 51.667ZM27.9037 55.4051C28.7078 55.4051 29.4789 55.7245 30.0474 56.293C30.6159 56.8616 30.9353 57.6327 30.9353 58.4367C30.9353 59.2407 30.6159 60.0118 30.0474 60.5803C29.4789 61.1489 28.7078 61.4683 27.9037 61.4683C27.0997 61.4683 26.3286 61.1489 25.7601 60.5803C25.1916 60.0118 24.8722 59.2407 24.8722 58.4367C24.8722 57.6327 25.1916 56.8616 25.7601 56.293C26.3286 55.7245 27.0997 55.4051 27.9037 55.4051ZM65.4946 55.4051C66.2986 55.4051 67.0697 55.7245 67.6382 56.293C68.2068 56.8616 68.5262 57.6327 68.5262 58.4367C68.5262 59.2407 68.2068 60.0118 67.6382 60.5803C67.0697 61.1489 66.2986 61.4683 65.4946 61.4683C64.6905 61.4683 63.9194 61.1489 63.3509 60.5803C62.7824 60.0118 62.463 59.2407 62.463 58.4367C62.463 57.6327 62.7824 56.8616 63.3509 56.293C63.9194 55.7245 64.6905 55.4051 65.4946 55.4051ZM81.5624 55.4051C82.3664 55.4051 83.1375 55.7245 83.706 56.293C84.2746 56.8616 84.594 57.6327 84.594 58.4367C84.594 59.2407 84.2746 60.0118 83.706 60.5803C83.1375 61.1489 82.3664 61.4683 81.5624 61.4683C80.7583 61.4683 79.9873 61.1489 79.4187 60.5803C78.8502 60.0118 78.5308 59.2407 78.5308 58.4367C78.5308 57.6327 78.8502 56.8616 79.4187 56.293C79.9873 55.7245 80.7583 55.4051 81.5624 55.4051ZM51.1459 56.2143V56.6189L51.3472 57.2249V57.5268L48.3156 57.8308L47.609 57.3255C47.609 57.3255 47.5072 56.821 48.3156 56.6189L51.1459 56.2143Z" fill="#1D1D1B"/>
</svg>
