<svg width="102" height="102" viewBox="0 0 102 102" fill="none" xmlns="http://www.w3.org/2000/svg">
<path fill-rule="evenodd" clip-rule="evenodd" d="M67.9266 43.8925L64.1876 45.1052C64.1876 45.1052 63.2771 45.4083 63.2771 44.2967V38.0315C63.2771 38.0315 63.1771 37.4251 64.4908 37.5262L67.7245 37.6273C67.7245 37.6273 68.735 37.7283 68.735 39.2441L68.9371 42.6799C68.835 42.4778 68.735 43.5894 67.9266 43.8925ZM61.6613 38.4357V44.802L52.9697 44.5999C53.2739 41.4673 54.1824 38.2336 54.1824 38.2336C54.3855 37.4251 55.0929 37.5262 55.0929 37.5262L61.054 37.7283C61.8634 37.8294 61.6613 38.4357 61.6613 38.4357ZM21.0381 32.0693V31.9683C19.2191 31.7662 18.7139 31.9683 18.7139 31.9683H15.2771C14.1665 30.4525 14.9749 29.1388 14.9749 29.1388C15.5812 29.1388 23.1602 30.1493 23.1602 30.1493V30.5536L24.4739 30.7557H25.3823L34.8823 32.0693H21.0381ZM10.6296 55.8168C10.6296 55.8168 10.4275 56.0189 10.2244 56.1199C10.2244 56.1199 9.82121 54.8062 9.417 54.0989C9.417 54.0989 9.31595 53.8968 9.21389 53.3915C9.21389 53.3915 10.3265 52.9873 11.337 52.8862L11.6371 54.588C11.5603 54.6678 11.0601 55.3863 10.6296 55.8168ZM8.50753 51.7746L9.11384 46.8231L9.51805 46.722V45.3073H10.1244C10.1244 46.1157 11.0338 46.8231 11.0338 46.8231L11.4381 51.7746C10.2244 51.8757 8.60858 52.1789 8.60858 52.1789L8.50753 51.7746ZM10.4275 37.0209H10.5286C10.5286 37.0209 10.7297 40.0525 10.8317 42.0736C10.8317 42.0736 10.4275 42.3767 10.2244 42.882C10.2244 42.882 10.0233 43.1852 10.1244 44.1957L9.92227 44.2967V44.4988H9.71915C9.71915 44.4988 9.71915 43.8925 9.61911 43.1852C9.71915 43.0841 10.4275 37.4251 10.4275 37.0209ZM94.4014 72.4905C93.9982 72.2884 94.0982 71.7831 94.0982 71.7831C93.9982 70.9747 93.695 70.9747 93.695 70.9747C93.3909 70.7726 93.1898 70.7726 93.1898 70.7726L91.4719 64.8105C91.2698 64.3052 90.6635 64.2041 90.6635 64.2041L89.9561 61.981C89.754 61.1726 89.4508 61.0715 89.4508 61.0715C88.9456 60.7683 88.3382 60.6673 88.3382 60.6673C88.3382 60.2631 88.2382 60.162 88.2382 60.162C87.833 60.061 87.935 60.4652 87.935 60.4652C87.6319 60.5662 87.5298 60.6673 87.5298 60.6673L86.6213 60.4652C85.1056 60.061 80.154 59.0504 80.154 59.0504C80.3561 57.4336 79.9509 57.5347 79.9509 57.5347C79.5477 57.5347 79.5476 58.242 79.5476 58.242C78.5371 58.141 77.2224 58.0399 77.2224 58.0399C77.2224 57.2315 76.9193 57.3326 76.9193 57.3326C76.5161 57.3326 76.7172 58.5452 76.7172 58.5452C76.314 58.5452 75.1013 58.4441 75.1013 58.4441C73.8877 58.242 72.7771 58.4441 72.7771 58.4441H70.5539L70.654 58.3431C70.7561 58.141 69.8456 57.9389 69.8456 57.9389H68.9371V57.7368H69.4424V57.5347H69.5434V57.2315H69.9476C70.1487 57.2315 70.0487 56.9283 70.0487 56.9283C70.1487 56.9283 70.2508 56.8273 70.2508 56.8273V56.322L88.0351 56.6252C89.2487 56.7262 89.3488 56.4231 89.3488 56.4231C90.0561 55.8168 89.754 54.301 89.754 54.301C89.5509 53.9978 89.6529 53.8968 89.6529 53.8968C89.9561 52.6841 89.5509 48.8441 89.5509 48.8441C89.4508 47.0252 88.9456 46.4188 88.9456 46.4188C88.5403 45.6104 87.5298 45.7115 87.5298 45.7115L85.3066 45.6104C85.3066 45.1052 85.1056 44.802 85.1056 44.802C84.7013 43.8925 84.095 43.8925 84.095 43.8925L77.6276 43.5894C76.5161 43.5894 76.3139 43.7915 76.3139 43.7915L73.4845 45.1052H70.7561L70.9582 44.2967C71.6645 44.1957 71.5645 43.4883 71.5645 43.4883L71.1593 38.5367C71.1593 37.8294 70.5539 37.9304 70.5539 37.9304H70.1487C70.1487 37.7283 69.9476 37.6273 69.9476 37.6273C69.8456 37.3241 69.7455 36.8188 69.7455 36.8188C69.5434 36.5157 69.2403 36.2125 69.2403 36.2125C69.2403 35.5051 68.9371 34.4946 68.9371 34.4946C68.6329 33.1809 68.6329 32.7767 68.6329 32.7767H68.5329C68.5329 33.282 68.735 34.0904 68.735 34.0904C69.0381 35.202 69.0382 36.0104 69.0382 36.0104C68.835 35.8083 68.4318 35.7072 68.4318 35.7072C62.2666 34.7978 55.6982 35.4041 55.6982 35.4041C55.0929 35.202 55.0929 35.5051 55.0929 35.5051C54.3855 35.6062 53.7792 35.8083 53.7792 35.8083C53.375 35.9094 53.2739 36.1115 53.2739 36.1115C52.7687 35.303 51.3539 33.6862 51.3539 33.6862C51.0508 33.1809 50.5455 32.9788 50.5455 32.9788L48.3223 31.9683C47.716 31.6651 47.716 31.7662 47.716 31.7662L46.3013 31.6651C45.8971 31.5641 45.695 31.6651 45.695 31.6651H43.0666L42.2592 30.9578C41.6528 30.1493 40.5403 30.3514 40.5403 30.3514C39.8339 30.5536 39.0245 30.5536 39.0245 30.5536C38.6213 30.5536 38.116 30.4525 38.116 30.4525H37.7118V30.5536C36.9034 30.4525 36.7013 30.3514 36.7013 30.3514V30.2504L36.196 30.1493L35.9929 30.3514C35.0844 30.2504 34.1749 30.5536 34.1749 30.5536L25.2823 29.442C24.4739 29.1388 24.1707 29.1388 24.1707 29.1388C23.8665 29.1388 23.5644 29.0378 23.5644 29.0378C23.1602 28.9367 23.0591 29.3409 23.0591 29.3409L15.5812 28.4314C14.7718 28.3304 14.2665 28.0272 14.2665 28.0272C13.6612 27.4209 13.0549 27.522 13.0549 27.522L12.2455 28.0272C11.8423 27.8251 11.9433 28.1283 11.9433 28.1283C11.0338 28.6336 10.6296 29.6441 10.6296 29.6441C10.3265 30.0483 10.4275 31.0588 10.4275 31.0588C9.51805 31.6651 9.71915 33.0799 9.71915 33.0799L9.417 33.5851C9.01279 34.0904 9.21389 34.4946 9.21389 34.4946L9.61911 34.6967L8.91174 34.7978L8.81069 35.4041L9.31595 35.6062L9.417 35.7072L9.31595 35.8083L9.21389 36.6167C8.50753 37.4251 8.20336 38.2336 8.20336 38.2336C7.39595 40.0525 8.70862 41.8715 8.70862 41.8715L8.30542 45.1052C8.20336 45.2062 8.20336 45.4083 8.20336 45.4083C8.00226 45.7115 8.00226 46.8231 8.00226 46.8231H8.30542L7.69809 52.2799H7.59805C6.99173 52.1789 6.58752 52.2799 6.48647 52.8862C6.48647 53.3915 7.29489 53.3915 7.29489 53.3915C7.80016 54.1999 8.60858 56.322 8.60858 56.322C8.00226 56.9283 8.20336 57.6357 8.20336 57.6357L8.00226 57.8378C7.69809 57.8378 7.90121 57.0294 7.90121 57.0294H7.69809C7.09279 57.7368 7.80016 58.7473 7.80016 58.7473L6.08226 59.9599L5.27384 61.981C5.37489 62.2841 5.27384 62.3852 5.27384 62.3852C5.17177 62.3852 5.07173 62.4862 5.07173 62.4862C5.07173 64.4062 6.1823 65.1136 6.1823 65.1136C8.10332 67.0336 12.6507 66.4273 12.6507 66.4273C13.156 66.4273 13.6612 66.5284 13.6612 66.5284H15.4802L15.5812 66.7305L17.1981 66.9326C17.6023 66.7305 18.1075 66.8315 18.1075 66.8315L18.8139 66.6294L18.7139 66.5284L19.3192 66.4273L19.7244 66.2252L20.3297 66.3263L20.937 66.0231L20.7349 65.922H20.937C21.5433 65.922 21.7454 65.7199 21.7454 65.7199C22.4528 65.821 22.5539 65.5178 22.5539 65.5178L21.4423 64.8105L20.3297 64.5073C17.5012 62.5873 16.1875 58.5452 16.1875 58.5452C16.7928 57.4336 15.4802 57.0294 15.4802 57.0294L14.6717 54.8062L16.8949 36.2125L17.9054 36.5157C18.8139 36.9199 19.8244 36.8188 19.8244 36.8188L42.8655 38.4357C46.9076 38.9409 48.7265 40.7599 48.7265 40.7599L49.8381 42.882L49.635 42.9831L49.8381 43.4883L49.635 43.8925C49.8381 44.5999 50.4444 45.6104 50.4444 45.6104L49.8381 51.2694C49.8381 52.0778 50.6455 52.0778 50.6455 52.0778C50.6455 52.381 50.8486 52.2799 50.8486 52.2799V53.1894L50.7476 53.3915H50.4444V55.3115H51.0508C51.3539 55.8168 52.0613 55.7157 52.0613 55.7157L55.5981 55.8168L55.8002 56.0189L58.0224 56.1199L58.1245 56.8273H58.6297V57.1304L58.7298 57.3326H57.1139L57.7192 58.141H53.1719L52.4645 57.4336C51.8592 56.8273 51.2529 57.0294 51.2529 57.0294C50.6455 57.1304 50.6455 57.9389 50.6455 57.9389H49.535L49.4339 56.8273H49.2318L49.0297 57.1304H48.2213L48.0192 56.9283C46.8065 56.7262 46.9076 58.141 46.9076 58.141L46.7055 58.7473L46.6034 60.4652L46.3013 61.2736C45.8971 61.8799 45.5929 62.9915 45.5929 62.9915L44.9876 63.5978L44.8865 62.4862L43.9771 62.2841L41.6528 64.8105C42.5613 69.2568 41.4507 69.9642 41.4507 69.9642L40.9455 70.7726C41.7539 71.1768 42.8655 70.6715 42.8655 70.6715V70.2673C43.2697 69.8631 43.5718 69.2568 43.5718 69.2568C43.975 69.1982 44.9684 69.0102 45.7485 68.8586C45.2645 67.9522 44.9876 66.9184 44.9876 65.821C44.9876 62.2548 47.8878 59.3536 51.454 59.3536C53.2547 59.3536 54.8857 60.0963 56.0599 61.2867L56.2034 61.1726C57.1139 60.9705 58.0224 61.2736 58.0224 61.2736C58.1244 62.082 58.4276 62.082 58.4276 62.082L59.235 62.1831V63.0926C59.135 63.4968 59.8424 64.2041 59.8424 64.2041L67.5224 64.5073C68.2297 64.5073 68.735 64.4062 68.735 64.4062L72.8772 65.0126L73.434 65.0419C73.821 61.8425 76.5484 59.3536 79.8508 59.3536C83.4159 59.3536 86.3172 62.2548 86.3172 65.821C86.3172 65.8533 86.3131 65.8846 86.3121 65.916L87.2277 66.8315C87.833 67.3368 88.0351 67.0336 88.0351 67.0336L88.5403 66.9326L90.7645 70.8736L90.2592 71.581H88.9456L88.6424 71.8842C88.4403 72.3894 89.754 72.7936 89.754 72.7936C91.3698 73.2989 93.1898 73.2989 93.1898 73.2989C94.9067 73.2989 95.2108 73.1978 95.2108 73.1978C95.2108 72.9957 95.614 72.9957 95.614 72.9957C95.614 72.6926 94.4014 72.4905 94.4014 72.4905ZM79.8506 68.044C78.6228 68.044 77.6274 67.0487 77.6274 65.8209C77.6274 64.5931 78.6228 63.5977 79.8506 63.5977C81.0784 63.5977 82.0738 64.5931 82.0738 65.8209C82.0738 67.0487 81.0784 68.044 79.8506 68.044ZM79.8506 60.8693C77.1161 60.8693 74.899 63.0864 74.899 65.8209C74.899 68.5554 77.1161 70.7725 79.8506 70.7725C82.5851 70.7725 84.8012 68.5554 84.8012 65.8209C84.8012 63.0864 82.5851 60.8693 79.8506 60.8693ZM51.4542 68.044C50.2264 68.044 49.231 67.0487 49.231 65.8209C49.231 64.5931 50.2264 63.5977 51.4542 63.5977C52.683 63.5977 53.6773 64.5931 53.6773 65.8209C53.6773 67.0487 52.683 68.044 51.4542 68.044ZM51.4542 60.8693C48.7197 60.8693 46.5036 63.0864 46.5036 65.8209C46.5036 68.5554 48.7197 70.7725 51.4542 70.7725C54.1897 70.7725 56.4057 68.5554 56.4057 65.8209C56.4057 63.0864 54.1897 60.8693 51.4542 60.8693Z" fill="#1D1D1B"/>
</svg>
