<svg width="102" height="102" viewBox="0 0 102 102" fill="none" xmlns="http://www.w3.org/2000/svg">
<path d="M73.845 39.0325L52.5228 39.1335V38.4261C52.5228 38.4261 52.6239 38.123 52.2197 38.123C51.9165 38.123 51.9165 38.4261 51.9165 38.4261V39.2346H29.9881C29.2807 39.2346 29.2807 40.4472 29.2807 40.4472V61.5672C29.3818 62.4767 29.6849 62.3757 29.6849 62.3757H39.2849V63.4872C39.2849 64.8009 39.6891 64.5988 39.6891 64.5988L44.7418 64.6999C45.0449 64.6999 44.9439 64.1946 44.9439 64.1946L45.0449 62.5778H58.1818V64.0936C58.1818 64.8009 58.586 64.6999 58.586 64.6999L63.2344 64.902C63.7397 64.902 63.7397 64.4978 63.7397 64.4978L63.8408 62.6788H74.4513L74.5523 40.043C74.7545 38.9314 73.845 39.0325 73.845 39.0325ZM42.4176 55.302H43.7313L41.5081 58.7378L39.8912 55.302H41.306L41.7102 51.1588L37.6681 53.2809L39.7902 42.6704H43.7313L40.8007 49.542L44.9439 47.723L42.4176 55.302ZM57.5755 59.8493H57.1713V41.5588H57.4744V59.8493H57.5755ZM72.1271 51.7651H59.1923V51.462H72.1271V51.7651ZM72.1271 48.5314H59.1923V48.2283H72.1271V48.5314ZM72.1271 45.2977H59.1923V44.9946H72.1271V45.2977Z" fill="#1D1D1B"/>
</svg>
