<svg width="102" height="102" viewBox="0 0 102 102" fill="none" xmlns="http://www.w3.org/2000/svg">
<path d="M58.5286 69.2473C62.5469 69.2473 65.8044 65.9898 65.8044 61.9715C65.8044 57.9532 62.5469 54.6957 58.5286 54.6957C54.5102 54.6957 51.2528 57.9532 51.2528 61.9715C51.2528 65.9898 54.5102 69.2473 58.5286 69.2473Z" fill="#1D1D1B"/>
<path d="M58.529 65.2036C60.3149 65.2036 61.7627 63.7559 61.7627 61.97C61.7627 60.184 60.3149 58.7363 58.529 58.7363C56.7431 58.7363 55.2953 60.184 55.2953 61.97C55.2953 63.7559 56.7431 65.2036 58.529 65.2036Z" fill="#1D1D1B"/>
<path d="M93.7954 53.3809C93.6943 52.8756 93.6943 52.4714 93.6943 52.4714C93.6943 51.8651 93.1891 51.764 93.1891 51.764C92.987 51.663 92.6838 51.764 92.6838 51.764L91.6733 47.6209H91.7743V47.4188H91.6733L90.6628 43.4777C90.4606 42.8714 90.5617 41.8608 90.5617 41.8608C90.6628 40.3451 90.8649 39.2335 90.8649 39.2335L91.4712 38.9303C91.4712 38.4251 91.067 38.324 91.067 38.324L90.8649 38.0208C90.8649 36.1008 90.3596 35.1914 90.3596 35.1914C89.9554 34.1808 89.4501 33.7766 89.4501 33.7766V33.5745C89.3491 33.1703 88.9449 33.3724 88.9449 33.3724C88.2375 33.2714 88.1364 33.5745 88.1364 33.5745L87.9343 33.0693C87.8333 32.564 87.6312 32.564 87.6312 32.564C87.328 32.3619 87.328 32.8671 87.328 32.8671H87.227L86.9238 32.4629C86.1154 31.8566 85.6101 32.7661 85.6101 32.7661C84.8017 32.8672 84.8017 33.5745 84.8017 33.5745L84.5996 34.0798L80.6585 36.5051C80.3554 36.2019 80.1533 36.3029 80.1533 36.3029L78.5364 37.2124H78.4354C78.2333 37.1114 78.0312 37.4145 78.0312 37.4145C77.829 37.4145 77.829 37.6166 77.829 37.6166L76.1112 38.6272C75.808 38.6272 75.808 38.8293 75.808 38.8293L73.7869 40.0419H73.5848L73.1806 40.6482L72.7764 40.9514C71.7659 41.3556 72.4732 42.164 72.4732 42.164V42.7703L72.5743 42.8714V43.7809C71.8669 44.4882 72.5743 45.1956 72.5743 45.1956L72.4732 54.3914H72.7764V55.3009C72.6754 55.3009 72.4732 55.503 72.4732 55.503H70.048C70.048 55.4019 69.8459 55.3009 69.8459 55.3009L69.9469 54.9977V54.6946L69.7448 54.7956V54.6946H69.5427V54.3914L69.9469 51.663H70.149L70.3511 50.9556C70.3511 50.7535 70.2501 50.7535 70.2501 50.7535L69.7448 50.6524C69.4417 50.6524 69.3406 50.8545 69.3406 50.8545L69.2396 51.3598H69.1385V50.2482H67.5217L66.9153 50.3493L66.7132 53.9872H66.309C66.6122 53.3809 66.309 53.0777 66.309 53.0777C66.0059 52.6735 65.2985 53.0777 65.2985 53.0777C64.8943 45.8019 63.3785 41.8608 63.3785 41.8608L63.4795 41.4566L63.1764 41.2545V41.1535H63.4795L63.5806 41.4566L63.8838 41.5577L64.389 40.7493L64.0859 40.5472L64.5911 39.8398C64.6922 39.6377 64.389 39.5366 64.389 39.5366C63.8838 39.4356 62.0648 39.2335 62.0648 39.2335C62.0648 39.0314 61.9638 38.9303 61.9638 38.9303L61.1553 38.8293C60.9532 38.8293 60.7511 39.0314 60.7511 39.0314C58.629 38.8293 53.0711 38.6272 53.0711 38.6272L48.4227 38.5261H48.2206C48.0185 38.5261 47.4122 38.7282 47.4122 38.7282L47.0079 39.3345C46.6037 39.3345 46.6037 39.9408 46.6037 39.9408C46.3006 40.143 46.1995 40.5472 46.1995 40.5472C45.6943 42.4672 46.4016 42.4672 46.4016 42.4672V42.5682C46.0985 42.4672 45.9974 42.5682 45.9974 42.5682C45.7953 42.7703 45.7953 43.1745 45.7953 43.1745C45.5932 43.4777 45.4921 44.084 45.4921 44.084C45.3911 44.6903 45.5932 44.8924 45.5932 44.8924V45.3977C45.5932 45.5998 45.7953 45.5998 45.7953 45.5998L46.4016 45.8019C46.1995 45.903 46.3006 46.1051 46.3006 46.1051C45.5932 46.3072 44.8858 46.1051 44.8858 46.1051C44.2795 45.2966 43.4711 45.7009 43.4711 45.7009V46.7114H43.269L43.6732 41.8608C43.7743 41.1535 43.4711 40.6482 43.4711 40.6482C43.37 40.3451 43.269 40.5472 43.269 40.5472C43.1679 40.6482 42.9658 40.7493 42.9658 40.7493C42.9658 40.9514 43.1679 41.4566 43.1679 41.4566L42.6627 46.9135C41.6521 47.5198 40.2374 48.7324 40.2374 48.7324C34.4774 49.5409 31.749 51.1577 31.749 51.1577L31.6479 51.3598C30.8395 51.764 30.8395 52.1682 30.8395 52.1682L30.5363 52.3703L30.6374 52.7745L30.0311 53.0777V53.2798L26.7974 54.4924C26.5953 54.2903 25.989 54.3914 25.989 54.3914C25.4837 54.2903 25.0795 54.5935 25.0795 54.5935C24.2711 54.9977 24.069 56.1093 24.069 56.1093L23.7658 56.2103L23.0584 56.8167L22.0479 57.8272V57.423C22.0479 56.8167 21.3405 56.7156 21.3405 56.7156V56.4124C21.3405 56.0082 19.8247 56.1093 19.8247 56.1093C19.5216 56.1093 19.4205 56.2103 19.4205 56.2103L16.7932 56.3114L11.7405 56.4124C10.9321 56.4124 11.0331 57.0188 11.0331 57.0188C11.0331 60.1514 11.4374 62.7788 11.4374 62.7788C11.4374 63.0819 11.2353 63.4861 11.2353 63.4861L7.90051 66.4167L7.79945 66.9219L7.19314 67.3262H7.4963V67.4272H9.51735L9.92156 67.2251V67.4272H16.3889C16.6921 67.4272 16.8942 67.2251 16.8942 67.2251L19.4205 66.0125L20.2289 65.7093C20.8353 65.4062 21.3405 65.3051 21.3405 65.3051L26.1911 62.4756V61.9704C26.1911 60.7577 26.3932 59.5451 26.8984 58.5346L26.09 59.1409C26.09 59.1409 25.7869 58.7367 26.1911 57.6251L28.4142 55.1998L28.5153 54.8967L30.3342 54.1893V54.4924C31.6479 53.684 33.2648 53.1788 34.9827 53.1788C39.8332 53.1788 43.7743 57.1198 43.7743 61.9704C43.7743 62.4756 43.6732 63.0819 43.5721 63.5872L44.2795 63.8904L46.8058 63.7893H48.7258C49.1301 63.7893 49.6353 63.4861 49.8374 63.3851C49.7364 62.9809 49.7364 62.4756 49.7364 61.9704C49.7364 57.1198 53.6774 53.1788 58.528 53.1788C63.3785 53.1788 67.3196 57.1198 67.3196 61.9704C67.3196 62.5767 67.2185 63.183 67.1175 63.7893V66.6188L65.9048 66.7198C65.7027 67.023 65.5006 67.3262 65.1974 67.6293V67.7304L66.6122 68.6398L70.149 68.5388V67.5283L69.0375 66.9219L69.1385 63.8904H69.2396V63.4861C69.5427 63.3851 69.5427 63.284 69.5427 63.284V62.9809H69.9469C70.149 62.9809 70.048 62.6777 70.048 62.6777L71.2606 62.4756C71.4627 62.4756 71.4627 62.2735 71.4627 62.2735V61.9704L72.8775 61.8693C74.8985 61.8693 76.4143 61.4651 76.4143 61.4651C76.8185 61.364 77.1217 60.9598 77.1217 60.9598C77.5259 60.6567 78.3343 60.2525 78.3343 60.2525C78.8396 59.8482 78.9406 58.8377 78.9406 58.8377L79.4459 52.9767L80.0522 46.1051C80.1533 44.4882 81.0627 43.0735 81.0627 43.0735C81.8712 41.9619 84.1954 39.6377 84.1954 39.6377C84.3975 40.3451 85.2059 45.4987 85.2059 45.4987L85.1048 45.5998L86.2164 52.7745C86.3175 53.1788 86.4185 54.2903 86.4185 54.2903C86.7217 54.2903 87.0248 54.4924 87.0248 54.4924C87.4291 54.6946 87.4291 55.604 87.4291 55.604C87.1259 56.0082 87.5301 56.2103 87.5301 56.2103V57.0188C87.0248 57.423 86.4185 59.2419 86.4185 59.2419C85.9133 61.0609 84.3975 62.2735 84.3975 62.2735L84.2964 62.4756H83.7912L82.2754 63.183L82.4775 63.284H83.7912L83.5891 63.3851L83.8922 63.4861H85.2059L84.9027 63.5872L85.2059 63.6883C85.8122 63.6883 87.7322 63.7893 87.7322 63.7893L88.5406 63.5872V63.4861H88.9449V63.284L91.067 63.4861C92.4817 63.284 92.987 62.1725 92.987 62.1725C93.6943 60.9598 92.987 59.444 92.987 59.444C92.5828 58.5346 92.2796 57.8272 92.2796 57.8272H92.4817L92.5827 57.524C92.5827 57.2209 92.2796 56.8167 92.2796 56.8167L93.1891 54.2903C93.3912 54.3914 93.5933 54.1893 93.5933 54.1893C93.9975 53.7851 93.7954 53.3809 93.7954 53.3809ZM50.1406 54.9977H47.5132V50.3493C47.5132 50.3493 52.9701 49.6419 55.1932 49.6419C55.1932 49.743 52.0606 51.4609 50.1406 54.9977ZM56.2037 48.7324H48.0185C48.0185 48.7324 47.4122 48.8335 47.4122 48.5303C47.4122 48.5303 47.6143 44.7914 49.2311 39.5366C49.2311 39.5366 49.1301 39.3345 49.6353 39.3345H55.3953C55.3953 39.3345 55.6985 39.1324 55.6985 39.8398C55.6985 39.8398 56.3048 46.7114 56.5069 48.3282C56.5069 48.4293 56.5069 48.7324 56.2037 48.7324ZM57.5174 47.6209L56.709 39.7387C56.709 39.7387 56.608 39.4356 57.0122 39.4356L61.8627 39.8398C61.8627 39.8398 62.1659 39.7387 62.2669 40.3451C62.2669 40.3451 64.0859 45.903 64.288 48.8335C64.288 48.8335 64.389 49.0356 64.0859 49.1367L57.7195 48.6314C57.7195 48.6314 57.6185 48.7324 57.5174 47.6209ZM58.4269 49.2377C58.4269 49.2377 62.5701 49.3388 63.9848 49.3388L64.389 53.4819C64.288 53.4819 62.5701 51.1577 58.4269 49.2377ZM74.7975 55.503L74.3932 55.0988L73.888 55.3009H73.4838V54.4924H73.888L74.0901 46.004C74.0901 46.004 74.2922 46.7114 74.5954 47.4188C74.5954 47.4188 74.4943 49.6419 74.6964 50.6524L74.8985 52.7745C74.8985 52.7745 74.8985 53.583 75.1006 53.7851C75.1006 53.7851 74.6964 54.2903 75.1006 54.4924L75.2017 55.9072C75.2017 55.9072 74.8985 55.9072 74.7975 55.503Z" fill="#1D1D1B"/>
<path d="M34.9845 69.2458C39.0028 69.2458 42.2603 65.9883 42.2603 61.97C42.2603 57.9517 39.0028 54.6942 34.9845 54.6942C30.9662 54.6942 27.7087 57.9517 27.7087 61.97C27.7087 65.9883 30.9662 69.2458 34.9845 69.2458Z" fill="#1D1D1B"/>
<path d="M34.9839 65.2041C36.7698 65.2041 38.2176 63.7563 38.2176 61.9704C38.2176 60.1845 36.7698 58.7367 34.9839 58.7367C33.198 58.7367 31.7502 60.1845 31.7502 61.9704C31.7502 63.7563 33.198 65.2041 34.9839 65.2041Z" fill="#1D1D1B"/>
</svg>
