<svg width="102" height="102" viewBox="0 0 102 102" fill="none" xmlns="http://www.w3.org/2000/svg">
<path d="M16.5091 51.8665C13.1743 51.8665 10.5469 54.4939 10.5469 57.8286C10.5469 61.1633 13.1743 63.7907 16.5091 63.7907C19.8438 63.7907 22.4712 61.1633 22.4712 57.8286C22.5722 54.4939 19.8438 51.8665 16.5091 51.8665ZM16.5091 60.456C14.9933 60.456 13.7806 59.2433 13.7806 57.7276C13.7806 56.2118 14.9933 54.9991 16.5091 54.9991C18.0248 54.9991 19.2375 56.2118 19.2375 57.7276C19.2375 59.2433 18.0248 60.456 16.5091 60.456ZM67.0355 52.877C63.7007 52.877 61.0733 55.5044 61.0733 58.8391C61.0733 62.1739 63.7007 64.8012 67.0355 64.8012C70.3702 64.8012 72.9976 62.1739 72.9976 58.8391C72.9976 55.6054 70.3702 52.877 67.0355 52.877ZM67.0355 61.5676C65.5197 61.5676 64.307 60.3549 64.307 58.8391C64.307 57.3233 65.5197 56.1107 67.0355 56.1107C68.5513 56.1107 69.7639 57.3233 69.7639 58.8391C69.7639 60.3549 68.5513 61.5676 67.0355 61.5676Z" fill="#1D1D1B"/>
<path d="M100.483 61.7682L100.382 61.0608C100.281 60.6566 99.978 60.6566 99.978 60.6566L99.7759 58.8376C99.6749 57.8271 98.9675 57.726 98.9675 57.726V57.5239L97.2496 57.2208L98.3612 58.2313C98.6644 58.2313 98.5633 58.5345 98.5633 58.5345V60.2524L97.957 59.9492L97.2496 59.8481L97.3507 58.4334C97.4517 57.726 96.8454 57.5239 96.8454 57.5239V57.4229L96.138 57.1197L95.5317 57.0187C95.5317 57.3218 96.138 58.0292 96.138 58.0292C96.3401 58.0292 96.3401 58.4334 96.3401 58.4334C96.2391 58.6355 95.8349 59.9492 95.8349 59.9492L95.2286 59.3429C94.9254 57.4229 93.6117 55.806 93.6117 55.806C93.2075 55.0987 92.8033 55.1997 92.8033 55.1997C92.0959 55.0987 92.0959 55.4018 92.0959 55.4018L90.8833 55.3008C90.6812 54.5934 90.277 54.4923 90.277 54.4923L90.7822 52.6734C90.8833 52.2692 90.7822 52.2692 90.7822 52.2692C90.1759 51.966 89.7717 52.1681 89.7717 52.1681H89.4686L89.3675 52.4713L89.4686 52.5723C89.3675 53.3808 89.3675 54.4923 89.3675 54.4923C88.6601 54.4923 88.458 55.0987 88.458 55.0987H88.1549C88.0538 54.7955 87.5485 54.6945 87.5485 54.6945H86.538L86.2349 54.5934L86.0328 52.5723V51.1576L86.1338 51.0566V49.6418C86.0328 49.4397 85.5275 49.4397 85.5275 49.4397L85.1233 45.5997C85.1233 44.9934 84.8201 45.0944 84.8201 45.0944L81.9906 44.9934C81.9906 44.286 81.5864 44.3871 81.5864 44.3871L77.2412 44.0839C76.837 44.0839 76.938 44.3871 76.938 44.3871V44.6902L75.119 44.5892C75.119 43.8818 74.8159 43.8818 74.8159 43.8818H74.0075L73.9064 40.9513C74.1085 40.8502 74.4117 40.7492 74.4117 40.7492C74.4117 40.446 73.9064 40.2439 73.9064 40.2439C73.199 39.9407 72.2896 40.1429 72.2896 40.1429C71.5822 40.345 71.5822 40.8502 71.5822 40.8502C71.6833 40.8502 71.9864 40.9513 71.9864 40.9513V43.2755C71.178 43.2755 71.178 43.8818 71.178 43.8818H69.5611L69.4601 39.1323C69.4601 37.9197 69.0559 38.1218 69.0559 38.1218C68.5506 38.2228 68.6517 39.1323 68.6517 39.1323V43.8818H68.3485C67.9443 43.8818 68.0454 44.4881 68.0454 44.4881H67.338C66.4285 44.4881 66.4285 44.5892 66.4285 44.5892L65.7211 44.8923V44.6902L65.3169 44.5892V44.3871L65.418 44.185C65.418 43.4776 65.0138 43.6797 65.0138 43.6797C64.7106 43.7808 64.8117 44.3871 64.8117 44.3871H64.7106V43.6797L65.0138 43.3765L65.7211 40.345L65.9232 40.446H67.2369L67.338 40.345C67.7422 40.345 68.4496 39.6376 68.4496 39.6376V37.6165L68.0454 37.5155V37.4144L67.7422 37.3134L67.9443 36.7071L68.0454 36.606C67.5401 36.4039 66.7317 36.606 66.7317 36.606H66.3275V36.3028L50.9674 36.1007C50.6643 36.1007 50.8664 36.505 50.8664 36.505C50.6643 36.7071 50.8664 37.0102 50.8664 37.0102C51.0685 37.3134 50.9674 37.7176 50.9674 37.7176H50.6643C50.2601 37.7176 50.3611 37.9197 50.3611 37.9197L50.5632 41.1534C50.6643 42.0629 51.1695 41.9618 51.1695 41.9618L51.2706 42.0629L51.0685 42.1639V42.366L51.2706 42.4671L51.3716 43.9829L51.6748 48.3281L51.2706 47.9239L50.9674 47.1155L50.6643 43.9829L47.4306 44.286C46.8243 44.286 44.8032 44.5892 44.8032 44.5892H43.3885L42.7822 44.7913H42.479L42.3779 44.3871L41.1653 44.286L41.0643 40.9513C41.1653 40.5471 41.2664 39.9407 41.2664 39.9407C41.3674 38.8292 41.0643 38.9302 41.0643 38.9302C40.559 38.7281 40.3569 38.9302 40.3569 38.9302V41.4565C40.4579 42.5681 40.2558 43.2755 40.2558 43.2755C39.9527 42.5681 39.2453 42.5681 39.2453 42.5681L39.1443 39.0313C39.2453 38.425 39.3464 37.5155 39.3464 37.5155V36.9092C39.3464 36.5049 39.0432 36.505 39.0432 36.505V36.4039C38.74 36.3028 38.2348 36.4039 38.2348 36.4039L38.4369 41.4565C38.3358 42.1639 38.1337 43.3765 38.1337 43.3765C38.1337 43.7808 37.6285 45.4986 37.6285 45.4986L24.4916 45.1955L21.1569 45.7008C21.1569 44.9934 21.0558 44.9934 21.0558 44.9934H19.9442C19.8432 45.0944 19.8432 45.9029 19.8432 45.9029C19.6411 45.8018 18.2263 44.9934 18.2263 44.9934C17.1147 44.4881 16.3063 45.4987 16.3063 45.5997C16.3063 47.7218 14.4874 48.5302 14.4874 48.5302C14.5884 50.3492 14.2853 51.3597 14.0832 51.865C14.7905 51.5618 15.7 51.3597 16.5084 51.3597C20.0453 51.3597 22.9758 54.2902 22.9758 57.8271C22.9758 59.1408 22.5716 60.3534 21.8642 61.3639C26.5127 62.2734 27.9274 58.7366 27.9274 58.7366C28.9379 56.4124 28.0284 54.8966 28.0284 54.8966L31.1611 55.1997V55.4018L33.8895 55.705C33.6874 55.806 33.7885 56.8166 33.7885 56.8166L37.7295 57.2208C38.1337 57.3218 38.4369 57.4229 38.4369 57.4229L33.3842 56.9176C33.0811 57.0187 33.4853 57.5239 33.4853 57.5239L33.1821 57.625L33.4853 58.2313C33.9906 60.2524 33.0811 61.465 33.0811 61.465C34.9 61.566 55.6159 65.1029 55.6159 65.1029C55.919 63.9913 56.2222 61.8692 56.2222 61.8692C55.919 59.0397 54.4032 59.0397 54.4032 59.0397L48.7443 58.4334C48.5422 56.9176 47.0264 56.7155 47.0264 56.7155L46.9253 56.4123C45.9148 56.3113 42.7822 55.806 42.7822 55.806L42.8832 55.6039C43.0853 55.4018 43.0853 55.0987 43.0853 55.0987L42.8832 51.865V51.5618L42.7822 51.3597V50.9555L42.8832 50.6523L43.1864 50.8544V51.1576L43.4895 51.2587C43.4895 51.4608 44.1969 51.4608 44.1969 51.4608V51.5618H44.7022V51.3597H45.1064V51.0566L45.3085 50.9555L45.9148 50.8544H47.2285L47.6327 51.0566L48.0369 50.8544C48.6432 51.0566 49.2495 50.8544 49.2495 50.8544C49.9569 51.5618 53.4938 54.2902 53.4938 54.2902V54.9976L53.898 57.726H56.3232C56.2222 57.3218 56.5253 56.7155 56.5253 56.7155L57.738 57.726L58.1422 59.1408C58.7485 61.465 60.6685 62.0713 61.679 62.2734C60.9717 61.2629 60.5675 60.0503 60.5675 58.7366C60.5675 55.1997 63.498 52.2692 67.0348 52.2692C70.5717 52.2692 73.5022 55.1997 73.5022 58.7366C73.5022 59.545 73.3001 60.3534 73.098 61.0608H74.6138C74.3106 60.3534 74.2096 59.545 74.2096 58.7366C74.2096 55.1997 77.1401 52.2692 80.677 52.2692C84.2138 52.2692 87.1443 55.1997 87.1443 58.7366C87.1443 59.3429 87.0433 60.0503 86.8412 60.5555H87.4475L88.1549 60.6566V60.8587C88.1549 61.3639 87.8517 61.566 87.8517 61.566L87.1443 62.3745H87.3464L88.458 61.7682C88.8622 61.566 88.7612 60.7576 88.7612 60.7576H89.1654C89.1654 61.1618 89.0643 61.465 89.0643 61.465L88.2559 62.1724V62.3745H88.458L89.5696 61.7682C89.8728 61.6671 89.7717 60.8587 89.7717 60.8587H90.1759V61.2629C90.1759 61.566 90.0749 61.6671 90.0749 61.6671L89.1654 62.5766H89.4686L90.6812 61.9703C90.9843 61.7681 90.8833 60.9597 90.8833 60.9597L91.4896 60.7576C91.6917 60.9597 92.5001 60.9597 92.5001 60.9597C92.7022 61.1618 93.2075 61.1618 93.2075 61.1618C93.5107 61.2629 93.8138 61.2629 93.8138 61.2629C94.4201 61.3639 95.0265 61.3639 95.0265 61.3639V62.3745L94.4201 62.8797H94.3191L93.7128 63.7892H93.9149L95.1275 63.0818C95.3296 62.9808 95.3296 62.6776 95.3296 62.6776V61.6671H95.9359V62.3745C95.9359 62.8797 95.5317 62.9808 95.5317 62.9808L94.6222 63.9913H95.2286L96.138 63.385C96.7443 63.1829 96.6433 62.8797 96.6433 62.8797V61.8692L97.0475 61.7682C97.3507 61.7682 97.2496 61.9703 97.2496 61.9703V63.0818L97.0475 63.385H96.8454L96.037 64.2945H96.138C96.7443 64.2945 97.5528 63.6882 97.5528 63.6882C97.957 63.385 97.957 62.9808 97.957 62.9808V62.0713H100.483V61.7682ZM38.8411 54.2902H37.9316L37.0221 54.0881L36.9211 53.886L36.4158 53.785V53.3808H35.2032V53.6839C35.2032 53.6839 33.0811 53.785 32.4748 53.785C32.4748 53.785 31.7674 53.6839 30.7569 53.9871L27.6242 53.6839C27.6242 53.6839 26.4116 51.7639 23.38 51.865C23.38 51.865 23.0769 51.865 23.1779 50.5513C23.1779 50.5513 25.199 48.8334 26.7148 48.2271H27.3211V49.6418L31.6663 49.7429V48.4292L32.0706 48.126L38.2348 48.3281C38.2348 48.3281 38.3358 48.8334 38.74 48.7323V49.1366L38.9421 49.2376L39.1443 53.4818L38.8411 54.2902ZM40.2558 53.5829C40.2558 53.5829 40.0537 53.785 40.2558 53.9871H39.8516L39.4474 53.6839L39.3464 49.3387H39.5485V48.5302L40.1548 48.6313C40.1548 48.6313 39.9527 49.5408 40.3569 49.5408H40.559V49.8439H40.7611L40.9632 53.6839C40.9632 53.6839 40.4579 53.4818 40.2558 53.5829ZM42.3779 51.6629C42.3779 51.6629 42.1758 51.7639 42.1758 52.1681L42.2769 54.5934C42.2769 54.5934 42.1758 53.9871 41.8727 53.886L41.2664 53.785L41.1653 49.8439L41.2664 49.7429L41.3674 48.5302H42.1758V49.6418C42.1758 49.6418 41.9737 49.7429 42.0748 50.1471C42.0748 50.1471 41.7716 50.5513 41.9737 50.7534L42.2769 51.0566V51.6629H42.3779ZM58.9506 49.8439C58.9506 49.8439 58.8496 50.3492 58.2432 50.3492L54.4032 50.2481L53.7969 49.3387C53.7969 49.3387 53.2916 44.4881 53.3927 43.8818C53.3927 43.8818 53.3927 43.4776 53.7969 43.4776H58.5464C58.5464 43.4776 59.0517 43.6797 59.1527 44.4881L58.9506 49.8439ZM58.9506 42.265C58.9506 42.265 58.8496 42.6692 58.3443 42.6692H53.6959C53.6959 42.6692 53.0895 42.7702 53.0895 40.7492L52.8874 38.425C52.8874 38.425 52.8874 38.0207 53.3927 38.0207L58.6474 38.2228C58.6474 38.2228 59.0517 38.2228 59.0517 39.0313L58.9506 42.265ZM62.1843 48.6313C62.2853 50.4502 61.7801 50.3492 61.7801 50.3492H60.8706C59.9611 50.4502 60.0622 49.7429 60.0622 49.7429L60.1632 38.9302C60.1632 38.3239 60.4664 38.3239 60.4664 38.3239H61.7801C62.1843 38.3239 62.2853 38.9302 62.2853 38.9302L62.1843 48.6313C62.1843 48.5302 62.1843 46.8123 62.1843 48.6313ZM10.1421 57.8271C10.1421 56.2102 10.7484 54.7955 11.6579 53.6839L3.77577 53.5829L3.57367 53.1787C3.16945 52.8755 1.95682 53.5829 1.95682 53.5829L2.05787 60.7576L1.24945 62.1724L2.56314 62.0713L8.12104 60.5555H9.53578L10.3442 60.2524H10.6474C10.3442 59.545 10.1421 58.6355 10.1421 57.8271Z" fill="#1D1D1B"/>
<path d="M80.4751 52.8776C77.1404 52.8776 74.513 55.505 74.513 58.8397C74.513 62.1745 77.1404 64.8018 80.4751 64.8018C83.8099 64.8018 86.4372 62.1745 86.4372 58.8397C86.4372 55.606 83.8099 52.8776 80.4751 52.8776ZM80.4751 61.5681C78.9593 61.5681 77.7467 60.3555 77.7467 58.8397C77.7467 57.3239 78.9593 56.1113 80.4751 56.1113C81.9909 56.1113 83.2035 57.3239 83.2035 58.8397C83.2035 60.3555 81.9909 61.5681 80.4751 61.5681Z" fill="#1D1D1B"/>
</svg>
