<svg width="102" height="102" viewBox="0 0 102 102" fill="none" xmlns="http://www.w3.org/2000/svg">
<path d="M57.576 34.9923L57.677 31.7586C58.2833 30.9502 57.9802 30.4449 57.9802 30.4449C57.7781 29.5354 57.0707 29.5354 57.0707 29.5354C56.6665 29.0302 55.9591 29.2323 55.9591 29.2323L52.4223 30.0407C51.816 29.6365 51.2096 29.9396 51.2096 29.9396L46.6623 30.9502C45.7528 31.1523 45.7528 31.5565 45.7528 31.5565C45.2475 32.0618 45.3486 32.6681 45.4496 32.7691L44.8433 34.6891L43.3275 34.9923V36.2049L43.7317 36.306V36.8112C44.237 37.0133 44.4391 36.8112 44.4391 36.8112V36.5081H44.6412L45.2475 41.5607C45.3486 42.167 45.9549 44.3902 45.9549 44.3902C46.6623 46.4113 46.7633 47.826 46.7633 47.826L46.8644 47.927V48.0281H46.6623L46.7633 61.8723L46.3591 62.0744V63.9944L49.3907 65.3081V70.2597L50.0981 71.9776C50.0981 72.2808 49.997 72.1797 50.3002 72.2808C50.6033 72.3818 50.6033 72.0787 50.6033 72.0787L51.4117 70.2597V66.0155L52.2202 66.3186L52.8265 66.0155V64.9039L53.6349 64.6008L55.0496 65.2071L55.5549 64.9039L55.656 63.186L54.3423 61.8723L54.4433 58.1334C54.4433 57.9313 54.1402 57.7292 54.1402 57.7292V50.6555L55.1507 45.7039L56.5654 44.1881C56.7675 43.6828 57.1718 41.6618 57.1718 41.6618C57.3739 39.7418 57.677 37.6197 57.677 37.6197V37.1144H57.7781C58.2833 37.3165 58.4854 37.1144 58.4854 37.1144L58.5865 36.6091L58.9907 36.5081V35.2954L57.576 34.9923Z" fill="#1D1D1B"/>
</svg>
