<svg width="102" height="102" viewBox="0 0 102 102" fill="none" xmlns="http://www.w3.org/2000/svg">
<mask id="path-1-inside-1_1_335" fill="white">
<path d="M74.2251 56.7173C72.0019 56.7173 70.183 58.5362 70.183 60.7594C70.183 62.9826 72.0019 64.8015 74.2251 64.8015C76.4482 64.8015 78.2672 62.9826 78.2672 60.7594C78.2672 58.5362 76.4482 56.7173 74.2251 56.7173ZM74.2251 62.5783C73.2145 62.5783 72.4061 61.7699 72.4061 60.7594C72.4061 59.7489 73.2145 58.9404 74.2251 58.9404C75.2356 58.9404 76.044 59.7489 76.044 60.7594C76.044 61.7699 75.2356 62.5783 74.2251 62.5783ZM65.4335 56.7173C63.2103 56.7173 61.3914 58.5362 61.3914 60.7594C61.3914 62.9826 63.2103 64.8015 65.4335 64.8015C67.6566 64.8015 69.4756 62.9826 69.4756 60.7594C69.4756 58.5362 67.6566 56.7173 65.4335 56.7173ZM65.4335 62.5783C64.4229 62.5783 63.6145 61.7699 63.6145 60.7594C63.6145 59.7489 64.4229 58.9404 65.4335 58.9404C66.444 58.9404 67.2524 59.7489 67.2524 60.7594C67.2524 61.7699 66.444 62.5783 65.4335 62.5783Z"/>
</mask>
<path d="M74.2251 54.4717C70.7617 54.4717 67.9373 57.296 67.9373 60.7594H72.4286C72.4286 59.7765 73.2421 58.9629 74.2251 58.9629V54.4717ZM67.9373 60.7594C67.9373 64.2228 70.7617 67.0471 74.2251 67.0471V62.5559C73.2421 62.5559 72.4286 61.7423 72.4286 60.7594H67.9373ZM74.2251 67.0471C77.6884 67.0471 80.5128 64.2228 80.5128 60.7594H76.0216C76.0216 61.7423 75.208 62.5559 74.2251 62.5559V67.0471ZM80.5128 60.7594C80.5128 57.296 77.6884 54.4717 74.2251 54.4717V58.9629C75.208 58.9629 76.0216 59.7765 76.0216 60.7594H80.5128ZM74.2251 60.3327C74.4548 60.3327 74.6517 60.5297 74.6517 60.7594H70.1605C70.1605 63.0102 71.9743 64.824 74.2251 64.824V60.3327ZM74.6517 60.7594C74.6517 60.9891 74.4548 61.1861 74.2251 61.1861V56.6948C71.9743 56.6948 70.1605 58.5086 70.1605 60.7594H74.6517ZM74.2251 61.1861C73.9954 61.1861 73.7984 60.9891 73.7984 60.7594H78.2896C78.2896 58.5086 76.4758 56.6948 74.2251 56.6948V61.1861ZM73.7984 60.7594C73.7984 60.5297 73.9954 60.3327 74.2251 60.3327V64.824C76.4758 64.824 78.2896 63.0102 78.2896 60.7594H73.7984ZM65.4335 54.4717C61.9701 54.4717 59.1457 57.296 59.1457 60.7594H63.637C63.637 59.7765 64.4505 58.9629 65.4335 58.9629V54.4717ZM59.1457 60.7594C59.1457 64.2228 61.9701 67.0471 65.4335 67.0471V62.5559C64.4505 62.5559 63.637 61.7423 63.637 60.7594H59.1457ZM65.4335 67.0471C68.8969 67.0471 71.7212 64.2228 71.7212 60.7594H67.23C67.23 61.7423 66.4164 62.5559 65.4335 62.5559V67.0471ZM71.7212 60.7594C71.7212 57.296 68.8969 54.4717 65.4335 54.4717V58.9629C66.4164 58.9629 67.23 59.7765 67.23 60.7594H71.7212ZM65.4335 60.3327C65.6632 60.3327 65.8601 60.5297 65.8601 60.7594H61.3689C61.3689 63.0102 63.1827 64.824 65.4335 64.824V60.3327ZM65.8601 60.7594C65.8601 60.9891 65.6632 61.1861 65.4335 61.1861V56.6948C63.1827 56.6948 61.3689 58.5086 61.3689 60.7594H65.8601ZM65.4335 61.1861C65.2038 61.1861 65.0068 60.9891 65.0068 60.7594H69.498C69.498 58.5087 67.6842 56.6948 65.4335 56.6948V61.1861ZM65.0068 60.7594C65.0068 60.5297 65.2038 60.3327 65.4335 60.3327V64.824C67.6842 64.824 69.498 63.0101 69.498 60.7594H65.0068Z" fill="#1D1D1B" mask="url(#path-1-inside-1_1_335)"/>
<path d="M96.9628 36.8089C96.9628 36.8089 61.6954 37.6173 53.6111 37.5162C53.6111 37.5162 21.9816 37.9204 17.5353 37.9204C17.5353 37.9204 7.2279 38.1226 5.20684 37.9204C5.20684 37.9204 4.70158 38.4257 5.00474 39.8405L4.90369 56.0089L8.33948 56.211H11.27L29.6616 56.5142L29.7627 58.03L29.9648 58.3331L30.0658 60.9605L30.1669 62.7794L29.8637 62.9815L29.7627 63.2847C29.7627 63.2847 29.2574 63.4868 29.2574 63.6889H31.5816L31.6827 63.4868L31.3795 63.2847L31.0764 62.7794V60.8594L31.3795 60.6573L33.1985 60.7584V61.6679C33.1985 61.6679 32.9964 61.87 32.8953 61.87C32.7943 61.7689 32.8953 62.1731 32.8953 62.1731L32.4911 62.3752L34.7143 62.5773V62.3752L34.4111 62.1731L34.3101 61.971L34.0069 61.87V60.8594L50.7817 61.0615V60.7584C50.7817 57.7268 53.308 55.2005 56.3396 55.2005C58.2596 55.2005 59.8764 56.11 60.8869 57.6257C61.8975 56.211 63.5143 55.2005 65.4343 55.2005C67.2533 55.2005 68.7691 56.0089 69.8806 57.3226C70.8912 56.0089 72.508 55.2005 74.2259 55.2005C77.2575 55.2005 79.6828 57.6257 79.7838 60.5563C80.6933 60.5563 82.9165 60.5563 82.9165 60.4552C82.9165 60.3542 83.0175 59.0405 83.0175 59.0405L89.8891 59.2426L89.9902 60.051L93.0217 60.8594L93.1228 61.1626H93.8302L95.1438 61.4657H95.8512V60.8594L95.1438 60.5563L95.2449 60.1521C95.2449 60.1521 95.9523 59.7479 95.447 59.2426L95.2449 58.4342L93.8302 58.131V57.8278L96.0533 58.2321L96.6596 57.7268L96.7607 37.6173L96.9628 37.2131L97.266 37.112V36.8089H96.9628Z" fill="#1D1D1B"/>
<mask id="path-4-inside-2_1_335" fill="white">
<path d="M56.3392 56.7173C54.116 56.7173 52.2971 58.5362 52.2971 60.7594C52.2971 62.9826 54.116 64.8015 56.3392 64.8015C58.5623 64.8015 60.3813 62.9826 60.3813 60.7594C60.3813 58.5362 58.5623 56.7173 56.3392 56.7173ZM56.3392 62.5783C55.3286 62.5783 54.5202 61.7699 54.5202 60.7594C54.5202 59.7489 55.3286 58.9404 56.3392 58.9404C57.3497 58.9404 58.1581 59.7489 58.1581 60.7594C58.1581 61.7699 57.3497 62.5783 56.3392 62.5783Z"/>
</mask>
<path d="M56.3392 54.4717C52.8758 54.4717 50.0514 57.296 50.0514 60.7594H54.5427C54.5427 59.7765 55.3562 58.9629 56.3392 58.9629V54.4717ZM50.0514 60.7594C50.0514 64.2228 52.8758 67.0471 56.3392 67.0471V62.5559C55.3562 62.5559 54.5427 61.7423 54.5427 60.7594H50.0514ZM56.3392 67.0471C59.8026 67.0471 62.6269 64.2228 62.6269 60.7594H58.1357C58.1357 61.7423 57.3221 62.5559 56.3392 62.5559V67.0471ZM62.6269 60.7594C62.6269 57.296 59.8026 54.4717 56.3392 54.4717V58.9629C57.3221 58.9629 58.1357 59.7765 58.1357 60.7594H62.6269ZM56.3392 60.3327C56.5689 60.3327 56.7658 60.5297 56.7658 60.7594H52.2746C52.2746 63.0101 54.0884 64.824 56.3392 64.824V60.3327ZM56.7658 60.7594C56.7658 60.9891 56.5689 61.1861 56.3392 61.1861V56.6948C54.0884 56.6948 52.2746 58.5087 52.2746 60.7594H56.7658ZM56.3392 61.1861C56.1095 61.1861 55.9125 60.9891 55.9125 60.7594H60.4037C60.4037 58.5087 58.5899 56.6948 56.3392 56.6948V61.1861ZM55.9125 60.7594C55.9125 60.5297 56.1095 60.3327 56.3392 60.3327V64.824C58.5899 64.824 60.4037 63.0101 60.4037 60.7594H55.9125Z" fill="#1D1D1B" mask="url(#path-4-inside-2_1_335)"/>
</svg>
