<svg width="102" height="102" viewBox="0 0 102 102" fill="none" xmlns="http://www.w3.org/2000/svg">
<path d="M14.3805 24.5817L11.6521 25.8954C7.30681 27.8154 8.31734 31.3523 8.31734 31.3523L7.91313 66.2155L7.40787 66.4176V67.7313L8.51945 70.3586L9.22682 70.5607L10.8437 73.8955C11.8542 73.8955 12.1573 73.2892 12.1573 73.2892L10.8437 66.9228L13.6731 32.0596L15.1889 31.8575L16.9068 32.5649V32.8681L25.0921 36.7081C29.7405 40.8512 47.4248 53.2807 47.4248 53.2807C48.8395 53.6849 48.9406 53.887 48.9406 53.887L56.1153 59.3439L56.3174 59.2428L59.349 61.3649L59.248 61.8702L60.3595 63.8913L63.4922 64.1944L67.4332 64.2955L67.5343 64.5986L67.9385 64.6997L68.0395 65.306H68.4438V65.9123L57.7322 65.6092C57.7322 64.9018 56.7216 65.1039 56.7216 65.1039H53.6901L53.7911 68.0344L54.0943 68.2365L54.1953 70.965C54.1953 72.3797 54.4985 72.986 54.4985 72.986L56.8227 72.7839C56.9237 72.3797 56.9237 70.0555 56.9237 70.0555L57.6311 69.146V70.3586H57.7322C57.8049 70.8639 57.9838 71.4146 58.4072 71.7289C58.3759 71.9431 58.3385 72.1574 58.3385 72.3797C58.3385 74.906 60.3595 77.0281 62.8859 77.0281C65.5132 77.0281 67.5343 74.906 67.6353 72.3797C67.6353 71.8633 67.5272 71.3702 67.3645 70.9013C69.527 70.4769 72.0817 70.5607 72.0817 70.5607L74.5069 71.066C75.4164 71.066 75.6185 70.3586 75.6185 70.3586L76.4269 70.4597L80.1022 70.8245C80.0133 71.2018 79.9668 71.5879 79.9638 71.9755C79.9638 74.805 82.1869 77.0281 85.0164 77.0281C87.664 77.0281 89.9225 74.8403 90.0559 72.218L91.1806 73.4913H94.1112L94.2122 72.885L93.707 71.2681V68.7418L94.7175 68.5397L95.0206 66.3165C95.0206 65.8113 94.7175 65.7102 94.7175 65.7102H93.2017C92.8985 65.4071 93.3027 64.8007 93.3027 64.8007L94.3133 64.4976C94.8185 61.0618 94.1112 56.8176 94.1112 56.8176C94.1112 55.807 93.5049 55.807 93.5049 55.807L88.7554 55.6049L87.947 55.3018L84.0059 55.2007C84.0059 54.8976 83.7027 54.6955 83.7027 54.6955L82.5911 54.7965C82.5911 54.5944 82.389 54.3923 82.389 54.3923L80.6711 52.5733C80.0648 52.1691 78.3469 51.6639 78.3469 51.6639V51.3607C77.4375 50.9565 74.2038 48.9354 74.2038 48.9354C74.4059 48.5312 73.9006 48.4302 73.9006 48.4302L71.7785 45.7018C71.1722 45.1965 69.3532 43.5797 69.3532 43.5797L68.4438 42.6702C68.0395 42.4681 67.8374 42.6702 67.8374 42.6702V37.0112C68.7469 36.7081 68.848 36.1017 68.848 36.1017L69.7574 34.586V33.9796L67.4332 33.7775H63.7953L58.5406 33.9796C57.8332 34.0807 57.2269 35.0912 57.2269 35.0912L56.2164 41.8618L57.3279 46.3081L57.5301 47.2176H67.029C67.5343 48.127 68.848 48.2281 68.848 48.2281C70.5659 50.1481 72.789 51.4618 72.789 51.4618L77.2354 55.2007L76.3259 56.2113L65.9174 56.0091C65.109 55.6049 65.008 53.5839 65.008 53.5839C64.7048 52.1691 63.5932 52.2702 63.5932 52.2702C62.7848 52.1691 61.4711 52.5733 61.4711 52.5733C59.248 52.7755 58.3385 51.4618 58.3385 51.4618C58.2374 51.0576 57.8332 50.4512 57.8332 50.4512V49.5418L57.7322 49.6428L57.3279 50.047H57.0248C56.6206 49.5418 55.9132 49.5418 55.9132 49.5418C55.3069 49.2386 53.9932 48.8344 53.9932 48.8344C53.3869 48.2281 52.2753 48.127 52.2753 48.127C51.5679 48.026 50.7595 47.6218 50.7595 47.6218L30.3469 34.4849L29.7405 33.8786L28.0226 32.5649C26.709 31.1502 26.0016 31.2512 26.0016 31.2512C22.8689 29.028 20.7468 28.6238 20.7468 28.6238L14.3805 24.5817ZM58.9448 35.2933H64.1995V40.9523H57.9343L58.9448 35.2933ZM65.008 35.2933H66.928C66.928 35.2933 67.3322 40.7502 66.928 41.2554C66.928 41.2554 65.7153 41.5586 65.3111 41.7607L65.008 35.2933ZM59.0458 41.2554H64.1995V43.0744L61.5722 43.6807C61.5722 43.6807 60.3595 43.7818 59.8543 43.6807C59.8543 43.6807 59.248 42.367 59.0458 41.2554ZM52.4774 54.6955C52.4774 54.6955 60.5616 56.9186 61.5722 57.0197C61.6732 57.0197 62.4816 57.3228 62.0774 58.0302L60.8648 60.7586H60.1574L59.7532 60.9607L56.9237 58.6365L57.0248 58.1313L52.4774 54.6955Z" fill="#1A1A18"/>
</svg>
