<svg width="102" height="102" viewBox="0 0 102 102" fill="none" xmlns="http://www.w3.org/2000/svg">
<g clip-path="url(#clip0_1_199)">
<path d="M95.524 69.9446C92.2175 69.9446 89.5388 72.6246 89.5388 75.9298C89.5388 79.235 92.2188 81.9151 95.524 81.9151C98.8292 81.9151 101.509 79.235 101.509 75.9298C101.509 72.6246 98.8292 69.9446 95.524 69.9446ZM95.524 78.0368C94.3601 78.0368 93.417 77.0937 93.417 75.9298C93.417 74.7659 94.3601 73.8228 95.524 73.8228C96.6879 73.8228 97.6311 74.7659 97.6311 75.9298C97.6311 77.0937 96.6879 78.0368 95.524 78.0368ZM101.142 68.5353C101.061 68.2598 100.14 65.1232 99.8793 64.5227C99.8574 64.472 99.8094 64.4378 99.7532 64.435L90.9823 63.9538C90.8713 63.9483 90.8068 63.825 90.8672 63.7304C91.2058 63.1944 92.079 61.7604 92.2298 61.0092C92.3902 60.21 92.5492 59.0913 92.5931 58.7829C92.6 58.7322 92.6328 58.6897 92.6808 58.6691L96.0724 57.2406C96.1258 57.2187 96.1601 57.1666 96.1615 57.109L96.2191 54.2014C96.2191 54.1329 96.1752 54.0739 96.108 54.0575L95.0703 53.7984C95.0113 53.7833 94.9688 53.7353 94.9606 53.675L94.8592 52.8593C94.8523 52.8086 94.8194 52.7647 94.7728 52.7442C93.8872 52.3617 85.5687 48.7659 84.6845 48.4122C83.7496 48.038 81.0051 45.7308 79.1338 44.9823C77.3393 44.2639 73.5338 43.7759 73.2295 43.7375C73.2158 43.7361 73.2034 43.732 73.1911 43.7265L52.425 34.835C52.3962 34.8227 52.3647 34.82 52.3346 34.8268L51.619 34.9927C51.5874 34.9995 51.5545 34.9968 51.5257 34.9831L31.7234 25.8956C30.1469 25.0977 28.5142 24.4287 26.9062 23.7076C25.2693 22.9728 23.6298 22.2655 22.1383 21.2483C21.1581 20.5807 20.134 19.9747 18.9729 19.6019C18.9304 19.5882 18.8852 19.595 18.8481 19.6183C18.7851 19.6594 18.7138 19.7019 18.6686 19.7623C18.1545 20.4408 17.5129 20.9851 16.8138 21.4525C16.0474 21.9653 15.7527 22.7 15.6074 23.5692C15.5197 24.0956 15.4552 24.6412 15.2469 25.1375C15.2235 25.1923 15.1687 25.2266 15.1098 25.2266C14.6231 25.2266 14.6053 25.2115 14.3201 24.973C14.1995 24.8715 14.0871 24.6974 13.9555 24.6823C13.2413 24.5987 12.6943 24.1367 12.1213 23.8845C12.0925 23.8721 12.0582 23.8694 12.028 23.8776C10.8162 24.171 9.76472 23.9009 8.8051 23.2511C8.54327 23.0729 8.23345 22.8783 8.02233 23.0647C7.62615 23.4129 7.16553 23.2662 6.75016 23.3869C5.58903 23.7241 4.43064 24.0737 3.29007 24.4712C2.7897 24.6467 2.30715 24.8043 1.77251 24.803C1.29681 24.803 0.88692 25.1334 0.756686 25.5899C0.608632 26.1094 0.556538 26.6468 0.461948 27.1732C0.455093 27.2102 0.463319 27.25 0.485253 27.2815C0.579843 27.4213 0.673063 27.5557 0.760799 27.6955C0.845793 27.8312 0.928046 27.9656 1.10352 28.0561C1.15424 28.0821 1.2173 28.0766 1.26254 28.041C1.57647 27.7983 2.10015 27.9094 2.37021 27.4775C2.43738 27.3706 2.60463 27.4268 2.73897 27.4378C3.84801 27.5255 4.95705 27.5968 6.07706 27.6736C6.11544 27.6763 6.15109 27.6941 6.17576 27.7229C6.59251 28.1904 7.09836 28.5126 7.73582 28.5921C7.93323 28.6167 8.07443 28.7155 8.217 28.8402C8.92848 29.4667 9.64408 30.0891 10.3583 30.7128C10.505 30.8403 10.5708 30.9966 10.5845 31.1967C10.6434 32.0974 10.6489 32.1193 11.5537 31.9617C11.5976 31.9535 11.6442 31.9672 11.6771 31.9973C13.2879 33.4532 14.9192 34.9269 16.4697 36.3279C16.4861 36.343 16.4998 36.3622 16.5081 36.3841C16.6369 36.7173 16.4806 37.0175 16.7014 37.2533C16.7329 37.2875 16.7809 37.304 16.8275 37.2999C17.4471 37.2354 17.9502 37.4507 18.2642 38.0196C18.2971 38.0799 18.2806 38.1567 18.2271 38.2005C17.8296 38.5241 17.3374 38.3239 16.933 38.4363C16.8988 38.4459 16.87 38.4692 16.8508 38.498C16.5451 38.9737 16.5492 39.4864 16.5862 39.995C16.6218 40.4707 16.9454 40.6243 17.3635 40.3981C17.528 40.309 17.5513 40.0718 17.8227 40.0238C18.4725 40.017 19.1826 40.117 19.8873 40.128C21.5241 40.1527 23.1527 40.3199 24.7882 40.3295C25.0006 40.3295 25.2118 40.3295 25.4242 40.3295C25.4695 40.3295 25.5133 40.3515 25.5408 40.3871C25.7423 40.6489 25.9369 40.8875 26.2317 40.9272C26.2564 40.93 26.281 40.9272 26.3043 40.919C26.828 40.7271 26.7608 40.2294 26.8691 39.8607C27.0611 39.2054 26.8897 38.9477 26.2002 38.7982C25.7478 38.6995 25.3955 38.4747 25.0116 38.2307C24.0726 37.6316 23.4324 36.7447 22.6551 35.9907C22.4316 35.7741 22.2123 35.5534 22.0053 35.3217C21.4665 34.7213 20.9922 33.0145 20.9716 32.9117C20.8359 32.2537 21.3651 31.2612 21.9683 30.7402C22.019 30.6964 22.0368 30.6251 22.0066 30.5634C21.7983 30.1288 21.3308 30.0397 21.4871 29.6422C21.7407 28.9979 22.2123 28.4632 22.7976 28.0944C23.0732 27.9203 23.3186 27.6996 23.5832 27.5063C23.6257 27.4748 23.6832 27.4707 23.7312 27.4926C24.3947 27.7942 25.039 28.0903 25.6861 28.3796C27.1022 29.0143 28.5183 29.649 29.9317 30.2892L32.912 31.6574C32.912 31.6574 32.9243 31.6628 32.9298 31.6656L47.8902 38.5337C47.9313 38.5529 47.9615 38.5885 47.9711 38.6324L48.2507 39.8072C48.2603 39.8483 48.2877 39.884 48.3261 39.9032L50.1233 40.8313C50.1699 40.8559 50.2275 40.8518 50.2714 40.823L50.6936 40.542C50.7361 40.5132 50.7896 40.5091 50.8362 40.531L73.6613 51.0799C73.749 51.1211 73.7737 51.2335 73.7106 51.3075L61.9129 65.1109C61.8416 65.1945 61.7086 65.1725 61.6675 65.0711L61.4002 64.4117C61.4002 64.4117 61.396 64.4007 61.3947 64.3953L60.9272 62.6721C60.7627 62.0634 60.3281 61.5644 59.7112 61.308C59.4659 61.2066 59.1999 61.1655 58.934 61.171L53.6369 61.2477C53.5574 61.2477 53.4929 61.3135 53.4929 61.393V66.7326C53.4929 66.8135 53.5587 66.8779 53.6383 66.8779H53.8644C53.9453 66.8779 54.0098 66.8121 54.0098 66.7326V65.8813C54.0098 65.8004 54.0756 65.7346 54.1564 65.736L58.9449 65.784C59.0244 65.784 59.0889 65.8498 59.0889 65.9293V67.3495C59.0889 67.429 59.0258 67.4934 58.9477 67.4948L54.2935 67.6237C54.2661 67.6237 54.2401 67.6333 54.2168 67.6483L52.9364 68.4942C52.8226 68.5696 52.8651 68.7464 53.0008 68.7601L53.6684 68.8328C53.7205 68.8383 53.7657 68.8712 53.7863 68.9191L53.9577 69.3098C53.9577 69.3098 53.9618 69.314 53.9618 69.3167C54.2551 69.2769 54.5526 69.255 54.857 69.255C58.3637 69.255 61.2357 71.9556 61.5139 75.3911H62.3022C62.357 75.3911 62.4064 75.4212 62.4311 75.4692L63.562 77.6228C63.8376 78.1493 64.3832 78.4783 64.9768 78.4783H78.957C79.0379 78.4783 79.1023 78.4125 79.1023 78.333V78.2507C79.1023 78.1698 79.1681 78.1054 79.2476 78.1054H81.3519C81.4067 78.1054 81.4561 78.0752 81.4808 78.0272L81.8358 77.3432C81.8605 77.2952 81.9112 77.265 81.9647 77.265H87.9513C87.9513 77.265 87.9582 77.265 87.9623 77.265L88.9616 77.1938C88.8849 76.788 88.8424 76.3685 88.8424 75.9394C88.8424 72.249 91.8336 69.2578 95.524 69.2578C97.886 69.2578 99.9602 70.4847 101.147 72.334V68.586C101.147 68.5723 101.146 68.5586 101.142 68.5463V68.5353ZM61.0821 65.0094L61.104 65.0615C61.1424 65.1575 61.0725 65.2616 60.9683 65.2616H60.8559C60.7065 65.2616 60.6544 65.0642 60.7833 64.9902L60.8737 64.9381C60.9505 64.8943 61.0492 64.9272 61.0821 65.0094ZM59.3123 65.2425C59.2904 65.2562 59.2643 65.2616 59.2383 65.2616L54.151 65.2109C54.0715 65.2109 54.007 65.1451 54.007 65.0656V61.8975C54.007 61.818 54.0715 61.7536 54.151 61.7522L58.9381 61.6837C59.3068 61.6782 59.6619 61.8057 59.9415 62.0442C60.176 62.243 60.3432 62.5062 60.4241 62.8037L60.8175 64.2499C60.8354 64.3144 60.8066 64.3815 60.7504 64.4144L59.3151 65.2438L59.3123 65.2425ZM61.126 66.0211L59.9361 67.4139C59.9086 67.4455 59.8703 67.4633 59.8291 67.4646H59.7551C59.6729 67.4688 59.6057 67.403 59.6057 67.3207V65.9265C59.6057 65.8456 59.6715 65.7812 59.751 65.7812H61.0149C61.1397 65.7812 61.2069 65.9265 61.126 66.0211ZM77.2626 65.7894C77.2626 65.8703 77.1968 65.9347 77.1173 65.9347H72.8991C72.8579 65.9347 72.8196 65.9183 72.7922 65.8881L72.1204 65.1602C72.0985 65.1369 72.0848 65.1067 72.082 65.0738L71.9751 63.9017C71.9683 63.8195 72.0286 63.7482 72.1122 63.7441C72.8799 63.7098 76.3414 63.5453 77.1104 63.5083C77.194 63.5042 77.2626 63.5714 77.2626 63.6536V65.7867V65.7894ZM83.5193 57.9521C83.4192 57.9521 83.3506 58.0508 83.3849 58.1441C83.5001 58.4676 83.6988 59.1119 83.5618 59.3874C83.3986 59.7123 80.3155 63.6193 79.5108 64.6352C79.434 64.7311 79.2805 64.6955 79.2545 64.5748L78.7842 62.4363C78.7692 62.3677 78.7075 62.3197 78.6376 62.3211L71.461 62.5021C71.3897 62.5034 71.3294 62.5583 71.3198 62.6296L71.154 63.9017C71.1512 63.9264 71.1402 63.9511 71.1252 63.9717L69.7844 65.7387C69.7844 65.7387 69.7735 65.7511 69.768 65.7565L68.8838 66.5818C68.8564 66.6065 68.8207 66.6216 68.7837 66.6216H66.3202C66.2613 66.6216 66.2092 66.6572 66.1859 66.7107C66.0968 66.919 65.8596 67.4194 65.6608 67.3701C65.4333 67.3139 65.362 65.2918 65.351 64.9313C65.351 64.8956 65.362 64.8614 65.3853 64.8339L75.9548 52.2178C75.9959 52.1684 76.0644 52.152 76.1234 52.1766C77.1611 52.6208 85.507 56.5648 85.7977 56.7019C85.8031 56.7046 85.8073 56.7074 85.8127 56.7101C85.8991 56.7691 86.7408 57.3448 86.7408 57.6409C86.7408 57.9055 84.2609 57.9453 83.5179 57.9521H83.5193ZM54.8556 69.9432C51.549 69.9432 48.8703 72.6233 48.8703 75.9284C48.8703 79.2336 51.5504 81.9137 54.8556 81.9137C58.1608 81.9137 60.8408 79.2336 60.8408 75.9284C60.8408 72.6233 58.1608 69.9432 54.8556 69.9432ZM54.8556 78.0355C53.6917 78.0355 52.7486 77.0923 52.7486 75.9284C52.7486 74.7646 53.6917 73.8214 54.8556 73.8214C56.0195 73.8214 56.9626 74.7646 56.9626 75.9284C56.9626 77.0923 56.0195 78.0355 54.8556 78.0355Z" fill="#1A1A18"/>
</g>
<defs>
<clipPath id="clip0_1_199">
<rect width="101.053" height="101.053" fill="white" transform="translate(0.456543 0.228394)"/>
</clipPath>
</defs>
</svg>
