<svg width="102" height="102" viewBox="0 0 102 102" fill="none" xmlns="http://www.w3.org/2000/svg">
<path d="M87.4015 70.2639V70.2638L87.3899 70.264L48.3901 70.6691C47.6999 70.667 46.9349 70.2351 46.2903 69.4C45.7338 68.6792 45.3767 67.7897 45.2928 66.9909C45.3767 66.1923 45.7337 65.3034 46.2901 64.583C46.9362 63.7465 47.7034 63.3147 48.3952 63.3147H48.4393L48.4833 63.3113L61.2081 62.3093L87.2723 65.3283L87.3367 65.3358H87.4015C88.3442 65.3358 89.1378 65.6228 89.6752 66.0719C90.1833 66.4966 90.5094 67.1007 90.5225 67.9004C90.5096 68.6879 90.1934 69.228 89.7099 69.6004C89.1835 70.006 88.3836 70.2639 87.4015 70.2639Z" fill="#1D1D1B" stroke="#1D1D1B" stroke-width="2.24562"/>
<mask id="path-2-inside-1_1_206" fill="white">
<path fill-rule="evenodd" clip-rule="evenodd" d="M70.9309 52.0866C70.9309 52.0866 70.8288 53.8045 70.3236 54.0066L68.8078 54.2087C68.8078 54.2087 68.3025 54.4108 68.3025 53.8045L68.2025 46.6298C68.2025 46.6298 68.2025 46.3266 68.5056 46.3266H70.0214C70.0214 46.3266 70.2235 46.2256 70.3236 46.9329V47.034C70.5267 47.5392 71.0319 50.4698 70.9309 52.0866ZM66.1814 52.895C66.1814 52.895 66.1814 53.2993 65.7762 53.2993H58.1972C58.1972 53.2993 57.794 53.0972 57.8951 52.6929C57.8951 52.6929 58.5004 49.3582 59.4109 46.9329C59.4109 46.9329 59.613 46.3266 59.9161 46.3266L65.6762 46.5287C65.6762 46.5287 66.1814 46.4277 66.1814 47.135V52.895ZM19.495 36.1203C19.495 36.1203 18.7866 36.1203 18.0803 36.4234L16.6655 33.7961L16.0592 32.4824L25.7603 33.8971L26.3656 34.0992L26.5687 34.4024L27.8814 34.7055V34.6045L36.7751 35.8171C36.674 35.7161 23.6382 36.0192 19.495 36.1203ZM11.0066 52.0866L11.3097 46.6298H11.4108L11.815 45.9224C11.815 45.9224 11.9161 45.6192 11.9161 44.5077C11.9161 44.5077 11.815 43.194 11.9161 42.6887C11.9161 42.6887 12.3203 42.8908 12.6234 42.7898C12.6234 42.7898 12.7235 43.0929 13.2287 43.3961L13.3308 44.4066C13.3308 44.4066 13.0276 44.6087 13.0276 44.9119L12.8255 45.0129V45.3161L13.0276 45.4171C13.0276 45.4171 13.0276 46.1245 13.4319 46.4277L13.9371 51.8845L11.0066 52.0866ZM12.6234 35.615L13.2287 42.1834L12.9266 42.2845C12.9266 42.2845 12.5224 41.8803 12.6234 40.1624V38.7477L12.4213 38.0403C12.4213 38.0403 12.4213 36.6255 12.6234 35.615ZM71.132 64.8193V63.6066L71.7393 63.5056V62.6972L93.0604 62.5961C93.5657 62.4951 93.7688 61.7877 93.7688 61.7877C93.6678 57.7456 93.0604 53.7035 93.0604 53.7035C93.0604 53.2993 92.5552 52.794 92.5552 52.794C92.3531 52.3898 91.8478 52.4908 91.8478 52.4908L90.332 52.3898L90.1309 52.2887H88.6151L88.311 51.5814C88.0078 50.874 86.8972 51.0761 86.8972 51.0761L86.6951 50.975C86.492 50.5708 86.1899 50.5708 86.1899 50.5708C83.4604 50.2677 80.0257 50.4698 80.0257 50.4698C79.1162 50.4698 78.6109 50.874 78.6109 50.874C78.4078 50.975 78.1057 51.3793 78.1057 51.3793H77.9025C77.4993 51.1771 77.3973 51.2782 77.3973 51.2782L76.3867 51.6824L76.1846 51.4803V51.2782C76.9941 51.1771 76.892 51.0761 76.892 51.0761V50.2677C76.892 50.1666 76.6899 50.0656 76.6899 50.0656V48.8529C77.0951 48.7519 76.892 48.4487 76.892 48.4487C75.4783 47.4382 74.1636 48.3477 74.1636 48.3477C73.7604 48.6508 74.3657 48.7519 74.3657 48.7519V49.9645C74.1636 49.9645 74.0635 50.0656 74.0635 50.0656V50.7729C74.0635 51.0761 74.6688 51.0761 74.6688 51.0761C74.8709 51.0761 74.7709 51.1771 74.7709 51.1771V51.8845H73.8604C73.8604 51.2782 73.4572 49.5603 73.4572 49.5603C72.5478 45.114 72.2446 44.6087 72.2446 44.6087C72.0425 43.6992 71.2341 43.8003 71.2341 43.8003L71.132 43.4971H70.8288V43.8003C66.2815 43.8003 59.9161 43.9013 59.9161 43.9013V43.4971C59.9161 42.8908 59.713 42.5877 59.713 42.5877C59.2078 42.2845 58.9056 42.3856 58.9056 42.3856L58.5004 42.6887L58.8046 43.194C59.0057 43.5982 59.3098 43.6992 59.3098 43.6992V43.9013C58.9056 44.0024 58.7025 44.1035 58.7025 44.1035L54.4583 39.354C53.4478 38.0403 52.8424 37.6361 52.8424 37.6361L51.2256 36.8277L49.5077 36.0192C49.0024 35.615 48.5972 35.7161 48.5972 35.7161C47.9919 34.8066 47.1835 34.4024 47.1835 34.4024C46.0709 33.695 44.253 34.3013 44.253 34.3013C43.3435 34.5034 42.333 34.2003 42.333 34.2003V34.0992L41.8277 33.9982L41.7266 34.0992L41.2214 33.9982V33.8971H40.9182V33.9982H40.8172C40.3119 33.9982 39.2003 34.3013 39.2003 34.3013L38.7961 34.4024C37.8866 34.3013 31.5203 33.2908 31.5203 33.2908C31.5203 33.1898 31.4182 33.2908 31.4182 33.2908L30.913 33.1898C30.2066 32.9876 29.7014 33.0887 29.7014 33.0887C28.7919 33.1898 28.1856 32.9876 28.1856 32.9876C28.1856 32.8866 27.8814 32.7855 27.8814 32.7855C27.2761 32.6845 26.6698 32.5834 26.6698 32.5834C26.4677 32.5834 26.3656 32.7855 26.3656 32.7855H26.0635C25.8603 32.7855 25.7603 32.9876 25.7603 32.9876L15.4529 31.4719L14.9476 31.2697C14.5434 30.3603 13.8361 30.5624 13.8361 30.5624C11.5119 31.0676 10.8045 32.7855 10.8045 32.7855C10.5013 33.695 11.2077 33.8971 11.2077 33.8971L11.1076 33.9982H10.8045C10.7024 34.0992 10.7024 34.2003 10.7024 34.2003V34.3013L10.9055 34.4024L10.8045 35.3119C10.8045 35.7161 10.9055 36.0192 10.9055 36.0192L11.1076 36.4234L11.0066 36.9287C10.8045 36.9287 10.9055 37.1308 10.9055 37.1308L11.0066 37.2319C11.1076 37.535 10.9055 37.535 10.9055 37.535C10.7024 37.535 10.7024 37.7371 10.7024 37.7371L10.8045 38.4445H10.7024V38.6466H10.8045L10.9055 39.455C10.8045 40.0613 10.9055 40.6677 10.9055 40.6677L10.6024 44.1035L10.5013 44.2045V44.7098L10.4003 44.9119V45.8214H10.6024C10.6024 46.2256 10.7024 46.5287 10.7024 46.5287L10.8045 46.6298L10.5013 51.4803C10.5013 52.0866 10.2992 52.1877 10.2992 52.1877C9.4908 52.0866 9.38975 52.4908 9.38975 52.4908C8.88448 52.9961 9.38975 53.2993 9.38975 53.2993V53.4003C9.59185 53.4003 9.59185 53.6024 9.59185 53.6024L10.5013 57.0382C9.79396 58.0487 9.28869 58.9582 9.28869 58.9582C8.98553 59.5645 9.28869 60.0698 9.28869 60.0698H9.4908C9.59185 60.1708 9.59185 60.474 9.59185 60.474L9.4908 60.6761V61.0803H9.59185C9.79396 61.1814 9.59185 61.7877 9.59185 61.7877C9.28869 62.7982 8.88448 63.0003 8.88448 63.0003L8.37922 63.5056C7.67084 64.6172 7.7729 65.7288 7.7729 65.7288C7.7729 66.133 7.67084 66.234 7.67084 66.234C7.67084 66.7393 7.7729 67.1435 7.7729 67.1435C7.97501 67.2445 8.07606 67.3456 8.07606 67.3456C8.1761 67.6488 8.07606 67.8509 8.07606 67.8509C8.37922 68.3561 8.58132 68.5582 8.58132 68.5582H8.78343L9.08659 68.8614V68.9624L9.38975 69.2656L9.79396 69.5688C10.0971 69.4677 10.2992 69.6698 10.2992 69.6698C10.4003 69.7709 10.4003 69.8719 10.4003 69.8719L11.2077 70.1751C11.6129 70.1751 11.815 70.2761 11.815 70.2761V70.3772L12.4213 70.4782C12.9266 70.5793 13.1287 70.3772 13.1287 70.3772C13.4319 70.2761 13.5329 70.4782 13.5329 70.4782C14.0382 70.5793 14.4424 70.3772 14.4424 70.3772L15.0487 70.2761L15.1498 70.3772C15.9582 70.3772 16.5645 70.1751 16.5645 70.1751V70.4782L18.0803 70.3772L18.2814 70.5793L20.6066 70.7814C21.9203 70.6803 22.2235 70.3772 22.2235 70.3772C22.7287 70.3772 23.1329 70.1751 23.1329 70.1751C23.334 70.074 23.8393 69.973 23.8393 69.973C24.1435 69.973 24.6487 69.6698 24.6487 69.6698C24.9519 69.6698 25.3551 69.4677 25.3551 69.4677C25.5582 69.3666 25.3551 69.1645 25.3551 69.1645L24.6487 68.9624L23.0319 68.5582L22.9308 68.053C17.8782 65.1224 17.6761 60.7772 17.6761 60.7772C17.6761 60.2719 17.3729 60.1708 17.3729 60.1708L16.9687 59.9687L17.0698 59.6656C17.2709 59.3624 17.3729 59.1603 17.3729 59.1603C17.3729 58.2508 16.6655 58.1498 16.6655 58.1498C16.7656 57.9477 16.6655 57.7456 16.6655 57.7456C17.2709 57.4424 17.1708 56.9372 17.1708 56.9372C17.474 56.2298 17.1708 55.7245 17.1708 55.7245C17.1708 55.4214 17.3729 54.8151 17.3729 54.8151L18.0803 49.8635L19.1919 41.6782C19.1919 41.274 19.394 40.5666 19.394 40.5666L20.1013 40.6677C20.7077 40.8698 22.6277 41.0719 22.6277 41.0719C23.234 41.1729 29.1961 41.6782 29.1961 41.6782L44.354 43.0929C47.7898 43.5982 49.9119 44.9119 49.9119 44.9119L51.7309 48.4487L51.6288 48.5498L51.7309 49.1561V49.4593L52.034 50.1666H52.2361L52.4372 50.6719L52.7414 50.7729L54.9635 54.9161C54.7625 55.7245 54.8635 57.4424 54.8635 57.4424C54.8635 59.4635 55.5709 59.2614 55.5709 59.2614L55.773 60.6761C55.6709 62.6972 56.6814 62.394 56.6814 62.394L59.3098 62.5961L59.4109 63.5056H59.8151L71.132 64.8193Z"/>
</mask>
<path fill-rule="evenodd" clip-rule="evenodd" d="M70.9309 52.0866C70.9309 52.0866 70.8288 53.8045 70.3236 54.0066L68.8078 54.2087C68.8078 54.2087 68.3025 54.4108 68.3025 53.8045L68.2025 46.6298C68.2025 46.6298 68.2025 46.3266 68.5056 46.3266H70.0214C70.0214 46.3266 70.2235 46.2256 70.3236 46.9329V47.034C70.5267 47.5392 71.0319 50.4698 70.9309 52.0866ZM66.1814 52.895C66.1814 52.895 66.1814 53.2993 65.7762 53.2993H58.1972C58.1972 53.2993 57.794 53.0972 57.8951 52.6929C57.8951 52.6929 58.5004 49.3582 59.4109 46.9329C59.4109 46.9329 59.613 46.3266 59.9161 46.3266L65.6762 46.5287C65.6762 46.5287 66.1814 46.4277 66.1814 47.135V52.895ZM19.495 36.1203C19.495 36.1203 18.7866 36.1203 18.0803 36.4234L16.6655 33.7961L16.0592 32.4824L25.7603 33.8971L26.3656 34.0992L26.5687 34.4024L27.8814 34.7055V34.6045L36.7751 35.8171C36.674 35.7161 23.6382 36.0192 19.495 36.1203ZM11.0066 52.0866L11.3097 46.6298H11.4108L11.815 45.9224C11.815 45.9224 11.9161 45.6192 11.9161 44.5077C11.9161 44.5077 11.815 43.194 11.9161 42.6887C11.9161 42.6887 12.3203 42.8908 12.6234 42.7898C12.6234 42.7898 12.7235 43.0929 13.2287 43.3961L13.3308 44.4066C13.3308 44.4066 13.0276 44.6087 13.0276 44.9119L12.8255 45.0129V45.3161L13.0276 45.4171C13.0276 45.4171 13.0276 46.1245 13.4319 46.4277L13.9371 51.8845L11.0066 52.0866ZM12.6234 35.615L13.2287 42.1834L12.9266 42.2845C12.9266 42.2845 12.5224 41.8803 12.6234 40.1624V38.7477L12.4213 38.0403C12.4213 38.0403 12.4213 36.6255 12.6234 35.615ZM71.132 64.8193V63.6066L71.7393 63.5056V62.6972L93.0604 62.5961C93.5657 62.4951 93.7688 61.7877 93.7688 61.7877C93.6678 57.7456 93.0604 53.7035 93.0604 53.7035C93.0604 53.2993 92.5552 52.794 92.5552 52.794C92.3531 52.3898 91.8478 52.4908 91.8478 52.4908L90.332 52.3898L90.1309 52.2887H88.6151L88.311 51.5814C88.0078 50.874 86.8972 51.0761 86.8972 51.0761L86.6951 50.975C86.492 50.5708 86.1899 50.5708 86.1899 50.5708C83.4604 50.2677 80.0257 50.4698 80.0257 50.4698C79.1162 50.4698 78.6109 50.874 78.6109 50.874C78.4078 50.975 78.1057 51.3793 78.1057 51.3793H77.9025C77.4993 51.1771 77.3973 51.2782 77.3973 51.2782L76.3867 51.6824L76.1846 51.4803V51.2782C76.9941 51.1771 76.892 51.0761 76.892 51.0761V50.2677C76.892 50.1666 76.6899 50.0656 76.6899 50.0656V48.8529C77.0951 48.7519 76.892 48.4487 76.892 48.4487C75.4783 47.4382 74.1636 48.3477 74.1636 48.3477C73.7604 48.6508 74.3657 48.7519 74.3657 48.7519V49.9645C74.1636 49.9645 74.0635 50.0656 74.0635 50.0656V50.7729C74.0635 51.0761 74.6688 51.0761 74.6688 51.0761C74.8709 51.0761 74.7709 51.1771 74.7709 51.1771V51.8845H73.8604C73.8604 51.2782 73.4572 49.5603 73.4572 49.5603C72.5478 45.114 72.2446 44.6087 72.2446 44.6087C72.0425 43.6992 71.2341 43.8003 71.2341 43.8003L71.132 43.4971H70.8288V43.8003C66.2815 43.8003 59.9161 43.9013 59.9161 43.9013V43.4971C59.9161 42.8908 59.713 42.5877 59.713 42.5877C59.2078 42.2845 58.9056 42.3856 58.9056 42.3856L58.5004 42.6887L58.8046 43.194C59.0057 43.5982 59.3098 43.6992 59.3098 43.6992V43.9013C58.9056 44.0024 58.7025 44.1035 58.7025 44.1035L54.4583 39.354C53.4478 38.0403 52.8424 37.6361 52.8424 37.6361L51.2256 36.8277L49.5077 36.0192C49.0024 35.615 48.5972 35.7161 48.5972 35.7161C47.9919 34.8066 47.1835 34.4024 47.1835 34.4024C46.0709 33.695 44.253 34.3013 44.253 34.3013C43.3435 34.5034 42.333 34.2003 42.333 34.2003V34.0992L41.8277 33.9982L41.7266 34.0992L41.2214 33.9982V33.8971H40.9182V33.9982H40.8172C40.3119 33.9982 39.2003 34.3013 39.2003 34.3013L38.7961 34.4024C37.8866 34.3013 31.5203 33.2908 31.5203 33.2908C31.5203 33.1898 31.4182 33.2908 31.4182 33.2908L30.913 33.1898C30.2066 32.9876 29.7014 33.0887 29.7014 33.0887C28.7919 33.1898 28.1856 32.9876 28.1856 32.9876C28.1856 32.8866 27.8814 32.7855 27.8814 32.7855C27.2761 32.6845 26.6698 32.5834 26.6698 32.5834C26.4677 32.5834 26.3656 32.7855 26.3656 32.7855H26.0635C25.8603 32.7855 25.7603 32.9876 25.7603 32.9876L15.4529 31.4719L14.9476 31.2697C14.5434 30.3603 13.8361 30.5624 13.8361 30.5624C11.5119 31.0676 10.8045 32.7855 10.8045 32.7855C10.5013 33.695 11.2077 33.8971 11.2077 33.8971L11.1076 33.9982H10.8045C10.7024 34.0992 10.7024 34.2003 10.7024 34.2003V34.3013L10.9055 34.4024L10.8045 35.3119C10.8045 35.7161 10.9055 36.0192 10.9055 36.0192L11.1076 36.4234L11.0066 36.9287C10.8045 36.9287 10.9055 37.1308 10.9055 37.1308L11.0066 37.2319C11.1076 37.535 10.9055 37.535 10.9055 37.535C10.7024 37.535 10.7024 37.7371 10.7024 37.7371L10.8045 38.4445H10.7024V38.6466H10.8045L10.9055 39.455C10.8045 40.0613 10.9055 40.6677 10.9055 40.6677L10.6024 44.1035L10.5013 44.2045V44.7098L10.4003 44.9119V45.8214H10.6024C10.6024 46.2256 10.7024 46.5287 10.7024 46.5287L10.8045 46.6298L10.5013 51.4803C10.5013 52.0866 10.2992 52.1877 10.2992 52.1877C9.4908 52.0866 9.38975 52.4908 9.38975 52.4908C8.88448 52.9961 9.38975 53.2993 9.38975 53.2993V53.4003C9.59185 53.4003 9.59185 53.6024 9.59185 53.6024L10.5013 57.0382C9.79396 58.0487 9.28869 58.9582 9.28869 58.9582C8.98553 59.5645 9.28869 60.0698 9.28869 60.0698H9.4908C9.59185 60.1708 9.59185 60.474 9.59185 60.474L9.4908 60.6761V61.0803H9.59185C9.79396 61.1814 9.59185 61.7877 9.59185 61.7877C9.28869 62.7982 8.88448 63.0003 8.88448 63.0003L8.37922 63.5056C7.67084 64.6172 7.7729 65.7288 7.7729 65.7288C7.7729 66.133 7.67084 66.234 7.67084 66.234C7.67084 66.7393 7.7729 67.1435 7.7729 67.1435C7.97501 67.2445 8.07606 67.3456 8.07606 67.3456C8.1761 67.6488 8.07606 67.8509 8.07606 67.8509C8.37922 68.3561 8.58132 68.5582 8.58132 68.5582H8.78343L9.08659 68.8614V68.9624L9.38975 69.2656L9.79396 69.5688C10.0971 69.4677 10.2992 69.6698 10.2992 69.6698C10.4003 69.7709 10.4003 69.8719 10.4003 69.8719L11.2077 70.1751C11.6129 70.1751 11.815 70.2761 11.815 70.2761V70.3772L12.4213 70.4782C12.9266 70.5793 13.1287 70.3772 13.1287 70.3772C13.4319 70.2761 13.5329 70.4782 13.5329 70.4782C14.0382 70.5793 14.4424 70.3772 14.4424 70.3772L15.0487 70.2761L15.1498 70.3772C15.9582 70.3772 16.5645 70.1751 16.5645 70.1751V70.4782L18.0803 70.3772L18.2814 70.5793L20.6066 70.7814C21.9203 70.6803 22.2235 70.3772 22.2235 70.3772C22.7287 70.3772 23.1329 70.1751 23.1329 70.1751C23.334 70.074 23.8393 69.973 23.8393 69.973C24.1435 69.973 24.6487 69.6698 24.6487 69.6698C24.9519 69.6698 25.3551 69.4677 25.3551 69.4677C25.5582 69.3666 25.3551 69.1645 25.3551 69.1645L24.6487 68.9624L23.0319 68.5582L22.9308 68.053C17.8782 65.1224 17.6761 60.7772 17.6761 60.7772C17.6761 60.2719 17.3729 60.1708 17.3729 60.1708L16.9687 59.9687L17.0698 59.6656C17.2709 59.3624 17.3729 59.1603 17.3729 59.1603C17.3729 58.2508 16.6655 58.1498 16.6655 58.1498C16.7656 57.9477 16.6655 57.7456 16.6655 57.7456C17.2709 57.4424 17.1708 56.9372 17.1708 56.9372C17.474 56.2298 17.1708 55.7245 17.1708 55.7245C17.1708 55.4214 17.3729 54.8151 17.3729 54.8151L18.0803 49.8635L19.1919 41.6782C19.1919 41.274 19.394 40.5666 19.394 40.5666L20.1013 40.6677C20.7077 40.8698 22.6277 41.0719 22.6277 41.0719C23.234 41.1729 29.1961 41.6782 29.1961 41.6782L44.354 43.0929C47.7898 43.5982 49.9119 44.9119 49.9119 44.9119L51.7309 48.4487L51.6288 48.5498L51.7309 49.1561V49.4593L52.034 50.1666H52.2361L52.4372 50.6719L52.7414 50.7729L54.9635 54.9161C54.7625 55.7245 54.8635 57.4424 54.8635 57.4424C54.8635 59.4635 55.5709 59.2614 55.5709 59.2614L55.773 60.6761C55.6709 62.6972 56.6814 62.394 56.6814 62.394L59.3098 62.5961L59.4109 63.5056H59.8151L71.132 64.8193Z" fill="#1D1D1B" stroke="#1D1D1B" stroke-width="4.49124" mask="url(#path-2-inside-1_1_206)"/>
</svg>
