<svg width="102" height="102" viewBox="0 0 102 102" fill="none" xmlns="http://www.w3.org/2000/svg">
<path d="M68.4317 30.29C63.9412 30.2758 58.883 31.3559 58.883 31.3559H53.1218L52.9205 30.9513L51.4047 30.748C50.192 30.0406 49.5849 30.9513 49.5849 30.9513C48.3723 30.7492 47.6665 31.1526 47.6665 31.1526H44.1297L43.9264 52.9796C43.6232 52.4743 43.3204 52.9796 43.3204 52.9796L42.9158 53.0823V52.7783H41.9053V52.4743H41.0981V53.2835H40.3895V54.598H39.379V52.6776H38.2678L38.3685 63.4895L19.877 63.5901C17.957 63.5901 17.856 63.7934 17.856 63.7934C20.1802 64.2987 29.0724 64.5 29.0724 64.5C31.6998 64.6011 38.2678 64.3994 38.2678 64.3994V66.1165C36.0446 66.1165 12.3987 66.2191 12.3987 66.2191C9.67027 66.2191 9.77173 66.6217 9.77173 66.6217C11.2875 67.0259 20.179 67.3303 20.179 67.3303C25.6358 67.4313 38.5718 67.2296 38.5718 67.2296L39.2783 66.9257H40.3895L40.7941 66.7244H42.006L42.3099 66.2191L42.4106 66.4204H42.7363C42.5938 65.835 42.5109 65.228 42.5109 64.6007C42.5111 60.3211 46.0134 56.8196 50.293 56.8204C54.5716 56.8209 58.0725 60.3219 58.073 64.6007C58.0732 65.5465 57.8942 66.4504 57.5816 67.2907C57.8891 67.3516 58.1738 67.4309 58.1738 67.4309C58.578 68.2394 58.1738 69.756 58.1738 69.756C58.1738 70.5644 59.3874 69.8566 59.3874 69.8566C59.6906 69.1492 59.5888 67.7349 59.5888 67.7349L80.1036 68.2402C80.509 68.2131 80.8625 68.2313 81.1752 68.2698C80.8794 67.5058 80.7096 66.6802 80.7094 65.8152C80.7088 62.0373 83.8038 58.9423 87.5818 58.9426C89.302 58.9431 90.8766 59.5899 92.0857 60.6461C92.4713 58.6688 92.5318 56.821 92.5318 56.821C92.6328 53.6884 92.0265 51.6678 92.0265 51.6678C91.7233 49.7478 90.4099 49.6468 90.4099 49.6468C89.0962 48.8383 86.4682 48.2315 86.4682 48.2315L82.5289 39.8432C79.3963 33.0727 75.1514 31.759 75.1514 31.759C75.0503 30.8495 74.7468 30.7485 74.7468 30.7485C74.0394 30.3443 73.6354 30.8511 73.6354 30.8511C73.2312 31.0532 73.0295 30.8511 73.0295 30.8511V30.6477H72.6258L72.5251 30.7483C71.363 30.4198 69.9286 30.2946 68.4317 30.29ZM76.062 34.0835C76.062 34.0835 78.4872 35.1951 81.1146 40.6519C81.1146 40.6519 83.2367 44.9964 84.1462 47.4217L78.385 49.8474C78.385 49.8474 76.6683 38.3277 76.062 34.0835ZM53.5383 34.3796C53.7677 34.3725 54.0325 34.3749 54.3356 34.3875V35.5993C54.3356 35.5993 54.2342 36.3059 55.4468 36.3059H55.8514V36.6098C55.8514 36.6098 54.4363 36.4069 54.4363 37.3164C54.4363 37.3164 54.2337 38.8322 55.0422 38.8322L56.1533 39.2368L52.1112 52.0717C51.9091 52.2738 51.5065 51.7678 51.2034 51.7678L51.1007 51.5665H50.6981V51.7678C50.6981 51.7678 49.7878 51.9699 49.8889 52.7783C49.8889 52.7783 49.7886 53.5859 50.6981 53.9901C50.6981 53.9901 51.1023 54.6979 50.6981 54.9C50.6981 54.9 49.2826 54.7993 48.8784 55.3046C48.8784 55.3046 49.1807 38.126 49.0797 37.0144V36.9138C49.0797 36.9138 48.8775 36.3071 49.5849 36.0039C49.5849 36.0039 51.4043 35.398 52.0106 34.8927C52.0106 34.8927 51.9329 34.4279 53.5383 34.3796ZM69.2902 35.398C69.2902 35.398 71.0093 36.1042 71.0093 36.2052C71.0093 36.3063 71.8165 44.2894 71.8165 44.2894C71.8165 44.2894 70.1997 45.806 69.7955 46.6145H64.9462C64.9462 46.6145 64.1369 46.5122 64.1369 46.9164L63.531 47.0191L63.1264 46.6145C63.1264 46.6145 63.126 45.7038 62.7218 45.9059C62.7218 45.9059 62.1159 46.0073 62.6211 46.8158V47.2204L62.4198 47.4217V47.7256L62.6211 48.2309L63.0257 48.5349L63.9356 48.1303H64.2376L65.7534 49.5454C65.7534 49.5454 63.7335 49.5442 63.9356 50.3526C63.9356 50.3526 63.9344 50.7564 64.2376 50.9585V51.7678L63.531 52.0717V52.6776L63.6317 53.5875H63.835C63.835 53.5875 63.2283 54.2941 63.4304 54.7993L63.9356 55.9105C63.9356 55.9105 62.8236 57.4267 57.4678 56.8204L54.3356 56.2145C54.3356 56.2145 54.336 55.6074 54.7402 54.9L56.0527 52.577L56.256 52.4743C56.256 52.4743 58.075 49.7475 59.2876 47.0191V46.8158L59.5896 46.4111C59.5896 46.4111 59.9946 45.6043 60.3988 45.5033C60.3988 45.5033 61.5108 45.9059 61.8139 45.9059C61.8139 45.9059 62.1163 45.7042 61.51 45.3L60.3988 44.6941C60.3988 44.6941 59.9942 44.0873 59.4889 44.2894L58.6797 43.8848C58.6797 43.8848 58.7811 43.5833 59.0843 43.4822C59.0843 43.4822 59.4889 43.2801 58.9836 42.977C58.9836 42.977 58.3777 42.673 58.3777 43.1783C58.3777 43.1783 58.4784 43.8852 57.9731 43.7842L58.1744 42.4717C58.1744 42.4717 58.3773 41.6633 57.4678 41.4612L57.5685 40.8532L57.4678 40.7526L58.0738 38.6309C58.0738 38.6309 58.6809 38.4292 59.3882 36.5092C59.3882 36.5092 59.7929 37.1143 60.2981 35.8006L61.3087 35.5993C61.3087 35.5993 61.7129 36.206 63.3297 36.0039L68.5837 35.8006C68.5837 35.8006 68.9871 35.6001 69.2902 35.398ZM50.2935 58.3362C49.4707 58.336 48.6559 58.4979 47.8957 58.8127C47.1355 59.1274 46.4447 59.5888 45.8628 60.1705C45.2809 60.7522 44.8193 61.4429 44.5043 62.203C44.1893 62.9631 44.0271 63.7779 44.027 64.6007C44.0269 65.4236 44.1888 66.2386 44.5037 66.9989C44.8186 67.7593 45.2801 68.4502 45.8621 69.0321C46.444 69.614 47.1349 70.0756 47.8952 70.3905C48.6556 70.7053 49.4705 70.8673 50.2935 70.8671C51.1163 70.867 51.931 70.7049 52.6911 70.3899C53.4513 70.0749 54.1419 69.6133 54.7236 69.0314C55.3053 68.4495 55.7667 67.7587 56.0815 66.9985C56.3962 66.2382 56.5581 65.4235 56.558 64.6007C56.5578 62.9393 55.8977 61.346 54.7229 60.1712C53.5481 58.9965 51.9549 58.3364 50.2935 58.3362ZM87.5824 60.4579C86.8789 60.4578 86.1823 60.5963 85.5324 60.8654C84.8824 61.1346 84.2919 61.5291 83.7945 62.0266C83.297 62.524 82.9025 63.1145 82.6333 63.7645C82.3642 64.4144 82.2257 65.111 82.2258 65.8145C82.2261 67.2349 82.7906 68.597 83.7952 69.6011C84.7997 70.6053 86.162 71.1693 87.5824 71.1691C89.0024 71.1688 90.3642 70.6045 91.3683 69.6004C92.3724 68.5963 92.9367 67.2345 92.937 65.8145C92.9372 64.3941 92.3732 63.0318 91.369 62.0273C90.3648 61.0227 89.0028 60.4582 87.5824 60.4579ZM50.2935 61.0638C51.2315 61.0638 52.1311 61.4364 52.7944 62.0997C53.4577 62.763 53.8303 63.6626 53.8303 64.6007C53.8303 65.5387 53.4577 66.4383 52.7944 67.1016C52.1311 67.7649 51.2315 68.1375 50.2935 68.1375C49.3555 68.1375 48.4559 67.7649 47.7926 67.1016C47.1293 66.4383 46.7566 65.5387 46.7566 64.6007C46.7566 63.6626 47.1293 62.763 47.7926 62.0997C48.4559 61.4364 49.3555 61.0638 50.2935 61.0638ZM87.5824 63.3888C88.2254 63.3893 88.8419 63.645 89.2964 64.0999C89.7509 64.5548 90.0062 65.1715 90.0061 65.8145C90.0062 66.4575 89.7509 67.0742 89.2964 67.5291C88.8419 67.984 88.2254 68.2397 87.5824 68.2402C87.2638 68.2402 86.9484 68.1775 86.6541 68.0556C86.3597 67.9338 86.0923 67.7551 85.8671 67.5298C85.6418 67.3046 85.4631 67.0371 85.3413 66.7428C85.2194 66.4485 85.1567 66.1331 85.1567 65.8145C85.1567 65.4959 85.2194 65.1805 85.3413 64.8862C85.4631 64.5919 85.6418 64.3244 85.8671 64.0992C86.0923 63.8739 86.3597 63.6952 86.6541 63.5734C86.9484 63.4515 87.2638 63.3888 87.5824 63.3888Z" fill="#1D1D1B"/>
</svg>
