<svg width="102" height="102" viewBox="0 0 102 102" fill="none" xmlns="http://www.w3.org/2000/svg">
<path d="M70.9843 49.7521C75.365 49.7521 79.3745 51.7568 82.0474 54.8752C82.3444 54.8752 82.5672 54.801 82.7899 54.801C83.2354 54.801 83.0869 54.207 83.0869 54.207C81.9732 52.3508 80.4882 50.8658 80.4882 50.8658L81.2307 50.5688C81.3049 50.1233 81.1564 49.9006 81.1564 49.9006C80.711 48.8611 80.3397 48.7126 80.3397 48.7126L79.226 48.6383C79.1517 48.5641 79.0775 48.4156 79.0775 48.4156C77.2213 46.8563 74.1028 46.4109 74.1028 46.4109H72.0238L70.4646 37.9465V37.4267C70.9843 37.4267 70.9843 36.9812 70.9843 36.9812L71.3556 37.3525C71.7268 37.5752 71.8011 37.3525 71.8011 37.3525L72.2466 36.3872C72.2466 35.6448 71.5783 35.6448 71.5783 35.6448L72.2466 34.7538C72.3208 34.3083 71.8753 34.3825 71.8753 34.3825L70.1676 34.4568H69.7221L62.223 34.828C60.2183 34.9765 56.2088 35.3478 53.3131 35.6448V35.1993H53.3873L53.4616 34.6795C54.1298 34.6053 54.2041 34.3083 54.1298 34.1598C54.0556 34.0113 53.9071 33.8628 53.9071 33.8628V33.046C53.9071 33.046 53.9071 32.2293 53.0903 32.2293C52.0509 32.2293 52.1994 33.046 52.1994 33.046V33.937C52.1251 34.0113 52.0509 34.1598 52.0509 34.1598C51.8281 34.828 52.6449 34.6795 52.6449 34.6795L52.7191 35.2735H52.8676V35.719C51.0856 35.8675 49.8234 36.016 49.8234 36.016C49.6749 36.4615 49.8234 37.7237 49.8234 37.7237L47.1504 46.2624C42.4728 46.1139 38.7603 46.0396 35.8646 46.0396V44.7774H37.2753V31.6353C37.2753 31.6353 37.4238 31.1156 36.7556 31.1156H35.8646V26.8834C35.8646 26.7349 35.7161 26.5864 35.7161 26.5864L33.6371 23.4679C33.5629 23.2452 33.4144 23.3194 33.4144 23.3194H33.0431C32.7461 23.3194 32.6719 23.6907 32.6719 23.9134V24.7302C32.6719 24.8787 32.7461 24.9529 32.7461 24.9529L34.1569 26.8091V31.0413H33.2659C32.5976 31.0413 32.7461 31.5611 32.7461 31.5611V44.8516H34.1569V46.1139C31.5582 46.1139 29.6277 46.1881 28.2912 46.2624V45.6684C30.5929 45.2971 30.4444 43.6636 30.4444 43.6636C30.4444 42.6242 29.4049 42.2529 28.1427 42.2529H26.5835C25.3212 42.2529 24.2818 42.6984 24.2818 43.6636C24.2818 45.0744 25.544 45.5199 26.435 45.6684V46.3366C25.0985 46.4851 24.5788 46.5594 24.2818 46.6336C23.3165 46.7078 23.3165 47.8216 23.3165 47.8216V51.1628L24.7273 56.4345L24.8758 56.5087C25.9152 56.2117 27.029 56.0632 28.1427 56.0632C34.4539 56.0632 39.577 61.1864 39.577 67.4976V67.5718L42.1758 67.6461L42.4728 69.9478H47.3732L48.3384 69.8735V72.2495C48.3384 72.2495 48.3384 72.5465 48.7097 72.5465H53.9813C53.9813 72.5465 54.1298 72.5465 54.1298 72.2495L54.2041 69.2795H57.3225C56.8028 67.7203 56.5058 66.0868 56.5058 64.3791C56.4316 56.286 62.9655 49.7521 70.9843 49.7521ZM62.9655 37.6495L68.1629 37.501C68.1629 37.501 68.3114 37.4267 68.3856 37.7237L69.8706 45.9654C69.8706 45.9654 69.9449 46.4109 69.4251 46.4851L64.3019 46.7821C64.3019 46.7821 64.0049 46.8563 63.9307 46.2624L62.8912 37.8722C62.817 37.798 62.817 37.6495 62.9655 37.6495ZM50.4174 47.7473C51.1599 43.5151 51.8281 38.6147 52.2736 38.392C52.2736 38.392 56.2831 37.8722 61.1835 37.7237L62.3715 46.7078C59.4015 46.7821 58.362 48.1928 58.065 48.7126H50.3431C50.3431 48.4156 50.4174 48.1186 50.4174 47.7473ZM54.3526 58.0679L50.9371 58.2164C50.9371 58.2164 50.5659 58.2907 50.4916 57.6967C50.4174 57.2512 50.0461 54.207 50.1946 50.94H57.0255C55.8376 53.8358 54.3526 58.0679 54.3526 58.0679Z" fill="#1A1A18"/>
<path d="M70.9842 50.4214C63.2623 50.4214 57.0254 56.6584 57.0254 64.3803C57.0254 72.1021 63.2623 78.339 70.9842 78.339C78.7061 78.339 84.943 72.1021 84.943 64.3803C84.943 56.6584 78.7061 50.4214 70.9842 50.4214ZM70.9842 72.9189C66.2322 72.9189 62.3713 69.0579 62.3713 64.306C62.3713 59.5541 66.2322 55.6931 70.9842 55.6931C75.7361 55.6931 79.597 59.5541 79.597 64.306C79.597 69.0579 75.7361 72.9189 70.9842 72.9189Z" fill="#1A1A18"/>
<path d="M70.9851 62.5973C70.0199 62.5973 69.2031 63.4141 69.2031 64.3793C69.2031 65.3445 70.0199 66.1613 70.9851 66.1613C71.9504 66.1613 72.7671 65.3445 72.7671 64.3793C72.7671 63.4141 71.9504 62.5973 70.9851 62.5973ZM28.1435 56.7317C22.2036 56.7317 17.3774 61.5578 17.3774 67.4978C17.3774 73.4377 22.2036 78.2639 28.1435 78.2639C34.0834 78.2639 38.9096 73.4377 38.9096 67.4978C38.9096 61.5578 34.0834 56.7317 28.1435 56.7317ZM28.1435 73.9574C24.5795 73.9574 21.6838 71.0617 21.6838 67.4978C21.6838 63.9338 24.5795 61.0381 28.1435 61.0381C31.7074 61.0381 34.6031 63.9338 34.6031 67.4978C34.5289 71.0617 31.6332 73.9574 28.1435 73.9574Z" fill="#1A1A18"/>
<path d="M28.1434 65.0484C26.8069 65.0484 25.6932 66.1622 25.6932 67.4986C25.6932 68.8351 26.8069 69.9489 28.1434 69.9489C29.4799 69.9489 30.5936 68.8351 30.5936 67.4986C30.5194 66.1622 29.4799 65.0484 28.1434 65.0484Z" fill="#1A1A18"/>
</svg>
