<svg width="102" height="102" viewBox="0 0 102 102" fill="none" xmlns="http://www.w3.org/2000/svg">
<path d="M98.6865 41.9659L97.676 42.3701V42.168L95.5539 42.6732L95.3518 42.5722C90.8044 43.8859 84.7413 46.5132 84.7413 46.5132L84.5392 46.3111L85.2465 45.6038L84.8423 43.7848L88.8844 41.3595L88.7834 41.0564H88.4802L88.2781 40.6522L87.4697 40.8543L86.9644 39.4395L87.6718 38.9343C88.2781 38.5301 87.6718 38.6311 87.6718 38.6311L86.6613 36.4079C87.1665 36.1048 86.9644 36.1048 86.9644 36.1048C86.6613 36.2058 85.9539 36.7111 85.9539 36.7111L85.3476 36.2058L85.9539 35.3974L85.3476 34.0837H85.1455C85.1455 33.4774 84.7413 33.6795 84.7413 33.6795C84.236 33.6795 84.4381 34.2858 84.4381 34.2858L83.9328 34.589C83.6297 34.589 83.5286 34.4879 83.5286 34.4879C70.6949 39.3385 62.4086 43.5827 62.4086 43.5827C62.3075 43.4816 63.0149 40.1469 63.0149 40.1469C63.3181 39.1364 63.4191 38.0248 63.4191 38.0248L63.0149 37.2164H57.5581L57.3559 36.9132C56.9517 36.7111 56.3454 37.1153 56.3454 37.1153H55.2338V37.6206H53.718V38.5301H55.2338L55.3349 39.1364L56.3454 39.2374L55.7391 46.4122C55.7391 46.4122 53.4149 47.6248 53.5159 47.4227C53.5159 47.2206 53.4149 45.0985 53.4149 45.0985L54.0212 44.8964V44.2901L53.9202 44.088H53.3138V44.2901L53.0107 44.088L50.0802 43.9869L49.777 44.2901V48.8374C49.1707 48.4332 48.7665 49.1406 48.7665 49.1406C48.7665 49.1406 47.4528 49.0396 47.3517 49.1406C47.2507 49.2417 45.6338 49.949 45.4317 50.0501C45.3307 50.0501 34.7201 48.4332 34.7201 48.4332C34.1138 48.2311 33.7096 48.7364 33.7096 48.7364L20.5727 41.3595L13.9032 37.8227C13.1959 37.4185 11.579 36.7111 11.579 36.7111C10.0632 36.4079 9.86114 37.1153 9.86114 37.1153C9.25482 37.2164 8.24429 37.0143 8.24429 37.0143C7.23376 37.0143 6.9306 38.429 6.9306 38.429C6.42534 38.5301 6.62745 38.9343 6.62745 38.9343C6.62745 39.1364 7.53692 39.4395 7.53692 39.4395L10.0632 41.6627L10.2653 41.4606L15.7222 43.5827L15.8232 43.9869L16.7327 44.5932C16.6317 45.1995 17.339 45.3006 17.339 45.3006C17.7433 45.3006 17.8443 44.9974 17.8443 44.9974L18.8548 44.8964L27.8485 49.6459L26.6359 50.1511L26.5348 49.949H7.23376L5.61692 49.3427L2.18112 53.1827L2.78744 53.4859L2.88849 54.9006H3.59586V66.9259H3.19165C3.19165 67.128 3.39376 67.128 3.39376 67.128H4.70744C5.21271 67.128 5.11165 66.9259 5.11165 66.9259H4.80849V62.3785H6.52639V66.4206H7.73903C8.04218 66.3196 7.94113 66.0164 7.94113 66.0164H7.63797V62.3785L23.7054 62.4796L24.3117 63.8943H25.5243C26.737 63.7933 28.5559 62.5806 28.5559 62.5806L33.8106 64.2985V65.5112C33.6085 65.6122 33.7096 65.8143 33.7096 65.8143H34.9222C34.9222 65.6122 34.8212 65.4101 34.8212 65.208C34.8212 63.6922 36.0338 62.4796 37.5496 62.4796H57.3559C58.7707 62.4796 59.8823 63.4901 60.0844 64.9048L61.0949 64.8038C63.5202 64.1975 68.2697 62.6817 68.2697 62.6817C68.6739 62.4796 68.7749 62.0754 68.7749 62.0754L74.2318 54.5975C76.3539 53.688 82.6191 51.0606 82.6191 51.0606L83.0234 51.3638L84.6402 50.6564C84.7413 50.5553 84.6402 50.4543 84.6402 50.4543C84.7413 50.0501 85.2465 50.4543 85.2465 50.4543C85.4486 50.3532 85.4486 49.7469 85.4486 49.7469L90.0971 47.8269L95.3518 45.0985L96.6655 44.9974C96.8676 44.8964 97.1708 44.3911 97.1708 44.3911C97.4739 44.3911 97.7771 44.088 97.7771 44.088L99.1918 43.2795L98.6865 41.9659ZM32.1938 56.4164L31.6885 57.2248L29.2633 54.9006H27.0401L26.9391 52.8796L28.3538 50.0501L31.5875 51.768C31.5875 51.768 31.4864 52.3743 32.0928 52.4753L32.598 52.9806H34.3159L36.6401 54.1932L32.1938 56.4164ZM35.2254 60.2564L34.518 59.6501L40.8843 56.6185L42.4001 57.3259L35.2254 60.2564ZM44.8254 54.9006L47.0486 53.8901C47.0486 53.8901 48.6654 55.8101 48.6654 57.0227L44.8254 54.9006ZM64.2275 60.5596C64.2275 60.5596 64.1265 60.9638 63.3181 61.0648L62.0044 61.368V59.9533C62.0044 59.9533 63.3181 59.1448 63.7223 59.2459C63.7223 59.2459 64.5307 60.0543 64.2275 60.5596ZM62.1054 48.4332L61.8023 47.928V46.7153C61.8023 46.7153 64.6318 45.4016 64.5307 45.5027C64.5307 45.6038 65.2381 47.1195 65.2381 47.1195L62.1054 48.4332ZM67.1581 59.9533C67.1581 59.9533 67.1581 60.3575 65.7433 58.2354C65.7433 58.2354 68.3707 56.8206 69.2802 56.7196C69.2802 56.7196 68.977 57.528 67.1581 59.9533ZM84.3371 40.0459L84.4381 37.8227L85.1455 37.5195L86.0549 39.6416L84.4381 40.5511L84.3371 40.0459Z" fill="#1D1D1B"/>
<path d="M57.356 63.0857H37.5497C36.3371 63.0857 35.4276 63.9952 35.4276 65.2078C35.4276 66.4205 36.3371 67.3299 37.5497 67.3299H57.356C58.5687 67.3299 59.4781 66.4205 59.4781 65.2078C59.4781 63.9952 58.5687 63.0857 57.356 63.0857ZM37.8528 66.5215C37.1455 66.5215 36.5392 65.9152 36.5392 65.2078C36.5392 64.5005 37.1455 63.8941 37.8528 63.8941C38.5602 63.8941 39.1665 64.5005 39.1665 65.2078C39.1665 65.9152 38.5602 66.5215 37.8528 66.5215ZM57.255 66.5215C56.5476 66.5215 55.9413 65.9152 55.9413 65.2078C55.9413 64.5005 56.5476 63.8941 57.255 63.8941C57.9624 63.8941 58.5687 64.5005 58.5687 65.2078C58.5687 65.9152 57.9624 66.5215 57.255 66.5215Z" fill="#1D1D1B"/>
</svg>
