<svg width="102" height="102" viewBox="0 0 102 102" fill="none" xmlns="http://www.w3.org/2000/svg">
<path d="M50.8999 63.9922H52.2136C52.2136 63.9922 52.4157 64.5986 52.4157 64.6996C52.4157 64.8007 54.0326 64.9017 54.0326 64.9017H54.2347C54.6389 65.7101 55.0431 66.1144 55.0431 66.1144L56.1547 66.6196L56.2557 66.1144H57.7715L57.8726 66.3165H58.5799L58.782 66.6196H59.7926L59.8936 66.8217L60.4999 66.7207L60.601 66.4175L61.4094 66.0133C62.622 66.0133 65.2494 66.3165 65.2494 66.3165L65.5526 65.9123L66.0578 65.8112C67.0684 66.2154 67.3715 65.9123 67.3715 65.9123C67.8768 65.508 68.9884 63.1838 68.9884 63.1838H73.0305L90.9168 64.0933C93.3421 64.0933 94.2516 63.2849 94.2516 63.2849C95.3632 62.5775 95.2621 61.567 95.2621 61.567L95.3632 59.748L95.6663 59.5459V59.1417C95.6663 58.3333 96.7779 56.8175 96.7779 56.8175L96.8789 55.5038C97.7884 51.7649 97.4853 48.3291 97.4853 48.3291C97.4853 47.0154 96.3737 46.9143 96.3737 46.9143C93.4431 46.207 91.9274 46.6112 91.9274 46.6112C90.1084 45.8027 82.9337 43.0743 82.9337 43.0743C81.9231 42.5691 80.6094 42.5691 80.6094 42.5691C80.0031 42.2659 74.5463 40.1438 74.5463 40.1438C74.3442 37.8196 72.7273 37.2133 72.7273 37.2133C70.7063 36.4048 64.8452 36.5059 64.8452 36.5059L42.1083 27.5122V27.4111L41.6031 27.108L41.2999 27.3101H40.9967L40.7946 27.4111L40.5925 27.3101L40.2894 27.5122L40.0873 27.3101C39.9862 26.8048 39.582 26.8048 39.582 26.8048C38.9757 26.7038 38.2683 27.5122 38.2683 27.5122L37.1567 28.1185L36.9546 28.5227C36.7525 28.6238 36.5504 29.028 36.5504 29.028L32.5083 27.5122C32.3062 27.5122 32.2052 27.8154 32.2052 27.8154H32.003C31.4978 27.7143 31.6999 28.0175 31.6999 28.0175C31.4978 28.2196 31.6999 28.3206 31.6999 28.3206L26.0409 34.3838C26.142 33.5754 25.8388 33.5754 25.8388 33.5754V33.0701C25.9399 32.5648 25.7378 32.4638 25.7378 32.4638C25.3336 32.3627 25.3336 32.6659 25.3336 32.6659V33.1711L23.8178 32.4638C24.5251 32.5648 24.323 32.3627 24.323 32.3627C24.323 32.0596 23.6157 32.1606 23.6157 32.1606C23.2115 32.0596 22.8072 31.9585 22.8072 31.9585V31.4533C22.8072 30.948 22.302 30.7459 22.302 30.7459C22.2009 30.4427 21.6957 30.2406 21.6957 30.2406L21.5946 29.5332C21.5946 28.9269 21.1904 29.028 21.1904 29.028C20.8872 29.028 20.9883 29.4322 20.9883 29.4322V29.9375L19.9778 29.5332C19.3714 29.4322 19.2704 29.8364 19.2704 29.8364V31.7564L19.1693 31.9585C19.1693 32.2617 19.0683 32.3627 19.0683 32.3627V32.5648C19.0683 33.2722 19.3714 34.5859 19.3714 34.5859L19.5736 39.1333C19.5736 40.1438 19.8767 40.1438 19.8767 40.1438L20.2809 40.3459V40.9522C20.382 41.4575 19.8767 41.4575 19.8767 41.4575H18.9672C18.7651 41.3564 5.62827 41.6596 5.62827 41.6596C5.22405 41.6596 5.123 41.8617 5.123 41.8617C6.23458 41.9627 14.622 42.1648 14.622 42.1648C16.542 42.1648 20.9883 42.0638 20.9883 42.0638C21.2914 41.9627 21.3925 41.5585 21.3925 41.5585V40.7501L23.1104 41.4575V42.0638C23.1104 42.468 22.6051 42.468 22.6051 42.468L9.26617 42.5691C9.26617 42.6701 9.56932 42.6701 9.56932 42.6701C9.97354 42.6701 17.7546 42.9733 17.7546 42.9733H23.4136C24.0199 42.9733 24.0199 42.468 24.0199 42.468C24.0199 41.6596 24.1209 41.7606 24.1209 41.7606C25.0304 42.1648 26.142 41.7606 26.142 41.7606V41.0533L27.0515 40.8512C27.8599 40.447 27.4557 39.5375 27.4557 39.5375L29.4767 36.9101C29.6788 36.708 29.8809 36.809 29.8809 36.809C30.083 36.6069 30.1841 36.708 30.1841 36.708L30.5883 36.2027L31.3967 35.7985L31.4978 35.8996C31.8009 35.7985 32.1041 35.3943 32.1041 35.3943L34.5294 34.1817C35.5399 33.4743 36.3483 33.1711 36.3483 33.1711L36.0452 33.5754L36.2473 33.6764L36.4494 33.8785C36.6515 34.0806 36.5504 34.2827 36.5504 34.2827L37.8641 34.788V34.6869L38.0662 35.0912V35.2933L39.8852 36.0006L40.0873 35.4954C40.1883 35.0912 40.3904 35.1922 40.3904 35.1922C40.5925 35.2933 40.6936 35.3943 40.6936 35.3943C40.7946 35.7985 41.6031 36.0006 41.6031 36.0006L44.2304 37.1122C44.5336 37.2133 44.8367 37.5164 44.8367 37.5164C45.1399 38.0217 45.5441 38.0217 45.5441 38.0217C45.9483 37.9206 46.2515 37.5164 46.2515 37.5164L46.6557 37.7185C46.2515 38.3248 46.7568 38.628 46.7568 38.628C46.8578 39.0322 47.3631 38.9312 47.3631 38.9312L48.2725 38.7291C48.7778 38.5269 48.8789 38.7291 48.8789 38.7291L49.5862 39.1333V39.3354L49.7883 39.4364L49.8894 39.3354L53.7294 40.8512L53.8304 40.9522L54.7399 41.6596C53.9315 42.8722 52.921 44.5901 52.921 44.5901L52.7189 44.4891L52.4157 44.388L52.3147 44.5901L52.4157 44.6912C52.1126 45.4996 51.6073 46.8133 51.6073 46.8133L51.4052 47.0154C51.001 47.7228 50.3947 50.8554 50.3947 50.8554C50.1925 51.3607 50.3947 51.5628 50.3947 51.5628V51.967L50.6978 52.068L50.7989 52.2701L50.1925 54.9986L49.081 55.3017C47.0599 53.988 45.241 53.887 45.241 53.887V53.6849L45.342 53.5838C45.342 53.1796 45.241 52.8764 45.241 52.8764H45.0389C44.8368 52.8764 44.8367 52.6743 44.8367 52.6743H44.6346L44.5336 52.8764L44.4325 52.5733C44.5336 51.5628 44.4325 50.8554 44.4325 50.8554H44.2304C44.3315 51.0575 44.1294 52.2701 44.1294 52.2701H43.8262V52.068L43.321 52.1691L43.422 48.0259H43.6241C44.0283 47.2175 44.4325 46.308 44.4325 46.308C44.5336 45.9038 44.1294 45.8028 44.1294 45.8028C43.9273 45.7017 43.8262 45.9038 43.8262 45.9038L43.1189 47.6217C42.9167 48.0259 43.2199 48.127 43.2199 48.127L43.0178 52.068C42.7146 51.967 42.7146 52.2701 42.7146 52.2701C42.5125 52.2701 42.3104 52.5733 42.3104 52.5733C42.2094 52.3712 42.0073 52.1691 42.0073 52.1691C41.502 51.6638 41.0978 51.967 41.0978 51.967C40.9967 52.1691 40.9967 52.6743 40.9967 52.6743H40.7946C40.6936 52.4722 40.2894 52.4722 40.2894 52.4722L39.8852 52.5733C39.7841 52.3712 39.3799 51.8659 39.3799 51.8659C38.8746 51.1585 38.3694 51.6638 38.3694 51.6638C38.1673 52.8764 38.5715 53.988 38.5715 53.988H39.1778C39.481 53.887 39.9862 53.0786 39.9862 53.0786H40.3904C40.5925 53.4828 40.3904 54.3922 40.3904 54.3922C37.3588 55.0996 35.8431 56.3122 35.8431 56.3122C35.1357 56.7165 36.0452 56.9186 36.0452 56.9186C37.4599 57.1207 37.5609 56.9186 37.5609 56.9186L38.3694 56.5143C39.4809 56.7165 39.6831 56.1101 39.6831 56.1101L40.1883 56.2112V56.7165C36.7525 57.4238 34.8325 60.2533 34.8325 60.2533L33.923 60.8596H31.4978V61.4659L30.5883 61.567C29.982 61.567 29.7799 61.8701 29.7799 61.8701C28.8704 62.1733 29.0725 63.0828 29.0725 63.0828C28.9715 63.2849 28.8704 63.7901 28.8704 63.7901C28.163 63.8912 27.8599 64.3965 27.8599 64.3965C27.5567 64.9017 28.163 65.508 28.163 65.508L27.1525 67.0238L27.2536 67.7312C27.0515 68.1354 27.1525 68.6407 27.1525 68.6407L26.243 70.4596L24.222 71.6723C23.9188 71.7733 23.8178 72.1775 23.8178 72.1775C23.8178 72.6828 24.222 72.986 24.222 72.986C24.222 73.1881 24.8283 73.7944 24.8283 73.7944L24.1209 74.5017L22.7062 74.6028C22.403 74.8049 22.7062 75.3102 22.7062 75.3102L28.5672 75.5123L30.083 74.5017C30.5883 74.1986 30.5883 73.7944 30.5883 73.7944C30.5883 73.1881 30.083 73.2891 30.083 73.2891L28.7694 73.087C29.6788 71.3691 31.8009 68.1354 31.8009 68.1354L33.5188 67.9333L50.8999 63.9922ZM66.462 49.8449L54.6389 50.3501V46.207L57.8726 39.1333C57.8726 39.1333 58.3778 38.3248 59.8936 38.2238C59.8936 38.2238 64.3399 37.7185 66.5631 38.0217V49.8449H66.462ZM74.1421 49.3396L68.0789 49.7438V37.9206C68.0789 37.3143 68.4831 37.5164 68.4831 37.5164L71.7168 37.7185C72.7273 37.8196 73.2326 39.0322 73.2326 39.0322C74.8494 44.7922 74.1421 49.3396 74.1421 49.3396ZM74.7484 51.7649C74.7484 51.7649 75.3547 51.1585 75.1526 49.3396C75.1526 49.3396 77.6789 50.5522 78.8915 50.4512L81.721 51.5628C81.8221 51.5628 79.2958 51.967 74.7484 51.7649Z" fill="#1D1D1B"/>
<path d="M42.209 73.8919C46.897 73.8919 50.6974 70.0915 50.6974 65.4034C50.6974 60.7154 46.897 56.915 42.209 56.915C37.5209 56.915 33.7205 60.7154 33.7205 65.4034C33.7205 70.0915 37.5209 73.8919 42.209 73.8919Z" fill="#1D1D1B"/>
<path d="M42.2086 74.4998C37.156 74.4998 33.1139 70.3566 33.1139 65.4051C33.1139 60.4535 37.257 56.3103 42.2086 56.3103C47.1602 56.3103 51.3034 60.4535 51.3034 65.4051C51.3034 70.3566 47.1602 74.4998 42.2086 74.4998ZM42.2086 57.5229C37.8634 57.5229 34.3265 61.0598 34.3265 65.4051C34.3265 69.7503 37.8634 73.2872 42.2086 73.2872C46.5539 73.2872 50.0907 69.7503 50.0907 65.4051C50.0907 61.0598 46.5539 57.5229 42.2086 57.5229Z" fill="#1D1D1B"/>
<path d="M42.2087 73.8967C46.8967 73.8967 50.6971 70.0963 50.6971 65.4083C50.6971 60.7202 46.8967 56.9198 42.2087 56.9198C37.5206 56.9198 33.7202 60.7202 33.7202 65.4083C33.7202 70.0963 37.5206 73.8967 42.2087 73.8967Z" fill="#1D1D1B"/>
<path d="M42.2095 69.249C44.3302 69.249 46.0495 67.5298 46.0495 65.409C46.0495 63.2883 44.3302 61.569 42.2095 61.569C40.0887 61.569 38.3695 63.2883 38.3695 65.409C38.3695 67.5298 40.0887 69.249 42.2095 69.249Z" fill="#1D1D1B"/>
<path d="M81.7223 73.8919C86.4103 73.8919 90.2107 70.0915 90.2107 65.4034C90.2107 60.7154 86.4103 56.915 81.7223 56.915C77.0342 56.915 73.2338 60.7154 73.2338 65.4034C73.2338 70.0915 77.0342 73.8919 81.7223 73.8919Z" fill="#1D1D1B"/>
<path d="M81.7219 74.4998C76.6693 74.4998 72.6272 70.3566 72.6272 65.4051C72.6272 60.4535 76.7703 56.3103 81.7219 56.3103C86.6735 56.3103 90.8167 60.4535 90.8167 65.4051C90.8167 70.3566 86.7746 74.4998 81.7219 74.4998ZM81.7219 57.5229C77.3766 57.5229 73.8398 61.0598 73.8398 65.4051C73.8398 69.7503 77.3766 73.2872 81.7219 73.2872C86.0672 73.2872 89.604 69.7503 89.604 65.4051C89.604 61.0598 86.0672 57.5229 81.7219 57.5229Z" fill="#1D1D1B"/>
<path d="M81.7212 73.8967C86.4092 73.8967 90.2096 70.0963 90.2096 65.4083C90.2096 60.7202 86.4092 56.9198 81.7212 56.9198C77.0331 56.9198 73.2327 60.7202 73.2327 65.4083C73.2327 70.0963 77.0331 73.8967 81.7212 73.8967Z" fill="#1D1D1B"/>
<path d="M81.721 69.249C83.8418 69.249 85.561 67.5298 85.561 65.409C85.561 63.2883 83.8418 61.569 81.721 61.569C79.6002 61.569 77.881 63.2883 77.881 65.409C77.881 67.5298 79.6002 69.249 81.721 69.249Z" fill="#1D1D1B"/>
</svg>
