<svg width="102" height="102" viewBox="0 0 102 102" fill="none" xmlns="http://www.w3.org/2000/svg">
<path fill-rule="evenodd" clip-rule="evenodd" d="M25.2293 39.1364L24.9261 45.1995C24.9261 45.1995 25.0272 46.3111 23.9156 46.3111L14.3156 47.0185L14.7198 43.5827C14.7198 43.5827 15.225 44.088 15.6292 43.2795L16.4377 38.6311C16.4377 38.6311 15.8314 38.328 15.9324 38.1258L24.6229 38.0248C24.6229 37.9237 25.3303 37.8227 25.2293 39.1364ZM90.5094 67.8354L90.4083 66.9259H90.9136V64.9048C90.2062 64.6017 82.4251 63.4901 82.4251 63.4901L80.4041 63.0859C79.5957 62.9848 78.6862 62.4796 78.6862 62.4796C77.5746 62.2775 77.5746 62.8838 77.5746 62.8838H75.5536C73.8357 62.5806 72.4209 62.8838 72.4209 62.8838H71.6125C71.8146 62.7827 71.9157 62.5806 71.9157 62.5806H73.0272C75.9578 62.6817 75.8567 62.3785 75.8567 62.3785C74.9472 61.7722 71.9157 61.368 71.9157 61.368L65.7514 60.8627C65.2462 60.9638 65.2462 61.1659 65.2462 61.1659L64.943 61.368L64.842 61.9743L65.8525 62.0754C66.4588 62.1764 66.5599 62.3785 66.5599 62.3785H64.943L57.4651 62.4796L57.1619 62.2775L53.524 62.3785C51.7051 62.5806 44.6314 62.3785 44.6314 62.3785L44.7325 61.2669L46.6525 61.0648C46.9556 53.8901 46.2482 44.6943 46.2482 44.6943C45.844 38.9343 44.8335 34.4879 44.8335 34.4879L45.0356 34.2858L44.4293 32.1637C44.1261 31.3553 43.2167 31.1532 43.2167 31.1532C43.1156 29.8395 42.7114 27.8185 42.7114 27.8185C42.6103 26.909 42.2061 26.7069 42.2061 26.7069L42.7114 26.6058L42.004 24.2816C41.7009 23.069 40.9935 23.5742 40.9935 23.5742L38.164 24.3827C27.8566 26.2016 19.9745 31.5574 19.9745 31.5574C17.9535 31.6585 15.3261 32.0627 15.3261 32.0627C14.2145 32.4669 13.8103 34.3869 13.8103 34.3869C13.1029 33.7806 13.0019 34.0837 13.0019 34.0837C12.1935 34.3869 12.9008 36.0037 12.9008 36.0037C11.6882 37.0143 10.6777 38.3279 10.6777 38.3279C10.2734 38.7322 10.6777 38.9343 10.6777 38.9343L12.4966 39.9448L11.1829 49.0395C9.46502 49.3427 9.66713 50.0501 9.66713 50.0501C9.26292 54.4964 9.26292 58.7406 9.26292 58.7406C9.16187 59.8522 10.0713 59.9532 10.0713 59.9532H11.0819V60.5596C10.1724 60.9638 10.2734 61.7722 10.2734 61.7722V63.6922C10.2734 64.1975 10.4756 64.2985 10.4756 64.2985V66.4206H10.1724V67.9364L10.0713 68.0375C9.56608 68.5427 9.86924 70.3617 9.86924 70.3617C10.0713 71.3722 11.284 71.8775 11.284 71.8775C13.8103 73.1912 18.0545 73.4943 18.0545 73.4943C18.8629 73.3933 18.964 72.6859 18.964 72.6859L19.1661 71.0691C19.2055 71.0175 19.252 70.971 19.3045 70.9286C19.6976 67.0118 23.0586 63.9671 27.0432 64.0469C29.0864 64.0833 30.9933 64.9119 32.4121 66.3822C33.7217 67.7394 34.4625 69.4936 34.5413 71.3611L36.5472 71.4733C36.7493 72.2817 36.8503 73.9996 36.8503 73.9996L71.7136 74.1006C71.8146 73.8985 72.0167 72.2817 72.0167 72.2817L72.7241 72.4838L73.4315 72.3827V71.6754C73.4315 67.7343 76.5641 64.6017 80.5051 64.6017C84.4462 64.6017 87.5788 67.7343 87.5788 71.6754C87.5788 72.0796 87.5788 72.4838 87.4778 72.888H87.781C88.1852 74.2017 87.781 75.0101 87.781 75.0101C88.6904 76.2227 90.2062 76.728 90.2062 76.728C90.7115 76.0206 90.8125 74.707 90.8125 74.707V72.2817C90.8125 72.1806 91.1157 72.3827 91.1157 72.3827L91.2168 72.1806L91.5199 72.3827V72.1806H91.8231C91.722 71.6754 91.621 70.6648 91.621 70.6648L90.6104 70.3617V69.9575L91.2168 70.1596L92.0252 70.2606H92.4294V68.5427C91.8231 68.3406 90.5094 67.8354 90.5094 67.8354ZM80.5048 74.7066C78.888 74.7066 77.5753 73.393 77.5753 71.7771C77.5753 70.1593 78.888 68.8456 80.5048 68.8456C82.1227 68.8456 83.4354 70.1593 83.4354 71.7771C83.4354 73.393 82.1227 74.7066 80.5048 74.7066ZM80.5048 65.3087C76.968 65.3087 74.0385 68.2403 74.0385 71.7771C74.0385 75.314 76.968 78.2435 80.5048 78.2435C84.0417 78.2435 86.9722 75.314 86.9722 71.7771C86.9722 68.2403 84.0417 65.3087 80.5048 65.3087ZM26.9474 74.7066C25.3305 74.7066 24.0168 73.393 24.0168 71.7771C24.0168 70.1593 25.3305 68.8456 26.9474 68.8456C28.5642 68.8456 29.8779 70.1593 29.8779 71.7771C29.8779 73.393 28.5642 74.7066 26.9474 74.7066ZM26.9474 65.3087C23.4105 65.3087 20.48 68.2403 20.48 71.7771C20.48 75.314 23.4105 78.2435 26.9474 78.2435C30.4842 78.2435 33.4147 75.314 33.4147 71.7771C33.4147 68.2403 30.4842 65.3087 26.9474 65.3087Z" fill="#1D1D1B"/>
</svg>
