<svg width="102" height="102" viewBox="0 0 102 102" fill="none" xmlns="http://www.w3.org/2000/svg">
<path fill-rule="evenodd" clip-rule="evenodd" d="M54.0682 43.7819L51.1376 43.984L51.4408 32.565H53.765L54.9776 40.245L54.0682 43.7819ZM49.925 43.7819C49.925 43.7819 49.925 44.3882 47.9039 44.3882L44.3671 44.6914C44.3671 44.6914 44.0639 44.6914 44.165 42.165V33.2724C44.165 33.2724 44.165 32.7671 44.3671 32.565H50.1271C50.1271 32.565 50.3292 32.464 50.3292 33.7777L49.925 43.7819ZM40.9313 44.9945L37.5965 45.7019C37.5965 45.7019 37.3944 40.0429 39.0113 32.565H41.4366L40.9313 44.9945ZM93.984 58.0314C93.984 58.0314 94.6914 58.1314 94.5903 58.7377C94.5903 58.7377 94.0851 60.2535 93.984 60.8598L84.6871 66.4177L81.6556 66.2156L81.9587 65.8114L81.2514 65.5082H80.1701C80.4045 64.6018 80.544 63.656 80.544 62.6788C80.544 56.4135 75.3903 51.2598 69.125 51.2598C62.8598 51.2598 57.7061 56.4135 57.7061 62.6788C57.7061 63.2063 57.7546 63.7216 57.8263 64.2299L57.2008 64.1946H55.4829L55.2808 64.2956C55.2808 64.2956 50.1271 64.2956 49.1166 63.9925V63.6893C49.1166 63.6893 48.9145 63.5893 48.8134 63.4872C48.7124 63.4872 48.8134 62.2746 48.8134 62.2746H47.9039C47.9039 62.2746 47.1966 62.6788 45.4787 62.1735V61.6682C45.4787 61.6682 45.4787 61.3651 45.8829 61.264C45.8829 61.264 46.2871 60.8598 45.4787 60.9609L44.5692 61.163L44.266 61.9714H43.1545L42.9524 65.7103C42.9524 65.7103 42.7502 66.3167 41.8408 66.3167L40.1229 66.2156C40.1229 66.2156 40.0218 66.5188 39.0113 66.7209L37.0913 67.2261L36.586 67.9335L35.8261 67.8567C37.6804 65.678 38.8092 62.8556 38.8092 59.7482C38.8092 56.8319 37.8098 54.1701 36.1545 52.0531L37.1923 52.0682C37.1923 52.0682 38.1018 51.0577 38.506 50.6535C38.506 50.6535 37.7987 49.2387 37.4955 48.9356C37.4955 48.9356 37.0913 47.6219 37.3944 46.1061C37.3944 46.1061 37.1923 38.7293 38.8092 32.565H38.3039L37.8997 31.2513L38.1018 31.0492C38.1018 31.0492 37.7987 30.645 38.9102 29.9377L40.7292 29.7356L40.6281 29.1292C40.6281 29.1292 40.1229 29.0282 40.1229 28.5229C40.1229 28.5229 40.0218 27.6134 40.9313 27.5124C40.9313 27.5124 41.9418 27.5124 41.9418 28.4219C41.9418 28.4219 42.1439 28.725 41.8408 29.0282C41.8408 29.0282 41.6387 29.2303 41.4366 29.2303L41.2345 29.8366H56.2913C56.2913 29.8366 58.0092 30.645 58.3124 31.1503L59.1208 31.5545L58.6155 32.9692H58.4134C58.4134 32.9692 58.6155 33.3735 58.4134 33.5756C58.4134 33.5756 58.4134 34.485 58.7166 35.5966L60.0303 40.7503L60.1313 41.6598H60.4345C60.4345 41.6598 69.7313 42.7714 79.6345 47.6219L80.3419 43.4787C80.3419 43.4787 80.3419 43.2766 80.8472 43.2766C80.8472 43.2766 80.645 40.7503 82.6661 40.245C82.6661 40.245 83.0703 40.3461 82.6661 41.1545C82.6661 41.1545 81.9587 41.7608 81.9587 42.3672V43.2766C81.9587 43.2766 82.6661 43.1756 82.6661 43.7819V48.9356L88.5272 51.664C88.5272 51.664 89.0324 51.8661 89.1335 52.7756L91.3566 53.9892C91.3566 53.9892 91.6598 53.7861 91.963 55.403L92.3672 57.6261L93.984 58.0314ZM13.7482 59.748C13.7482 61.9399 14.309 63.9912 15.2882 65.7748L14.6577 65.7101L11.9292 63.9923V63.7901C11.9292 63.7901 11.6261 63.2849 11.9292 63.0838L9.90819 62.1733C9.90819 62.1733 9.40292 62.0733 9.30187 59.5469L7.98818 58.9396C7.98818 58.9396 7.28081 57.0206 8.69555 52.068C8.69555 52.068 8.5945 51.6638 10.0092 51.8659L16.5787 51.775C14.8062 53.9345 13.7482 56.7063 13.7482 59.748ZM69.1254 67.4286C66.4465 67.4286 64.2739 65.257 64.2739 62.5781C64.2739 59.8992 66.4465 57.7266 69.1254 57.7266C71.8033 57.7266 73.976 59.8992 73.976 62.5781C73.976 65.257 71.8033 67.4286 69.1254 67.4286ZM69.1254 51.7655C75.0966 51.7655 79.9371 56.6059 79.9371 62.5781C79.9371 68.5493 75.0966 73.3898 69.1254 73.3898C63.1532 73.3898 58.3128 68.5493 58.3128 62.5781C58.3128 56.6059 63.1532 51.7655 69.1254 51.7655ZM26.2786 48.2286C32.6965 48.2286 37.8997 53.4308 37.8997 59.8497C37.8997 66.2686 32.6965 71.4708 26.2786 71.4708C19.8608 71.4708 14.6576 66.2686 14.6576 59.8497C14.6576 53.4308 19.8608 48.2286 26.2786 48.2286Z" fill="#1D1D1B"/>
</svg>
