<svg width="102" height="102" viewBox="0 0 102 102" fill="none" xmlns="http://www.w3.org/2000/svg">
<path fill-rule="evenodd" clip-rule="evenodd" d="M71.2411 42.672H70.9369L71.039 42.3688H68.9158V37.4172C68.9158 37.4172 68.8158 36.8109 69.22 36.8109H71.2411V42.672ZM65.8843 41.9646L64.6726 42.0657C64.6726 42.0657 64.1674 41.9646 64.0653 41.5604V35.2951C64.0653 35.2951 64.1674 34.8909 64.3685 34.8909L65.8843 34.992C65.8843 34.992 66.0864 35.1941 66.0864 35.9015L66.2895 41.1562C66.2895 41.1562 66.1884 41.8636 65.8843 41.9646ZM61.4389 42.1667C61.4389 42.1667 57.5989 42.773 57.0937 42.3688V41.1562L56.9916 40.6509L57.0937 35.4972C57.0937 35.4972 57.2948 34.992 58.0021 34.8909L61.6411 35.093C61.6411 35.093 62.2474 34.992 62.2474 36.0025L62.0443 41.5604C62.1463 41.5604 62.3474 42.0657 61.4389 42.1667ZM55.2737 33.8804C55.2737 33.8804 54.6684 33.6783 54.8705 34.2846C54.8705 34.2846 54.7685 34.992 55.2737 34.8909V35.1941L55.0726 43.1773L53.96 43.6825H51.7379L54.1631 33.6783H55.2737V33.8804ZM31.3252 47.9267L30.82 46.7141L35.1652 46.512L35.4684 47.8257L31.3252 47.9267ZM35.2653 48.3309C35.2653 48.3309 31.9315 49.6446 31.3252 50.7562C31.3252 50.7562 31.0221 49.1394 31.3252 48.432L35.2653 48.2299V48.3309ZM98.7264 56.6173V55.0004C98.7264 53.9899 98.0201 53.8889 98.0201 53.8889C97.3127 53.7878 94.3812 53.4846 94.3812 53.4846L92.5632 45.6025L92.7653 45.2994C91.2495 44.4909 88.4201 44.1878 88.4201 44.1878L79.1232 43.3794V40.9541C79.1232 40.3478 79.4263 40.1457 79.4263 40.1457C79.6285 39.8425 79.7285 39.2362 79.7285 39.2362H79.4263V39.0341L79.0211 39.1351H78.82C77.8095 39.7415 78.0106 41.0551 78.0106 41.0551V43.2783L71.5442 42.773V37.013C71.7463 36.6088 71.3421 36.6088 71.3421 36.6088C70.8369 36.6088 69.118 36.5078 69.118 36.5078C68.7148 36.6088 68.6127 37.1141 68.6127 37.1141V42.5709L67.9053 42.9752C67.9053 42.773 67.5021 42.9752 67.5021 42.9752L66.9969 33.8804L67.3 33.6783C67.3 33.2741 66.8948 32.8699 66.8948 32.8699L55.6789 32.5667L54.1631 32.8699C53.6579 32.8699 53.6579 33.2741 53.6579 33.2741L53.5568 34.992L52.1421 40.5499L51.939 40.6509L50.9284 43.8846L50.7274 44.7941L51.1316 45.0973L50.8284 46.4109L51.2326 50.4531L53.86 51.0594V51.5646L52.1421 52.0699C50.121 50.5541 50.3231 49.0383 50.3231 49.0383L50.5252 47.8257C50.7274 45.6025 50.121 45.1983 50.121 45.1983C49.3126 43.3794 47.6958 43.3794 47.6958 43.3794L47.4937 43.1773L46.8863 43.4804L46.9884 42.3688C47.0895 41.8636 45.7758 41.8636 45.7758 41.8636L45.6747 42.1667H45.4726L45.0684 41.7625C45.6747 41.7625 45.5737 41.2573 45.5737 41.2573V39.3372C45.5737 38.832 43.9568 39.0341 43.9568 39.0341V39.3372L44.1589 40.9541L44.0579 41.2573C43.6537 41.3583 44.0579 41.8636 44.0579 41.8636L45.2705 43.8846V44.2888C44.9673 43.9857 44.0579 44.0867 44.0579 44.0867C43.4515 44.0867 43.1484 44.3899 43.1484 44.3899C42.339 44.0867 36.681 44.592 36.681 44.592L36.58 44.3899H35.4684L35.3673 44.592C34.9631 44.8952 34.9631 45.4004 34.9631 45.4004L30.3147 45.6025C29.5063 44.8952 28.7989 45.1983 28.7989 45.1983C27.5863 45.7036 28.3947 46.8152 28.3947 46.8152C28.4957 47.7246 28.0915 49.5436 28.0915 49.5436C27.4852 51.8678 27.8894 53.4846 27.8894 53.4846C27.9905 54.192 28.5968 55.4057 28.5968 55.4057L27.3842 57.6278L27.181 57.2236V55.6068C27.181 55.1015 26.5757 54.6973 26.5757 54.6973L23.8473 52.5752L22.3315 52.4741L21.9273 52.0699C21.6231 51.6657 19.502 50.8573 19.502 50.8573L19.401 50.6552C18.6936 50.4531 17.3799 50.6552 17.3799 50.6552C16.3694 50.7562 16.0652 50.6552 16.0652 50.6552C13.641 50.352 12.1252 50.6552 12.1252 50.6552C11.3168 50.9583 11.9231 51.3625 11.9231 51.3625C12.1252 51.5646 12.1252 52.7773 12.1252 52.7773C11.822 53.1815 11.3168 57.4267 11.3168 57.4267C8.89149 61.0636 5.75886 65.1057 5.75886 65.1057L4.04096 66.4194C2.22201 66.9247 2.32306 67.3289 2.32306 67.3289C3.13148 67.7331 7.1736 67.7331 7.1736 67.7331C8.68939 67.4299 14.7526 67.7331 14.7526 67.7331C16.5705 67.3289 17.6831 66.6215 17.6831 66.6215L21.9273 66.5215C23.241 66.1162 23.9484 65.0057 23.9484 65.0057L26.0705 64.5004L26.6758 63.9951L26.9799 63.5899C27.9905 63.3878 28.3947 62.8826 28.3947 62.8826C28.8595 62.2631 29.3183 62.0024 29.5103 61.9135C29.4477 61.4698 29.4052 61.0191 29.4052 60.5583C29.4052 55.154 33.802 50.7562 39.2073 50.7562C44.6116 50.7562 49.0095 55.154 49.0095 60.5583C49.0095 60.5977 49.0034 60.6372 49.0034 60.6766L50.02 61.1647V60.9636H51.5358V61.1647L52.5463 61.2657V61.0636L54.9706 60.9636L54.6684 61.0636V61.3668L56.8916 61.9741L64.2684 62.0741H65.6104C65.5336 61.579 65.4811 61.0757 65.4811 60.5583C65.4811 55.154 69.8779 50.7562 75.2832 50.7562C80.6885 50.7562 85.0843 55.154 85.0843 60.5583C85.0843 60.7301 85.0681 60.8979 85.059 61.0676L90.9464 59.5478H92.4622C95.2916 59.2446 98.0201 57.7289 98.0201 57.7289C98.8285 57.2236 98.7264 56.6173 98.7264 56.6173ZM75.2832 64.2977C73.2177 64.2977 71.5442 62.6232 71.5442 60.5587C71.5442 58.4942 73.2177 56.8198 75.2832 56.8198C77.3477 56.8198 79.0211 58.4942 79.0211 60.5587C79.0211 62.6232 77.3477 64.2977 75.2832 64.2977ZM75.2832 52.2724C70.7065 52.2724 66.9969 55.9821 66.9969 60.5587C66.9969 65.1344 70.7065 68.8451 75.2832 68.8451C79.8589 68.8451 83.5685 65.1344 83.5685 60.5587C83.5685 55.9821 79.8589 52.2724 75.2832 52.2724ZM39.2071 64.2977C37.1426 64.2977 35.4682 62.6232 35.4682 60.5587C35.4682 58.4942 37.1426 56.8198 39.2071 56.8198C41.2716 56.8198 42.9461 58.4942 42.9461 60.5587C42.9461 62.6232 41.2716 64.2977 39.2071 64.2977ZM39.2071 52.2724C34.6305 52.2724 30.9208 55.9821 30.9208 60.5587C30.9208 65.1344 34.6305 68.8451 39.2071 68.8451C43.7828 68.8451 47.4935 65.1344 47.4935 60.5587C47.4935 55.9821 43.7828 52.2724 39.2071 52.2724Z" fill="#1D1D1B"/>
</svg>
