<svg width="102" height="102" viewBox="0 0 102 102" fill="none" xmlns="http://www.w3.org/2000/svg">
<path fill-rule="evenodd" clip-rule="evenodd" d="M78.4665 41.9514L78.3754 41.5695L78.4665 39.6981L79.0663 39.4436L79.7748 41.2063L78.4665 41.9514ZM37.6625 62.4967C37.6625 61.5188 38.4554 60.7262 39.4334 60.7262H55.9488C56.9267 60.7262 57.7193 61.5188 57.7193 62.4967C57.7193 63.4746 56.9267 64.2675 55.9488 64.2675H39.4334C38.4554 64.2675 37.6625 63.4746 37.6625 62.4967ZM38.5596 62.4967C38.5596 63.1066 39.054 63.6006 39.6636 63.6006C40.2735 63.6006 40.7676 63.1066 40.7676 62.4967C40.7676 61.8871 40.2735 61.3927 39.6636 61.3927C39.054 61.3927 38.5596 61.8871 38.5596 62.4967ZM54.7194 62.506C54.7194 63.1155 55.2138 63.6099 55.8234 63.6099C56.4333 63.6099 56.9273 63.1155 56.9273 62.506C56.9273 61.896 56.4333 61.402 55.8234 61.402C55.2138 61.402 54.7194 61.896 54.7194 62.506ZM64.0374 58.1249C64.0374 58.1249 64.0737 58.4519 62.8924 56.7258C62.8924 56.7258 65.0733 55.5443 65.8367 55.4718C65.8367 55.4718 65.5822 56.0898 64.0374 58.1249ZM59.8272 48.5843L59.6334 48.0998V47.0578C59.6334 47.0578 61.9596 45.9678 61.9355 46.0159C61.9111 46.0643 62.5651 47.397 62.5651 47.397L59.8272 48.5843ZM61.657 58.5976C61.657 58.5976 61.5658 58.9429 60.9298 59.0517L59.8032 59.3424V58.1497C59.8032 58.1497 60.8753 57.471 61.2206 57.5614C61.2206 57.5614 61.8749 58.1974 61.657 58.5976ZM45.4831 53.9151L47.3 53.0426C47.3 53.0426 48.609 54.6419 48.6571 55.6595L45.4831 53.9151ZM37.5114 58.3493L36.954 57.8644L42.2604 55.3444L43.5205 55.9746L37.5114 58.3493ZM35.0158 55.1505L34.6278 55.8292L32.6412 53.8907L30.7755 53.8666L30.6542 52.1944L31.793 49.8442L34.5069 51.2741C34.5069 51.2741 34.4096 51.7827 34.8945 51.9037L35.355 52.3157H36.7843L38.6987 53.3631L35.0158 55.1505ZM36.1817 62.9774L36.1665 62.9772C36.1665 62.9772 36.1023 62.8699 36.1604 62.7981C36.1659 62.8584 36.173 62.9181 36.1817 62.9774ZM36.2379 61.7248L31.914 60.2634C31.914 60.2634 30.3634 61.2569 29.3943 61.3657L28.4249 61.3294L27.88 60.1665L14.4925 60.1177V63.1101L14.7592 63.1466C14.7592 63.1466 14.8561 63.4133 14.5776 63.4614L13.5963 63.474V60.1177L12.1667 60.1424V63.9582H12.4452C12.4452 63.9582 12.5665 64.0917 12.1667 64.1158H11.0522C11.0522 64.1158 10.834 64.0917 10.8458 63.9463H11.1732V53.9514L10.5554 53.9151L10.4704 52.7518L9.98584 52.4974L12.7966 49.3234L14.1533 49.8686L30.2425 49.8442L30.2906 50.0139L31.3085 49.5538L23.8457 45.6282L23.0216 45.6767C23.0216 45.6767 22.9732 45.919 22.6343 45.943C22.6343 45.943 22.101 45.919 22.1494 45.386L21.3982 44.8774L21.3013 44.5378L16.7462 42.745L16.6008 42.8904L14.5169 41.2666C14.5169 41.2666 13.7901 41.0728 13.766 40.8793C13.766 40.8793 13.5963 40.5398 14.0324 40.4188C14.0324 40.4188 14.2502 39.2071 15.1228 39.2315C15.1228 39.2315 15.995 39.4012 16.4795 39.3528C16.4795 39.3528 16.6615 38.6981 17.9332 38.9892C17.9332 38.9892 19.278 39.6069 19.8958 39.9343L25.4203 42.8419L36.3241 48.9842C36.3241 48.9842 36.6148 48.5115 37.16 48.6931C37.16 48.6931 45.9558 50.0746 46.0646 50.038C46.1737 50.0017 47.5183 49.384 47.6274 49.3112C47.7365 49.2387 48.7906 49.3474 48.7906 49.3474C48.7906 49.3474 49.1539 48.7297 49.6266 49.093V45.2769L49.9051 45.0224L52.3526 45.0952L52.6067 45.2406V45.059H53.0791L53.1882 45.186V45.6584L52.7158 45.7855C52.7158 45.7855 52.8246 47.5122 52.7887 47.7122C52.7521 47.9121 54.6601 46.8762 54.6601 46.8762L55.1691 40.9335L54.3694 40.861L54.2786 40.3341H52.9886V39.5886H54.2603V39.08H55.1691C55.1691 39.08 55.6235 38.713 55.9684 38.9147L56.0958 39.1525L60.221 39.1166L60.6208 39.1525L60.9844 39.8431C60.9844 39.8431 60.857 40.7881 60.6208 41.6058C60.6208 41.6058 60.021 44.361 60.0939 44.4463C60.0939 44.4463 66.9633 40.9152 77.6486 36.845C77.6486 36.845 77.7943 36.972 78.0121 36.9355L78.4482 36.7176C78.4482 36.7176 78.2846 36.2452 78.7024 36.209C78.7024 36.209 79.0663 36.0633 79.0663 36.536L79.1934 36.5539L79.684 37.6081L79.1751 38.262L79.684 38.6981C79.684 38.6981 80.2655 38.262 80.5562 38.2078C80.5562 38.2078 80.6836 38.2444 80.3017 38.4986L81.1739 40.3521C81.1739 40.3521 81.7195 40.2612 81.1739 40.6065L80.5562 41.0247L80.956 42.1696L81.5921 42.0422L81.7195 42.2967L82.0102 42.3147L82.119 42.5874L78.7935 44.6408L79.1568 46.1494L78.5936 46.7671L78.7569 46.967C78.7569 46.967 83.7546 44.8408 87.5527 43.7141L87.6981 43.7866L89.4428 43.2597V43.4234L90.2784 43.1133L90.7328 44.1685L89.5333 44.8228C89.5333 44.8228 89.2791 45.0773 88.9884 45.0952C88.9884 45.0952 88.7519 45.4951 88.5703 45.5676L87.4802 45.6221L83.1006 47.8755L79.2113 49.5114C79.2113 49.5114 79.2296 50.0746 79.0297 50.1292C79.0297 50.1292 78.6119 49.7835 78.539 50.1292C78.539 50.1292 78.6299 50.2379 78.5753 50.3291L77.2308 50.9285L76.8672 50.674C76.8672 50.674 71.6696 52.8369 69.9252 53.6L65.3457 59.8151C65.3457 59.8151 65.3277 60.2146 64.9641 60.342C64.9641 60.342 61.2506 61.5016 59.204 62.0432C58.9832 60.4428 57.61 59.2104 55.9488 59.2104H39.4334C37.8842 59.2104 36.5852 60.2822 36.2379 61.7248Z" fill="#1D1D1B"/>
</svg>
