<svg width="40" height="40" viewBox="0 0 40 40" fill="none" xmlns="http://www.w3.org/2000/svg">
<path d="M26.8459 8.00012H23.563C19.9094 8.00012 17.5266 10.4299 17.5266 14.1802V17.0325H14.2436C13.9789 17.0325 13.7141 17.2438 13.7141 17.5607V21.6808C13.7141 21.9449 13.9259 22.209 14.2436 22.209H17.5266V32.6148C17.5266 32.8789 17.7384 33.143 18.0561 33.143H22.3451C22.6099 33.143 22.8746 32.9317 22.8746 32.6148V22.209H26.74C27.0048 22.209 27.2695 21.9977 27.2695 21.6808V17.5607C27.2695 17.4023 27.2166 17.2966 27.1107 17.191C27.0048 17.0854 26.8989 17.0325 26.74 17.0325H22.8746V14.6028C22.8746 13.4407 23.1394 12.8597 24.6749 12.8597H26.8989C27.1636 12.8597 27.4284 12.6484 27.4284 12.3315V8.52833C27.3225 8.21141 27.1107 8.00012 26.8459 8.00012Z" stroke="#D8C372" stroke-width="2.28571"/>
</svg>
