<svg width="40" height="40" viewBox="0 0 40 40" fill="none" xmlns="http://www.w3.org/2000/svg">
<path d="M29.265 14.8516C29.1781 14.511 28.9313 14.2539 28.649 14.175C28.1484 14.0344 25.7153 13.7144 20.5724 13.7144C15.4296 13.7144 12.9976 14.0344 12.4936 14.175C12.2147 14.2527 11.9678 14.5099 11.8798 14.8516C11.7553 15.3361 11.4296 17.3659 11.4296 20.5716C11.4296 23.7761 11.7553 25.8059 11.8798 26.2927C11.9667 26.6321 12.2136 26.8893 12.4947 26.967C12.9976 27.1087 15.4284 27.4287 20.5713 27.4287C25.7141 27.4287 28.1473 27.1087 28.6501 26.9681C28.929 26.8904 29.1758 26.6333 29.2638 26.2916C29.3896 25.807 29.7141 23.7716 29.7141 20.5716C29.7141 17.3716 29.3896 15.3373 29.265 14.8516ZM31.4776 14.2836C31.9998 16.3201 31.9998 20.5716 31.9998 20.5716C31.9998 20.5716 31.9998 24.823 31.4776 26.8596C31.1873 27.9853 30.3381 28.871 29.2627 29.1704C27.3107 29.7144 20.5713 29.7144 20.5713 29.7144C20.5713 29.7144 13.8364 29.7144 11.8798 29.1704C10.7998 28.8664 9.95184 27.9819 9.66499 26.8596C9.1427 24.823 9.1427 20.5716 9.1427 20.5716C9.1427 20.5716 9.1427 16.3201 9.66499 14.2836C9.95527 13.1579 10.8044 12.2721 11.8798 11.9727C13.8376 11.4287 20.5724 11.4287 20.5724 11.4287C20.5724 11.4287 27.3107 11.4287 29.2638 11.9727C30.3427 12.2767 31.1918 13.1613 31.4787 14.2836M18.2867 24.5716V16.5716L25.1438 20.5716L18.2867 24.5716Z" fill="#D8C372"/>
</svg>
